<?xml version="1.0" standalone="no"?>
<!DOCTYPE svg PUBLIC "-//W3C//DTD SVG 1.1//EN" "http://www.w3.org/Graphics/SVG/1.1/DTD/svg11.dtd" >
<svg xmlns="http://www.w3.org/2000/svg" xmlns:xlink="http://www.w3.org/1999/xlink" version="1.1">
<metadata></metadata>
<defs>
<font id="spectralitalic" horiz-adv-x="1024" >
<font-face units-per-em="2048" ascent="1638" descent="-410" />
<missing-glyph horiz-adv-x="487" />
<glyph horiz-adv-x="0" />
<glyph horiz-adv-x="682" />
<glyph unicode=" "  horiz-adv-x="487" />
<glyph unicode="&#x09;" horiz-adv-x="487" />
<glyph unicode="&#xa0;" horiz-adv-x="487" />
<glyph unicode="!" horiz-adv-x="493" d="M31 92q0 51 34.5 92t90.5 41q51 0 74.5 -28.5t23.5 -73.5q0 -53 -34 -93t-91 -40q-51 0 -74.5 28.5t-23.5 73.5zM182 410l88 942h193l-244 -942h-37z" />
<glyph unicode="&#x22;" horiz-adv-x="921" d="M307 1004l19 512h184l-162 -512h-41zM717 1004l19 512h184l-162 -512h-41z" />
<glyph unicode="#" d="M23 0l174 426h-164l14 86h184l131 324h-192l14 86h213l176 430h97l-176 -430h235l176 430h96l-176 -430h164l-14 -86h-184l-132 -324h193l-14 -86h-213l-174 -426h-97l174 426h-235l-174 -426h-96zM328 512h235l131 324h-235z" />
<glyph unicode="$" d="M121 250q0 102 88 102h55l10 -8l-8 -55q-23 -150 70 -203l98 590q-94 57 -139 129t-45 176q0 86 40 158.5t106.5 127t148.5 81.5l28 168h76l-24 -150q35 6 69 6q25 0 45 -2l25 146h74l-27 -158q41 -10 71.5 -27.5t57.5 -42.5q37 -35 53.5 -72.5t16.5 -76.5q0 -94 -90 -95 h-56l-8 9l8 55q16 111 -69 152l-93 -555q100 -70 144.5 -141.5t44.5 -168.5q0 -150 -86 -252t-219 -141l-27 -166h-76l25 150q-39 -6 -80 -6q-16 0 -33 2l-24 -146h-76l27 162q-45 16 -79 40.5t-57 49.5q-66 76 -65 162zM397 1034q0 -51 14.5 -90t53.5 -78l65 389 q-61 -31 -97 -88t-36 -133zM408 63h20q51 0 94 11l84 495q-43 31 -102 66zM532 813q31 -22 74 -47q16 -8 29 -18l90 532q-29 4 -61 4q-27 0 -54 -4zM604 102q70 37 102.5 102.5t32.5 141.5q0 47 -15 88t-52 78z" />
<glyph unicode="%" horiz-adv-x="1495" d="M107 993q0 139 45 264t124.5 202t188.5 77q106 0 161.5 -77t55.5 -212q0 -139 -45 -263t-125.5 -200.5t-189.5 -76.5q-104 0 -159.5 76.5t-55.5 209.5zM113 31l1226 1505l66 -51l-1227 -1505zM268 954q0 -88 17.5 -139t60.5 -51t77 49t55.5 128t32.5 171t11 178 q0 88 -17.5 138.5t-62.5 50.5q-43 0 -75.5 -49.5t-54 -127t-33 -170t-11.5 -178.5zM838 266q0 139 45 264t124.5 202t188.5 77q106 0 161.5 -77t55.5 -212q0 -139 -45 -263t-125.5 -200.5t-189.5 -76.5q-104 0 -159.5 76.5t-55.5 209.5zM999 227q0 -88 17.5 -139t60.5 -51 t77 49t55.5 128t32.5 171t11 178q0 88 -17.5 138.5t-62.5 50.5q-43 0 -75.5 -49.5t-54 -127t-33 -170t-11.5 -178.5z" />
<glyph unicode="&#x26;" horiz-adv-x="1488" d="M61 279q0 102 37 177.5t116 140.5t200 134q-49 70 -80 137.5t-31 155.5q0 111 49 188.5t133 118.5t189 41q84 0 153.5 -32.5t110.5 -88t41 -125.5q0 -74 -39 -129t-123 -108t-221 -121q16 -23 39 -51l276 -357q102 129 195 322l-178 80l6 33h463l-6 -33l-179 -74 q-66 -111 -130 -206t-130 -175l15 -18q70 -92 143.5 -148.5t153.5 -56.5q68 0 120 47h5l18 -22q-47 -63 -110.5 -96t-135.5 -33q-111 0 -187.5 57t-142.5 141q-102 -96 -212.5 -147t-235.5 -51q-150 0 -236 86t-86 213zM236 344q0 -106 66.5 -175t172.5 -69q166 0 316 131 l-320 422q-6 8 -12 16.5t-13 16.5q-115 -78 -162.5 -160t-47.5 -182zM453 1081q0 -66 28.5 -129t83.5 -143q156 84 208 166t52 153q0 74 -46 117t-124 43t-140 -50.5t-62 -156.5z" />
<glyph unicode="'" horiz-adv-x="512" d="M307 1004l19 512h184l-162 -512h-41z" />
<glyph unicode="(" horiz-adv-x="512" d="M113 399q0 215 63.5 417t176 379t257.5 321h41v-7q-193 -250 -306.5 -543.5t-113.5 -617.5q0 -184 27 -342t90 -307v-6h-41q-94 158 -144 335t-50 371z" />
<glyph unicode=")" horiz-adv-x="512" d="M-133 -299q193 250 306.5 544t113.5 617q0 184 -27 341t-90 308v7h41q94 -158 144.5 -336t50.5 -371q0 -217 -63.5 -417.5t-176.5 -377t-258 -321.5h-41v6z" />
<glyph unicode="*" horiz-adv-x="770" d="M184 1229l60 121l233 -125l10 291h117l-86 -291l275 125l18 -121l-285 -53l160 -218l-113 -73l-90 254l-174 -254l-90 73l234 218z" />
<glyph unicode="+" d="M55 510l17 94h379l67 383h100l-67 -383h377l-17 -94h-376l-68 -383h-100l67 383h-379z" />
<glyph unicode="," horiz-adv-x="489" d="M-4 -356q115 66 159 127t44 125q0 82 -68 127l-59 38v21l49 61q23 29 34 37t23 8q18 0 45 -18q51 -35 72.5 -83t21.5 -107q0 -90 -72.5 -186.5t-248.5 -186.5v37z" />
<glyph unicode="-" horiz-adv-x="716" d="M82 469l20 115h533l-21 -115h-532z" />
<glyph unicode="." horiz-adv-x="489" d="M72 92q0 51 34.5 92t90.5 41q51 0 74.5 -28.5t23.5 -73.5q0 -53 -34 -93t-91 -40q-51 0 -74.5 28.5t-23.5 73.5z" />
<glyph unicode="/" horiz-adv-x="581" d="M-123 -246l723 1782h105l-723 -1782h-105z" />
<glyph unicode="0" d="M66 426q0 188 45 358t124.5 303.5t182 209t215.5 75.5q158 0 240.5 -118.5t82.5 -329.5q0 -186 -45 -356.5t-124.5 -303.5t-181 -208.5t-216.5 -75.5q-158 0 -240.5 117.5t-82.5 328.5zM242 418q0 -348 176 -348q72 0 137.5 68.5t115.5 187t79.5 275.5t29.5 331 q0 350 -176 350q-72 0 -137.5 -68.5t-115.5 -188.5t-79.5 -275.5t-29.5 -331.5z" />
<glyph unicode="1" d="M168 0l8 33l189 82l182 1032l-344 -174l14 71l490 308h41l-220 -1237l144 -82l-6 -33h-498z" />
<glyph unicode="2" d="M-2 0l10 51q213 207 353.5 351.5t224.5 242.5t126 168t55 126t13 118q0 102 -65.5 160.5t-145.5 58.5q-102 0 -155.5 -56.5t-73.5 -168.5l-12 -70l-19 -20h-73q-39 0 -57.5 6t-8.5 63q10 53 36.5 111.5t98.5 103.5q57 37 106.5 65.5t103.5 45t132 16.5q88 0 156.5 -40 t108.5 -108.5t40 -152.5q0 -63 -17 -123.5t-62.5 -129t-127 -160t-208.5 -215.5t-310 -293h471l129 217h33l-84 -367h-778z" />
<glyph unicode="3" d="M8 195q0 53 18.5 74.5t47.5 21.5h106l10 -15l-10 -67q-10 -66 34 -110t171 -44q92 0 165 45t114 120t41 167q0 121 -79 194.5t-206 73.5h-125l18 90h62q117 0 203 48.5t133 125t47 162.5q0 90 -51.5 152.5t-139.5 62.5q-84 0 -145.5 -42t-75.5 -130l-12 -80l-19 -16h-82 q-33 0 -49 8t-16 37q0 45 39 108.5t123 112.5q59 35 124.5 56.5t151.5 21.5q98 0 170 -42t112 -109.5t40 -143.5q0 -70 -43 -139.5t-120 -125.5t-175 -81q131 -31 209 -117t78 -211q0 -74 -38 -148.5t-105.5 -137t-156 -100t-186.5 -37.5q-121 0 -199.5 30.5t-121.5 69.5 q-33 31 -47.5 57.5t-14.5 57.5z" />
<glyph unicode="4" d="M-16 395l6 41l821 916h41l-147 -834h231l-21 -123h-233l-70 -395h-163l69 395h-534zM182 518h359l90 514z" />
<glyph unicode="5" d="M47 104q0 37 43 66l78 55h18l19 -47q16 -41 61 -68.5t127 -27.5q90 0 167 40t123 118.5t46 197.5q0 123 -84 205t-264 82q-80 0 -191 -18l113 645h621l-29 -158h-535l-57 -320q72 6 127 7q152 0 248 -49.5t142 -133.5t46 -190q0 -98 -37.5 -191.5t-109.5 -170 t-172 -121.5t-223 -45q-143 0 -210 36.5t-67 87.5z" />
<glyph unicode="6" d="M63 383q0 150 56.5 298t171.5 282.5t284.5 240t397.5 168.5l-12 -53q-207 -68 -350.5 -178.5t-229.5 -250.5t-121 -294q63 90 153.5 144.5t196.5 54.5q147 0 221 -90.5t74 -231.5q0 -113 -42 -204t-112.5 -155.5t-154.5 -99t-170 -34.5q-123 0 -204 52t-120 143t-39 208z M236 371q0 -162 58 -235t152 -73q82 0 150 45.5t108.5 126t40.5 189.5q0 244 -190 244q-88 0 -173 -47.5t-140 -126.5q-6 -62 -6 -123z" />
<glyph unicode="7" d="M113 0q59 100 105 185t97.5 175.5t121 202t172 265t253.5 366.5h-690l31 158h837l-6 -41q-94 -135 -185 -266.5t-180 -280t-176 -333.5t-174 -431h-206z" />
<glyph unicode="8" d="M35 272q0 123 93 223.5t271 192.5q-111 82 -155.5 150.5t-44.5 158.5q0 100 59 186.5t156.5 137.5t212.5 51q96 0 170.5 -40t116.5 -107.5t42 -149.5q0 -92 -72.5 -177t-252.5 -179q96 -68 147 -127.5t70.5 -117.5t19.5 -124q0 -96 -60 -180t-163.5 -137t-230.5 -53 q-102 0 -189.5 35.5t-138.5 102t-51 154.5zM201 305q0 -117 63.5 -179.5t179.5 -62.5q127 0 198 73t71 186q0 109 -66.5 177t-189.5 150q-106 -70 -161.5 -121t-75 -102t-19.5 -121zM365 1061q0 -78 38.5 -147.5t161.5 -149.5q127 70 178.5 133.5t51.5 163.5 q0 111 -53.5 168t-153.5 57q-113 0 -168 -65.5t-55 -159.5z" />
<glyph unicode="9" d="M63 -20l13 53q207 68 350 178.5t229 250.5t121 294q-63 -90 -153.5 -144.5t-196.5 -54.5q-147 0 -221 90t-74 232q0 113 42 204t112.5 155.5t154.5 99t170 34.5q123 0 204 -52t120 -143.5t39 -207.5q0 -150 -56.5 -298.5t-171 -282.5t-285 -239.5t-397.5 -168.5zM291 928 q0 -244 190 -244q88 0 173 47t141 127q6 61 6 123q0 162 -58.5 234.5t-152.5 72.5q-80 0 -148.5 -45t-109.5 -125.5t-41 -189.5z" />
<glyph unicode=":" horiz-adv-x="489" d="M72 92q0 51 34.5 92t90.5 41q51 0 74.5 -28.5t23.5 -73.5q0 -53 -34 -93t-91 -40q-51 0 -74.5 28.5t-23.5 73.5zM199 809q0 51 34.5 92t90.5 41q51 0 74.5 -28.5t23.5 -73.5q0 -53 -34 -93t-91 -40q-51 0 -74.5 28.5t-23.5 73.5z" />
<glyph unicode=";" horiz-adv-x="489" d="M37 -356q115 66 159 127t44 125q0 82 -68 127l-59 38v21l49 61q23 29 34 37t23 8q18 0 45 -18q51 -35 72.5 -83t21.5 -107q0 -90 -72.5 -186.5t-248.5 -186.5v37zM199 809q0 51 34.5 92t90.5 41q51 0 74.5 -28.5t23.5 -73.5q0 -53 -34 -93t-91 -40q-51 0 -74.5 28.5 t-23.5 73.5z" />
<glyph unicode="&#x3c;" d="M61 506l17 102l926 379l-19 -106l-803 -330l688 -328l-16 -96z" />
<glyph unicode="=" d="M29 301l16 94h856l-16 -94h-856zM102 719l17 94h856l-17 -94h-856z" />
<glyph unicode="&#x3e;" d="M-20 127l18 106l803 330l-688 328l16 96l793 -379l-17 -102z" />
<glyph unicode="?" horiz-adv-x="827" d="M164 92q0 51 34.5 92t90.5 41q51 0 74.5 -28.5t23.5 -73.5q0 -53 -34 -93t-91 -40q-51 0 -74.5 28.5t-23.5 73.5zM201 1319q0 23 25.5 38t99.5 15q63 0 139 -29.5t144.5 -81t112.5 -118t44 -139.5q0 -80 -32 -127.5t-82 -75t-105 -47t-105.5 -42t-82 -59.5t-31.5 -100 q0 -41 14 -74t43 -63l-27 -25q-72 63 -102.5 126t-30.5 126q0 76 33 121t85 72.5t111.5 46t111.5 39t85 51.5t33 86q0 84 -67.5 128t-159.5 44q-23 0 -46.5 -2t-50.5 -8l-90 -19l-26 10l-33 68q-10 20 -10 39z" />
<glyph unicode="@" horiz-adv-x="1624" d="M123 342q0 164 62.5 310.5t173 259t256 176t313.5 63.5q176 0 305 -73.5t198.5 -203t69.5 -292.5q0 -98 -30.5 -193.5t-88 -174.5t-139.5 -125t-186 -46q-90 0 -120 47t-15 129l10 62q-68 -109 -145.5 -173.5t-161.5 -64.5q-72 0 -119 61.5t-47 184.5q0 111 35.5 215 t99 189t144.5 135.5t171 50.5q45 0 86 -11.5t74 -29.5l61 41h52l-109 -607q-16 -86 -8 -118.5t59 -32.5q74 0 140.5 63.5t109.5 167t43 223.5q0 145 -66.5 264t-186.5 189t-281 70q-145 0 -263 -55.5t-202 -153.5t-129 -228.5t-45 -279.5q0 -180 70.5 -306t197.5 -193.5 t291 -67.5q133 0 234.5 33.5t191.5 97.5l18 -43q-109 -68 -228 -106t-271 -38q-186 0 -326.5 73t-219.5 204t-79 307zM602 358q0 -100 21.5 -148t85.5 -48q63 0 126.5 60.5t110.5 131.5l64 363q-33 43 -68 67.5t-84 24.5q-76 0 -134 -65.5t-90 -169t-32 -216.5z" />
<glyph unicode="A" horiz-adv-x="1464" d="M-31 0l8 33l121 63l723 1266h88l269 -1256l122 -73l-8 -33h-485l6 33l186 71l-75 383h-486l-219 -389l166 -65l-6 -33h-410zM496 590h407l-106 536z" />
<glyph unicode="B" horiz-adv-x="1282" d="M20 0l7 33l170 82l196 1122l-141 82l6 33h442q205 0 327 -72t122 -215q0 -109 -81 -207t-230 -135q160 -27 240.5 -107.5t80.5 -205.5q0 -98 -65.5 -192.5t-196.5 -156t-326 -61.5h-551zM369 102h221q190 0 283.5 84t93.5 224q0 123 -78 179t-246 56h-180zM481 748h131 q174 0 260 80.5t86 201.5q0 109 -61.5 164t-202.5 55h-125z" />
<glyph unicode="C" horiz-adv-x="1370" d="M123 530q0 174 63.5 328t173 268.5t252 180t299.5 65.5q117 0 198 -22.5t179 -75.5l-53 -359h-33l-82 254q-51 53 -103 81t-130 28q-139 0 -245.5 -55.5t-179.5 -152.5t-111 -221t-38 -263q0 -242 112 -377t286 -135q88 0 163.5 34.5t135.5 73.5l164 224h32l-78 -326 q-63 -31 -129.5 -53.5t-148.5 -34.5t-195 -12q-170 0 -288.5 70.5t-181 194.5t-62.5 285z" />
<glyph unicode="D" horiz-adv-x="1499" d="M20 0l7 33l170 82l196 1122l-141 82l6 33h453q244 0 395 -71t221 -194.5t70 -283.5q0 -100 -30 -210t-92.5 -215.5t-159.5 -190.5t-230 -136t-307 -51h-558zM369 102h225q203 0 339 84t204.5 235.5t68.5 356.5q0 217 -126 344t-398 127h-111z" />
<glyph unicode="E" horiz-adv-x="1271" d="M20 0l7 33l170 82l196 1122l-141 82l6 33h942l-63 -353h-33l-76 250h-457l-88 -499h330l127 174h33l-80 -449h-33l-63 172h-332l-96 -545h546l164 271h33l-65 -373h-1027z" />
<glyph unicode="F" horiz-adv-x="1234" d="M20 0l7 33l170 82l196 1122l-141 82l6 33h932l-62 -353h-32l-78 250h-447l-88 -499h310l127 174h32l-80 -449h-32l-64 172h-311l-94 -532l182 -82l-6 -33h-527z" />
<glyph unicode="G" horiz-adv-x="1513" d="M123 530q0 174 65.5 328t178 269.5t258 181t307.5 65.5q84 0 151.5 -9t129 -30.5t133.5 -60.5l-54 -338h-32l-82 233q-55 59 -118 84t-153 25q-145 0 -255.5 -55.5t-186.5 -152.5t-115 -222t-39 -264q0 -158 53.5 -267.5t148.5 -167t218 -57.5q63 0 126 10.5t130 38.5 l60 338l-160 82l8 33h481l-6 -33l-149 -88l-56 -321q-102 -78 -242.5 -125t-267.5 -47q-170 0 -288.5 70.5t-181 194.5t-62.5 285z" />
<glyph unicode="H" horiz-adv-x="1585" d="M20 0l7 33l155 82l199 1122l-148 82l7 33h487l-6 -33l-166 -82l-86 -489h664l86 489l-148 82l6 33h488l-6 -33l-166 -82l-199 -1122l158 -82l-6 -33h-488l6 33l156 82l94 530h-663l-95 -530l158 -82l-6 -33h-488z" />
<glyph unicode="I" horiz-adv-x="747" d="M20 0l7 33l155 82l199 1122l-148 82l7 33h487l-6 -33l-166 -82l-199 -1122l158 -82l-6 -33h-488z" />
<glyph unicode="J" horiz-adv-x="768" d="M-117 -266l27 80h12q31 -10 49.5 -14.5t44.5 -4.5q41 0 76 20.5t63.5 86t51.5 202.5l201 1133l-142 82l6 33h486l-6 -33l-168 -82l-133 -745q-41 -229 -108 -412.5t-169 -282.5q-68 -63 -106.5 -96t-69.5 -44t-68 -11q-29 0 -46 20q-9 10 -9 27t8 41z" />
<glyph unicode="K" horiz-adv-x="1433" d="M20 0l7 33l170 82l196 1122l-141 82l6 33h487l-8 -33l-168 -82l-198 -1122l143 -82l-8 -33h-486zM475 692l637 557l-127 70l6 33h410l-8 -33l-125 -49l-617 -537l479 -627l125 -73l-6 -33h-266z" />
<glyph unicode="L" horiz-adv-x="1224" d="M20 0l7 33l170 82l196 1122l-141 82l6 33h506l-6 -33l-189 -82l-198 -1135h473l190 353h33l-80 -455h-967z" />
<glyph unicode="M" horiz-adv-x="1888" d="M20 0l7 33l168 82l241 1120l-170 84l8 33h365l270 -1104l615 1104h344l-8 -33l-172 -80l-132 -1124l123 -82l-6 -33h-452l6 33l157 80l123 1001l-628 -1124h-86l-271 1124l-207 -1001l144 -80l-6 -33h-433z" />
<glyph unicode="N" horiz-adv-x="1589" d="M20 0l7 33l174 82l196 1118l-143 86l6 33h287l569 -1020l160 909l-189 78l9 33h483l-6 -33l-172 -80l-219 -1249h-76l-610 1083l-170 -960l188 -80l-8 -33h-486z" />
<glyph unicode="O" horiz-adv-x="1568" d="M123 578q0 154 57.5 297t160.5 255.5t242.5 178t303.5 65.5q170 0 295 -75.5t194.5 -212t69.5 -312.5q0 -152 -56.5 -293t-159 -254.5t-242.5 -180t-308 -66.5t-293 75.5t-194.5 210.5t-69.5 312zM309 598q0 -154 55.5 -271.5t152.5 -183t228 -65.5q115 0 209.5 53 t163 148.5t106.5 217t38 261.5q0 156 -54.5 272.5t-152 183t-224.5 66.5q-152 0 -270.5 -91t-185 -246t-66.5 -345z" />
<glyph unicode="P" horiz-adv-x="1271" d="M20 0l7 33l170 82l196 1122l-141 82l6 33h449q227 0 365 -80t138 -254q0 -109 -70.5 -204t-203.5 -154.5t-315 -59.5h-164l-86 -485l161 -82l-6 -33h-506zM475 702h193q178 0 264 85t86 217q0 129 -84 187t-238 58h-125z" />
<glyph unicode="Q" horiz-adv-x="1568" d="M123 578q0 154 57.5 297t160.5 255.5t242.5 178t303.5 65.5q170 0 295 -75.5t194.5 -212t69.5 -312.5q0 -162 -65.5 -314.5t-183.5 -269t-277 -170.5q119 -104 197.5 -158.5t142 -74.5t135.5 -20q57 0 96 16l-6 -33q-47 -23 -113.5 -39t-138.5 -16q-76 0 -154 20.5 t-172 82t-217 182.5h-10q-168 0 -293 75.5t-194.5 210.5t-69.5 312zM309 598q0 -154 55.5 -271.5t152.5 -183t228 -65.5q115 0 209.5 53t163 148.5t106.5 217t38 261.5q0 156 -54.5 272.5t-152 183t-224.5 66.5q-152 0 -270.5 -91t-185 -246t-66.5 -345z" />
<glyph unicode="R" horiz-adv-x="1277" d="M20 0l7 33l170 82l196 1122l-141 82l6 33h418q215 0 339 -84t124 -228q0 -139 -93.5 -238.5t-230.5 -137.5l264 -558l117 -73l-6 -33h-266l-271 627h-192l-90 -510l133 -84l-6 -33h-478zM479 729h172q94 0 160 40t101.5 104.5t35.5 138.5q0 111 -75.5 174t-206.5 63h-95z " />
<glyph unicode="S" horiz-adv-x="1001" d="M0 74l39 336h33l80 -240q55 -55 111 -79.5t116 -24.5q145 0 219 85t74 220q0 84 -54.5 143t-195.5 137q-115 66 -168 139.5t-53 174.5q0 117 63.5 209t162.5 145t208 53q90 0 161.5 -22.5t143.5 -63.5l-37 -328h-33l-75 238q-35 33 -81 59.5t-118 26.5q-63 0 -117.5 -34 t-88.5 -96t-34 -144q0 -74 46.5 -128.5t154.5 -115.5q106 -59 167.5 -111.5t89.5 -111t28 -133.5q0 -127 -67.5 -223.5t-177.5 -150.5t-235 -54q-121 0 -200.5 23.5t-161.5 70.5z" />
<glyph unicode="T" horiz-adv-x="1320" d="M154 938l71 414h1137l-74 -414h-33l-77 311h-312l-202 -1134l180 -82l-6 -33h-566l9 33l206 82l203 1134h-317l-187 -311h-32z" />
<glyph unicode="U" horiz-adv-x="1603" d="M256 1319l6 33h488l-9 -33l-168 -82l-120 -682q-8 -39 -13.5 -80t-5.5 -74q0 -166 84 -239.5t236 -73.5q86 0 165.5 43t139 131t82.5 221l133 758l-182 78l8 33h483l-6 -33l-168 -80l-125 -715q-35 -197 -116 -316.5t-201 -173.5t-267 -54q-197 0 -319.5 96t-122.5 305 q0 33 4 68.5t10 74.5l125 713z" />
<glyph unicode="V" horiz-adv-x="1433" d="M184 1319l9 33h485l-6 -33l-183 -70l205 -987h13l536 987l-164 70l6 33h410l-8 -33l-121 -66l-702 -1263h-89l-268 1257z" />
<glyph unicode="W" horiz-adv-x="1939" d="M184 1319l9 33h493l-6 -33l-186 -74l94 -921h14l510 1038h72l174 -1036h10l404 923l-166 70l6 33h430l-6 -33l-140 -68l-575 -1261h-72l-178 1022h-14l-520 -1022h-74l-144 1251z" />
<glyph unicode="X" horiz-adv-x="1437" d="M-51 0l8 33l149 71l537 584l-307 563l-111 68l6 33h486l-6 -33l-191 -68l-2 -10l256 -459l410 459v8l-142 70l7 33h419l-6 -33l-125 -66l-514 -559l328 -585l123 -76l-6 -33h-496l6 33l178 69l2 9l-266 487l-438 -487v-9l154 -69l-7 -33h-452z" />
<glyph unicode="Y" horiz-adv-x="1390" d="M195 1319l8 33h463l-9 -33l-165 -66l-3 -8l271 -514l414 510l2 8l-144 70l8 33h422l-6 -33l-131 -64l-524 -624l-92 -516l161 -82l-6 -33h-524l6 33l189 82l92 514l-324 620z" />
<glyph unicode="Z" horiz-adv-x="1265" d="M72 0l12 72l877 1177h-490l-172 -270h-33l66 373h862l-12 -72l-881 -1178h539l174 291h33l-70 -393h-905z" />
<glyph unicode="[" horiz-adv-x="512" d="M10 -307l305 1823h351l-9 -48h-227l-287 -1728h226l-9 -47h-350z" />
<glyph unicode="\" horiz-adv-x="671" d="M123 1536h98l328 -1782h-98z" />
<glyph unicode="]" horiz-adv-x="512" d="M-133 -307l8 47h227l287 1728h-225l8 48h350l-305 -1823h-350z" />
<glyph unicode="^" d="M53 512l541 860h96l240 -860h-105l-202 725l-457 -725h-113z" />
<glyph unicode="_" d="M51 -272l15 73h892l-14 -73h-893z" />
<glyph unicode="`" d="M350 1384.5q-4 32.5 0 63.5h144l184 -363h-21l-264 234q-39 33 -43 65.5z" />
<glyph unicode="a" horiz-adv-x="1038" d="M96 262q0 127 40 248t110.5 219t163 155.5t196.5 57.5q51 0 98.5 -12t83.5 -33l72 45h51l-125 -698q-6 -35 -6 -59q0 -18 4 -29q8 -27 33 -27q35 0 76 38t78 116l26 -13q-59 -154 -127.5 -222t-140.5 -68q-73 0 -99 55q-16 34 -16 81q0 30 7 66l10 54h-8 q-78 -119 -164 -187.5t-180 -68.5q-82 0 -132.5 70.5t-50.5 211.5zM252 342q0 -115 25.5 -171t97.5 -56q49 0 98 32.5t94 84t80 104.5l76 422q-39 51 -79 77.5t-97 26.5q-88 0 -154.5 -75.5t-103.5 -194.5t-37 -250z" />
<glyph unicode="b" horiz-adv-x="1009" d="M92 -20l246 1413l-158 69v13l334 61h6l-147 -850h10q43 63 94 121.5t112.5 96.5t135.5 38q82 0 132 -70.5t50 -212.5q0 -127 -40 -247.5t-110.5 -219t-163 -155.5t-196.5 -57q-53 0 -102 13t-86 36l-105 -49h-12zM283 168q45 -59 84 -84t90 -25q80 0 147.5 69 t107.5 186.5t40 265.5q0 125 -27.5 176t-95.5 51q-57 0 -131 -60.5t-144 -164.5z" />
<glyph unicode="c" horiz-adv-x="874" d="M102 328q0 106 42 213.5t115 198.5t164 146.5t187 55.5q76 0 123 -27.5t76 -72.5q12 -18 16 -30.5t4 -27.5q0 -14 -7 -28.5t-23 -24.5l-60 -35h-14l-41 60q-33 49 -66.5 72.5t-97.5 23.5q-68 0 -128 -65.5t-98 -167t-38 -211.5q0 -145 50 -223.5t163 -78.5q35 0 78 13.5 t94 55.5t113 128h4l20 -16q-88 -156 -178 -231.5t-194 -75.5q-147 0 -225.5 89t-78.5 259z" />
<glyph unicode="d" horiz-adv-x="1054" d="M102 262q0 127 40 248t111 219t163 155.5t196 57.5q74 0 142 -27l84 478l-179 69v13l355 61h6l-227 -1292q-6 -38 -7 -63q0 -15 3 -25q6 -27 34 -27q35 0 76 38t78 116l27 -13q-59 -154 -128 -222t-141 -68q-73 0 -99 55q-16 34 -16 81q0 30 7 66l10 54h-8 q-172 -256 -344 -256q-82 0 -132.5 70.5t-50.5 211.5zM258 342q0 -129 28.5 -178t94.5 -49q59 0 133 60.5t139 160.5l74 420q-43 57 -83 81.5t-91 24.5q-82 0 -148.5 -71.5t-106.5 -189.5t-40 -259z" />
<glyph unicode="e" horiz-adv-x="907" d="M102 303q0 121 40 234.5t111 205t164 145.5t201 54q102 0 154.5 -47t52.5 -111q0 -70 -49 -128t-171 -106t-343 -85q-4 -41 -4 -86q0 -125 53.5 -199t167.5 -74q68 0 133.5 37t135.5 121h4l20 -16q-70 -121 -167 -194.5t-197 -73.5q-158 0 -232 87t-74 236zM272 539 q154 27 240 57.5t121 72.5t35 105q0 41 -27 68.5t-78 27.5q-111 0 -187.5 -91t-103.5 -240z" />
<glyph unicode="f" horiz-adv-x="653" d="M-258 -422q0 18 12 43l29 62h12l39 -23q31 -18 84 -18q92 0 144.5 90t74.5 233l127 866h-162v91h174l13 82q6 41 36.5 106.5t82 138t118 138t143 107.5t158.5 42q18 0 39 -5t33 -11q27 -14 37 -25.5t10 -26.5q0 -8 -5 -21t-11 -24l-33 -61h-14l-47 22q-51 23 -123 23 q-106 0 -170 -90t-84 -232l-25 -163h232v-91h-244l-117 -788q-6 -39 -32.5 -105.5t-70.5 -140t-100.5 -139.5t-122 -108t-137.5 -42q-47 0 -73.5 21.5t-26.5 48.5z" />
<glyph unicode="g" horiz-adv-x="905" d="M-20 -283q0 66 19 103t64 82l164 92v4q-63 18 -105 51t-42 96q0 43 10 72t39 62l137 69v6q-55 33 -87 89.5t-32 127.5q0 86 50.5 171t137.5 142.5t200 57.5q55 0 114 -20h309v-91h-182l-8 -6q43 -57 43 -151q0 -57 -26.5 -119.5t-78 -118t-122 -89.5t-158.5 -34 q-61 0 -113 19q-47 -23 -66.5 -56.5t-19.5 -70.5q0 -41 41 -63.5t105.5 -37t138.5 -30t138.5 -41t105.5 -69.5t41 -118q0 -82 -51.5 -159.5t-152.5 -128t-257 -50.5q-182 0 -269 59.5t-87 149.5zM133 -260q0 -76 64.5 -122t173.5 -46q141 0 208.5 63.5t67.5 151.5 q0 57 -33.5 91t-89 52.5t-120 29.5t-125.5 26q-94 -66 -120 -126.5t-26 -119.5zM301 594q0 -90 44 -145.5t118 -55.5q57 0 101 43t69.5 105.5t25.5 124.5q0 88 -43 142t-112 54q-61 0 -107.5 -40t-71 -101.5t-24.5 -126.5z" />
<glyph unicode="h" horiz-adv-x="1058" d="M61 0l244 1389l-160 71v13l336 61h6l-141 -807h4q72 80 126 127t106.5 67.5t117.5 20.5q100 0 154 -82q38 -57 39 -141q0 -37 -8 -80l-72 -395q-6 -38 -6 -63q0 -15 2 -25q6 -27 35 -27q35 0 76 38t77 116l27 -13q-59 -154 -128 -222t-140 -68q-72 0 -98 55 q-17 34 -17 83q0 29 6 64l80 451q3 19 3 37q0 50 -20 91q-28 56 -118 56q-45 0 -92 -29.5t-92.5 -71.5t-77.5 -79l-113 -637h-156z" />
<glyph unicode="i" horiz-adv-x="589" d="M78 868v13l354 61h6l-125 -698q-6 -38 -6 -63q0 -15 2 -25q6 -27 35 -27q35 0 76 38t78 116l26 -13q-59 -154 -127.5 -222t-140.5 -68t-98 55q-17 34 -17 83q0 29 6 64l109 617zM285 1315q0 47 34.5 82t81.5 35t82 -35t35 -82t-35 -82t-82 -35t-81.5 35t-34.5 82z" />
<glyph unicode="j" horiz-adv-x="589" d="M-156 -438q70 45 122 99t88 130t57 189l145 819l-178 69v13l354 61h6l-168 -942q-29 -152 -140.5 -269.5t-285.5 -201.5v33zM285 1315q0 47 34.5 82t81.5 35t82 -35t35 -82t-35 -82t-82 -35t-81.5 35t-34.5 82z" />
<glyph unicode="k" horiz-adv-x="956" d="M61 0l244 1389l-160 71v13l336 61h6l-270 -1534h-156zM319 516v10q150 158 241 248t146.5 129t100.5 39q25 0 42 -5t28 -13q14 -10 21 -25.5t-1 -34.5l-35 -86l-10 -8l-37 14q-10 4 -23.5 6.5t-41.5 2.5q-18 0 -44 -7.5t-55 -31.5l-194 -170l207 -361q31 -51 52 -72.5 t50 -21.5q37 0 66.5 38t66.5 116l27 -13q-66 -156 -115 -223t-119 -67q-49 0 -76.5 24.5t-50 65.5t-51.5 92z" />
<glyph unicode="l" horiz-adv-x="528" d="M98 182l211 1211l-178 69v13l354 61h7l-228 -1292q-6 -38 -6 -63q0 -15 2 -25q6 -27 35 -27q35 0 76 38t78 116l26 -13q-59 -154 -127.5 -222t-140.5 -68q-73 0 -99 55q-17 34 -16 83q0 29 6 64z" />
<glyph unicode="m" horiz-adv-x="1583" d="M70 868v13l290 61h7v-215h8q72 80 123 127t100 67.5t115 20.5q76 0 125 -57.5t53 -157.5h10q72 80 123 127t99 67.5t116 20.5q91 0 143 -82q35 -55 35 -136q0 -39 -8 -85l-72 -395q-6 -38 -6 -63q0 -15 2 -25q6 -27 35 -27q35 0 76 38t78 116l26 -13 q-59 -154 -127.5 -222t-140.5 -68t-98 55q-17 34 -17 83q0 29 6 64l80 451q4 23 4 44q1 45 -17 84q-26 56 -108 56q-45 0 -89 -29.5t-85 -71.5t-73 -79l-115 -637h-156l113 633q4 23 4 44q1 45 -17 84q-26 56 -108 56q-45 0 -90 -30.5t-87 -72.5t-75 -81l-108 -633h-156 l141 797z" />
<glyph unicode="n" horiz-adv-x="1085" d="M70 868v13l290 61h7v-215h8q72 80 127 127t106 67.5t119 20.5q101 0 155 -82q37 -56 37 -139q0 -38 -8 -82l-71 -395q-6 -36 -6 -60q0 -17 3 -28q7 -27 33 -27q35 0 76 38t78 116l27 -13q-59 -154 -128 -222t-141 -68t-98 55q-16 34 -17 81q0 30 7 66l80 451q3 19 3 37 q-1 50 -21 91q-28 56 -118 56q-45 0 -93 -30.5t-93 -72.5t-80 -81l-108 -633h-156l141 797z" />
<glyph unicode="o" horiz-adv-x="1042" d="M102 377q0 96 35 195.5t100.5 183.5t155.5 135t199 51q178 0 263 -110.5t85 -286.5q0 -92 -34 -191.5t-98.5 -184.5t-154 -137t-202.5 -52q-178 0 -263.5 110.5t-85.5 286.5zM281 371q0 -152 40.5 -233t151.5 -81q88 0 153.5 69t100.5 182.5t35 248.5q0 152 -40 230.5 t-149 78.5q-86 0 -152.5 -62.5t-103 -173t-36.5 -259.5z" />
<glyph unicode="p" horiz-adv-x="1040" d="M-55 -438l112 57l209 1178l-160 71v13l291 61h6v-256h9q76 119 163 187.5t181 68.5q82 0 132 -71.5t50 -211.5q0 -127 -40 -247.5t-110.5 -219t-163 -155.5t-196.5 -57q-39 0 -76 7t-67 19l-64 -385l164 -59v-33h-440v33zM313 168q39 -53 77 -81t97 -28q88 0 155 76 t103.5 195t36.5 250q0 115 -25.5 171t-97.5 56q-49 0 -98 -33t-94 -84t-82 -106z" />
<glyph unicode="q" horiz-adv-x="968" d="M96 262q0 127 40 248t110.5 219t163 155.5t196.5 57.5q53 0 102.5 -13.5t86.5 -35.5l104 49h12l-239 -1319l143 -61v-33h-440v33l141 55l113 619h-6q-78 -119 -164 -187.5t-180 -68.5q-82 0 -132.5 70.5t-50.5 211.5zM252 342q0 -117 25.5 -172t97.5 -55q49 0 97 31.5 t93 82t80 105.5l76 422q-39 51 -77 78.5t-97 27.5q-88 0 -154.5 -75.5t-103.5 -194.5t-37 -250z" />
<glyph unicode="r" horiz-adv-x="706" d="M70 868v13l288 61h7v-252h8q66 121 111.5 173t81.5 65.5t65 13.5q37 0 67.5 -23.5t30.5 -54.5q0 -10 -6 -22l-51 -105h-13l-22 17q-16 12 -35.5 17t-38.5 5q-37 0 -66.5 -15.5t-65.5 -63.5t-91 -144l-96 -553h-156l141 797z" />
<glyph unicode="s" horiz-adv-x="722" d="M4 141q0 12 4 25.5t21 21.5l45 25h14l35 -59q31 -51 82 -77t102 -26q78 0 128 41t50 119q0 80 -52 123t-118 82q-78 47 -116.5 86t-53 80t-14.5 98q0 59 45 119.5t119 101.5t156 41q90 0 141 -27.5t80 -70.5q18 -29 18 -53q0 -14 -7 -28.5t-21 -23.5l-39 -20h-15l-45 63 q-29 41 -64.5 62.5t-88.5 21.5q-59 0 -101.5 -35.5t-42.5 -93.5q0 -66 40 -108.5t93 -73.5q74 -43 122 -82t72.5 -88t24.5 -125q0 -72 -43 -136.5t-117.5 -104t-168.5 -39.5q-104 0 -170 29.5t-94 74.5q-12 18 -16.5 30.5t-4.5 26.5z" />
<glyph unicode="t" horiz-adv-x="643" d="M96 831v13l174 78l176 225h13l-39 -225h256v-91h-273l-92 -520q-4 -27 -6 -48t-2 -38q0 -49 16.5 -69.5t42.5 -20.5q47 0 101.5 53.5t99.5 153.5l27 -12q-68 -195 -151 -272.5t-171 -77.5q-68 0 -102.5 43t-34.5 120q0 16 2 37t6 41l109 610h-152z" />
<glyph unicode="u" horiz-adv-x="1069" d="M94 868v13l328 61h8l-106 -627q-8 -51 -9 -73q0 -57 28 -97.5t91 -40.5q43 0 87 31t85 74t74 80l88 508l-141 71v13l311 61h8l-123 -698q-6 -36 -6 -60q0 -17 3 -28q7 -27 38 -27q35 0 76 38t78 116l26 -13q-59 -154 -127.5 -222t-140.5 -68t-98 55q-16 35 -16 84 q0 29 6 63l2 13h-7q-70 -78 -121 -125t-99 -68.5t-111 -21.5q-76 0 -124 59t-48 162q0 20 3 40.5t5 41.5l92 514z" />
<glyph unicode="v" horiz-adv-x="917" d="M47 868v13l303 61h6l156 -715h8l154 230q72 109 87 168t15 98q0 33 -16.5 52.5t-40.5 33.5l-27 16v9l33 61q16 29 27.5 38t33.5 9q33 0 60.5 -26.5t44 -63.5t16.5 -72q0 -49 -32.5 -120.5t-114.5 -192.5l-314 -467h-43l-182 807z" />
<glyph unicode="w" horiz-adv-x="1359" d="M47 868v13l303 61h6l125 -692h6l310 672h28l164 -697h8l123 232q59 113 79 170t20 96q0 33 -16.5 52.5t-41.5 33.5l-26 16v9l32 61q16 29 27.5 38t34.5 9q33 0 60.5 -26.5t44 -63.5t16.5 -72q0 -49 -38 -117.5t-110 -195.5l-270 -467h-43l-160 606l-305 -606h-43 l-160 807z" />
<glyph unicode="x" horiz-adv-x="917" d="M4 0q0 25 18.5 51.5t62.5 72.5t119 126t189 213l-137 342l-158 63v13l262 61h5l147 -373q76 100 120 161t66.5 94.5t32.5 55t21 42.5h118q0 -23 -15 -46.5t-53 -63.5t-103.5 -109.5t-166.5 -186.5l152 -381l154 -61v-13l-252 -61h-6l-166 410q-90 -119 -143.5 -189.5 t-80 -109.5t-39 -62.5t-22.5 -48.5h-125z" />
<glyph unicode="y" horiz-adv-x="915" d="M-68 -334l15 12h98q51 0 81 4.5t51.5 20.5t47 52t64.5 102l96 155l-176 791l-174 65v13l303 61h6l156 -727h8l147 242q68 111 88.5 169t20.5 97q0 33 -16.5 52.5t-40.5 33.5l-27 16v9l33 61q16 29 27.5 38t33.5 9q35 0 62.5 -25.5t43 -63.5t15.5 -73q0 -49 -36 -119.5 t-111 -193.5l-396 -629q-29 -47 -47 -77.5t-37.5 -61.5t-56.5 -74q-51 -59 -110.5 -88t-110.5 -29q-57 0 -58 60v98z" />
<glyph unicode="z" horiz-adv-x="821" d="M33 31l567 755h-330l-86 -143h-32l43 279h548l23 -39l-479 -645l303 -82l92 163h33l-64 -329l-375 100q-18 4 -33.5 7t-29.5 3q-33 0 -59.5 -16t-57.5 -51l-30 -35z" />
<glyph unicode="{" horiz-adv-x="512" d="M41 582l8 47h47q78 0 122 33.5t62.5 87t18.5 114.5q0 70 -15.5 141.5t-15.5 153.5q0 160 86 258.5t273 98.5h37l-9 -48h-53q-106 0 -155.5 -77.5t-49.5 -198.5q0 -74 12.5 -141.5t12.5 -132.5q0 -94 -44 -174t-169 -140q74 -35 102.5 -80t28.5 -112q0 -47 -25.5 -116 t-58.5 -145.5t-58.5 -149.5t-25.5 -128q0 -70 37 -101.5t106 -31.5h54l-9 -47h-36q-139 0 -203 57t-64 154q0 70 26 140.5t60.5 140t60 137t25.5 131.5q0 53 -30.5 91t-108.5 38h-49z" />
<glyph unicode="|" horiz-adv-x="512" d="M27 -512l360 2048h98l-362 -2048h-96z" />
<glyph unicode="}" horiz-adv-x="512" d="M-123 -307l8 47h54q106 0 155 78t49 198q0 74 -12 141.5t-12 133.5q0 94 44 174t169 139q-74 35 -102.5 80t-28.5 113q0 47 25.5 115.5t58 145.5t58.5 149.5t26 127.5q0 70 -37 101.5t-107 31.5h-53l8 48h37q139 0 202.5 -57.5t63.5 -153.5q0 -70 -25.5 -140.5 t-60.5 -140.5t-60.5 -137.5t-25.5 -130.5q0 -53 31 -91t109 -38h49l-8 -47h-48q-78 0 -121.5 -34t-62 -87t-18.5 -115q0 -70 15 -141.5t15 -153.5q0 -160 -86 -258t-272 -98h-37z" />
<glyph unicode="~" d="M49 412q20 137 92 213.5t172 76.5q76 0 125 -30.5t86 -69.5t77 -69.5t97 -30.5q74 0 111 60.5t51 139.5h94q-20 -137 -92 -213.5t-172 -76.5q-76 0 -125 30.5t-86 69.5t-77 69.5t-97 30.5q-74 0 -110.5 -60t-51.5 -140h-94z" />
<glyph unicode="&#xa2;" d="M176 543q0 106 42 213.5t115 199t164 146.5t187 55q14 0 27 -2l57 145h74l-64 -157q35 -14 60.5 -36t44.5 -50q12 -18 16 -30.5t4 -27.5q0 -14 -7 -29.5t-24 -23.5l-59 -35h-14l-41 60q-18 27 -31 41l-268 -666q33 -14 76 -14q76 0 139 40t139 148h4l33 -24 q-86 -152 -176 -226.5t-195 -74.5q-41 0 -78 8l-59 -150h-74l68 170q-160 72 -160 320zM340 623q0 -164 61 -236l269 668q-25 8 -58 8q-72 0 -134 -64.5t-100 -164.5t-38 -211z" />
<glyph unicode="&#xa3;" d="M53 0l10 66q174 129 245 224t71 197q0 37 -9.5 77t-21.5 81h-194l14 78h156q-16 49 -27.5 97t-11.5 95q0 84 35.5 166t98 147.5t145.5 104.5t175 39q109 0 172.5 -37t89.5 -80q23 -37 23 -61q0 -14 -9 -25.5t-26 -23.5l-74 -53h-14l-20 53q-23 59 -71 96t-126 37 q-115 0 -184.5 -66.5t-69.5 -175.5q0 -70 24.5 -151.5t49.5 -161.5h346l-16 -78h-310q6 -29 10.5 -55.5t4.5 -50.5q0 -100 -55.5 -192.5t-215.5 -196.5h482l92 198h69l-80 -348h-778z" />
<glyph unicode="&#xa5;" d="M172 489l14 78h267l39 230h-269l15 77h215l-215 410l-58 35l6 33h369l-6 -33l-127 -45v-4l192 -391l295 381l2 6l-114 53l6 33h338l-6 -33l-97 -39l-333 -406h215l-17 -77h-262l-39 -230h266l-14 -78h-264l-64 -374l152 -82l-6 -33h-479l6 33l178 82l63 374h-268z" />
<glyph unicode="&#xa8;" d="M246 1266q0 39 26.5 65.5t65.5 26.5t65.5 -26.5t26.5 -65.5t-26.5 -65.5t-65.5 -26.5t-65.5 26.5t-26.5 65.5zM594 1266q0 39 26.5 65.5t65.5 26.5t65.5 -26.5t26.5 -65.5t-26.5 -65.5t-65.5 -26.5t-65.5 26.5t-26.5 65.5z" />
<glyph unicode="&#xa9;" horiz-adv-x="1650" d="M135 588q0 154 55.5 295t159 251.5t245.5 174t314 63.5q176 0 313.5 -80t215.5 -217t78 -309q0 -156 -56.5 -297t-160 -252t-246 -174t-314.5 -63q-178 0 -314 79.5t-213 217t-77 311.5zM219 596q0 -158 66.5 -280.5t185 -194.5t272.5 -72q147 0 273.5 54.5t219.5 151.5 t144.5 225t51.5 278q0 156 -67 278.5t-185.5 194.5t-274.5 72q-147 0 -272 -54.5t-218 -151t-144.5 -225.5t-51.5 -276zM453 604q0 129 59 244t163.5 186.5t237.5 71.5q80 0 130.5 -17.5t97.5 -46.5l-35 -235h-53l-33 154q-35 29 -63.5 41t-67.5 12q-133 0 -217 -114 t-84 -300q0 -115 53 -178.5t141 -63.5q49 0 86 15.5t66 34.5l86 137h53l-51 -207q-59 -35 -116.5 -54.5t-131.5 -19.5q-156 0 -238.5 95.5t-82.5 244.5z" />
<glyph unicode="&#xab;" horiz-adv-x="856" d="M35 506l397 362h21l-242 -360l135 -365h-20zM404 506l397 362h21l-242 -360l135 -365h-20z" />
<glyph unicode="&#xad;" horiz-adv-x="716" d="M82 469l20 115h533l-21 -115h-532z" />
<glyph unicode="&#xae;" d="M115 872q0 133 62.5 247t174 183.5t256.5 69.5q113 0 200 -50t136 -137t49 -198q0 -135 -62.5 -248.5t-173 -182.5t-257.5 -69q-113 0 -200 50.5t-136 137.5t-49 197zM180 872q0 -90 41 -164.5t115 -118.5t170 -44q117 0 212 56t151.5 155.5t56.5 230.5q0 90 -41 165 t-115 119t-170 44q-117 0 -212 -56.5t-151.5 -155.5t-56.5 -231zM283 674l2 14l69 33l76 430l-57 33l2 12h219q76 0 117 -30.5t41 -86.5q0 -51 -37 -90t-101 -57l74 -217l47 -27l-2 -14h-131l-76 239h-51l-35 -192l56 -33l-2 -14h-211zM483 961h49q53 0 89 30.5t36 83.5 q0 39 -26.5 56.5t-69.5 17.5h-45z" />
<glyph unicode="&#xb4;" d="M324 1085l217 363h159q-6 -31 -24.5 -59.5t-63.5 -69.5l-268 -234h-20z" />
<glyph unicode="&#xb8;" d="M326 -430l4 22h6q27 -12 55.5 -20t69.5 -8q131 0 131 98q0 51 -40 82t-136 61l149 236h62l-99 -154q92 -35 131 -80t39 -116q0 -76 -56.5 -129.5t-156.5 -53.5q-51 0 -94 16.5t-65 45.5z" />
<glyph unicode="&#xbb;" horiz-adv-x="856" d="M35 143l241 361l-135 364h21l291 -362l-398 -363h-20zM404 143l241 361l-135 364h21l291 -362l-398 -363h-20z" />
<glyph unicode="&#x2c6;" d="M225 1085l324 363h57l193 -363h-21l-225 209l-307 -209h-21z" />
<glyph unicode="&#x2da;" d="M344 1235q0 80 53.5 140.5t143.5 60.5q70 0 103.5 -39t33.5 -101q0 -78 -53.5 -139t-143.5 -61q-72 0 -104.5 39t-32.5 100zM424 1241q0 -100 68 -100q51 0 77.5 45t26.5 108q0 49 -14.5 74t-51.5 25q-47 0 -76.5 -41t-29.5 -111z" />
<glyph unicode="&#x2dc;" d="M193 1139q55 115 93 169t68.5 69.5t67.5 15.5t64.5 -20.5t51 -48.5t49 -48.5t58.5 -20.5q35 0 66.5 22.5t85.5 115.5h32q-55 -115 -93 -169.5t-69.5 -69.5t-66.5 -15q-37 0 -64.5 20.5t-51 48t-49 48t-58.5 20.5q-35 0 -66.5 -22.5t-85.5 -114.5h-32z" />
<glyph unicode="&#x401;" horiz-adv-x="1271" d="M20 0l7 33l170 82l196 1122l-141 82l6 33h942l-63 -353h-33l-76 250h-457l-88 -499h330l127 174h33l-80 -449h-33l-63 172h-332l-96 -545h546l164 271h33l-65 -373h-1027zM580 1610q0 39 26.5 65.5t65.5 26.5t65.5 -26.5t26.5 -65.5t-26.5 -65.5t-65.5 -26.5t-65.5 26.5 t-26.5 65.5zM928 1610q0 39 26.5 65.5t65.5 26.5t65.5 -26.5t26.5 -65.5t-26.5 -65.5t-65.5 -26.5t-65.5 26.5t-26.5 65.5z" />
<glyph unicode="&#x402;" horiz-adv-x="1619" d="M154 938l71 414h1137l-74 -414h-33l-77 311h-332l-103 -575q68 45 162 75.5t193 30.5q186 0 275 -107.5t52 -320.5q-16 -102 -52 -207.5t-86 -197.5t-111 -150q-72 -66 -115 -98.5t-76 -42.5t-74 -10q-27 0 -44 12t-13 45q2 4 7 20.5t34 90.5h12q35 -10 53.5 -14.5 t47.5 -4.5q45 0 80.5 20.5t65.5 86t52 202.5l35 205q33 186 -23.5 262t-209.5 76q-76 0 -148 -16.5t-135 -52.5l-82 -463l180 -82l-6 -33h-565l8 33l207 82l203 1134h-297l-187 -311h-32z" />
<glyph unicode="&#x403;" horiz-adv-x="1214" d="M20 0l7 33l170 82l196 1122l-141 82l6 33h911l-61 -353h-33l-78 250h-426l-200 -1134l182 -82l-6 -33h-527zM672 1454l217 311h159q-6 -31 -22 -62.5t-66 -66.5l-268 -182h-20z" />
<glyph unicode="&#x404;" horiz-adv-x="1370" d="M123 530q0 174 63.5 328t173 268.5t252 180t299.5 65.5q117 0 198 -22.5t179 -75.5l-53 -359h-33l-82 254q-51 53 -103 81t-130 28q-158 0 -274.5 -70.5t-188.5 -191.5t-98 -271h481l133 170h33l-78 -438h-33l-74 166h-473q-2 -29 -2 -57q0 -242 112 -377t286 -135 q88 0 163.5 34.5t135.5 73.5l164 224h32l-78 -326q-63 -31 -129.5 -53.5t-148.5 -34.5t-195 -12q-170 0 -288.5 70.5t-181 194.5t-62.5 285z" />
<glyph unicode="&#x405;" horiz-adv-x="1001" d="M0 74l39 336h33l80 -240q55 -55 111 -79.5t116 -24.5q145 0 219 85t74 220q0 84 -54.5 143t-195.5 137q-115 66 -168 139.5t-53 174.5q0 117 63.5 209t162.5 145t208 53q90 0 161.5 -22.5t143.5 -63.5l-37 -328h-33l-75 238q-35 33 -81 59.5t-118 26.5q-63 0 -117.5 -34 t-88.5 -96t-34 -144q0 -74 46.5 -128.5t154.5 -115.5q106 -59 167.5 -111.5t89.5 -111t28 -133.5q0 -127 -67.5 -223.5t-177.5 -150.5t-235 -54q-121 0 -200.5 23.5t-161.5 70.5z" />
<glyph unicode="&#x406;" horiz-adv-x="747" d="M20 0l7 33l155 82l199 1122l-148 82l7 33h487l-6 -33l-166 -82l-199 -1122l158 -82l-6 -33h-488z" />
<glyph unicode="&#x407;" horiz-adv-x="747" d="M20 0l7 33l155 82l199 1122l-148 82l7 33h487l-6 -33l-166 -82l-199 -1122l158 -82l-6 -33h-488zM266 1610q0 39 26.5 65.5t65.5 26.5t65.5 -26.5t26.5 -65.5t-26.5 -65.5t-65.5 -26.5t-65.5 26.5t-26.5 65.5zM614 1610q0 39 26.5 65.5t65.5 26.5t65.5 -26.5t26.5 -65.5 t-26.5 -65.5t-65.5 -26.5t-65.5 26.5t-26.5 65.5z" />
<glyph unicode="&#x408;" horiz-adv-x="768" d="M-117 -266l27 80h12q31 -10 49.5 -14.5t44.5 -4.5q41 0 76 20.5t63.5 86t51.5 202.5l201 1133l-142 82l6 33h486l-6 -33l-168 -82l-133 -745q-41 -229 -108 -412.5t-169 -282.5q-68 -63 -106.5 -96t-69.5 -44t-68 -11q-29 0 -46 19.5t-1 68.5z" />
<glyph unicode="&#x409;" horiz-adv-x="1990" d="M-18 39l20 113l8 8h21q113 0 197.5 127t148 348t110.5 504l17 98l-150 82l6 33h1072l-7 -33l-186 -82l-78 -442h209q242 0 365 -98.5t123 -270.5q0 -186 -155 -306t-474 -120h-524l6 33l155 82l201 1134h-446l-19 -110q-59 -340 -124.5 -568.5t-158.5 -384.5 q-78 -125 -149.5 -165.5t-128.5 -40.5q-45 0 -55.5 12t-3.5 47zM1038 102h209q213 0 319.5 87t106.5 235q0 268 -340 268h-190z" />
<glyph unicode="&#x40a;" horiz-adv-x="2123" d="M20 0l7 33l155 82l199 1122l-148 82l7 33h487l-6 -33l-166 -82l-84 -469h643l84 469l-147 82l6 33h508l-6 -33l-187 -82l-84 -469h215q242 0 365 -93t123 -255q0 -182 -155 -301t-474 -119h-524l6 33l155 82l99 551h-643l-99 -551l158 -82l-6 -33h-488zM1171 102h209 q213 0 319.5 86t106.5 230q0 248 -340 248h-194z" />
<glyph unicode="&#x40b;" horiz-adv-x="1732" d="M154 938l71 414h1137l-74 -414h-33l-77 311h-332l-103 -575q68 45 162 75.5t193 30.5q170 0 259 -97t52 -310l-45 -258l149 -82l-6 -33h-340l62 354q29 158 -23.5 225.5t-197.5 67.5q-76 0 -148 -16.5t-135 -52.5l-82 -463l180 -82l-6 -33h-565l8 33l207 82l203 1134 h-297l-187 -311h-32z" />
<glyph unicode="&#x40c;" horiz-adv-x="1433" d="M20 0l7 33l170 82l196 1122l-141 82l6 33h487l-8 -33l-168 -82l-198 -1122l143 -82l-8 -33h-486zM475 692l637 557l-127 70l6 33h410l-8 -33l-125 -49l-617 -537l479 -627l125 -73l-6 -33h-266zM871 1454l217 311h159q-6 -31 -22 -62.5t-66 -66.5l-268 -182h-20z" />
<glyph unicode="&#x40e;" horiz-adv-x="1419" d="M164 1319l6 33h496l-7 -33l-188 -76l-2 -10l227 -744h21l493 752v8l-155 70l6 33h430l-6 -33l-121 -59l-567 -846q-113 -168 -191 -262.5t-144.5 -133t-142.5 -38.5q-45 0 -55 12t-4 47l21 113l8 8h20q96 0 159.5 38t115.5 109l-289 938zM587 1765h177q-18 -109 7 -183.5 t120 -74.5q94 0 146 75t71 183h176q-23 -129 -126.5 -220t-275.5 -91t-245 91t-50 220z" />
<glyph unicode="&#x40f;" horiz-adv-x="1564" d="M20 0l7 33l166 82l198 1122l-158 82l7 33h487l-6 -33l-156 -82l-200 -1135h643l200 1135l-157 82l6 33h487l-6 -33l-156 -82l-198 -1122l147 -82l-6 -33h-543l-157 -342h-33l-39 342h-533z" />
<glyph unicode="&#x410;" horiz-adv-x="1464" d="M-31 0l8 33l121 63l723 1266h88l269 -1256l122 -73l-8 -33h-485l6 33l186 71l-75 383h-486l-219 -389l166 -65l-6 -33h-410zM496 590h407l-106 536z" />
<glyph unicode="&#x411;" horiz-adv-x="1302" d="M20 0l7 33l155 82l199 1122l-148 82l7 33h950l-62 -353h-32l-78 250h-461l-84 -475h213q236 0 357.5 -95t121.5 -263q0 -182 -152.5 -299t-467.5 -117h-525zM354 102h209q209 0 313.5 84t104.5 228q0 258 -332 258h-194z" />
<glyph unicode="&#x412;" horiz-adv-x="1282" d="M20 0l7 33l170 82l196 1122l-141 82l6 33h442q205 0 327 -72t122 -215q0 -109 -81 -207t-230 -135q160 -27 240.5 -107.5t80.5 -205.5q0 -98 -65.5 -192.5t-196.5 -156t-326 -61.5h-551zM369 102h221q190 0 283.5 84t93.5 224q0 123 -78 179t-246 56h-180zM481 748h131 q174 0 260 80.5t86 201.5q0 109 -61.5 164t-202.5 55h-125z" />
<glyph unicode="&#x413;" horiz-adv-x="1214" d="M20 0l7 33l170 82l196 1122l-141 82l6 33h911l-61 -353h-33l-78 250h-426l-200 -1134l182 -82l-6 -33h-527z" />
<glyph unicode="&#x414;" horiz-adv-x="1554" d="M-72 -342l78 444h150q84 145 143 299t105.5 334t87.5 404l18 98l-150 82l7 33h1126l-6 -33l-166 -82l-201 -1135h205l-78 -444h-33l-96 342h-934l-223 -342h-33zM291 102h655l203 1147h-518l-21 -110q-41 -225 -85 -405.5t-100 -334t-134 -297.5z" />
<glyph unicode="&#x415;" horiz-adv-x="1271" d="M20 0l7 33l170 82l196 1122l-141 82l6 33h942l-63 -353h-33l-76 250h-457l-88 -499h330l127 174h33l-80 -449h-33l-63 172h-332l-96 -545h546l164 271h33l-65 -373h-1027z" />
<glyph unicode="&#x416;" horiz-adv-x="2058" d="M-43 0l6 33l156 73l676 635l-402 529l-108 49l4 33h409l-6 -33l-151 -70l420 -557l-730 -692h-274zM688 0l4 33l172 82l195 1122l-139 82l4 33h487l-6 -33l-170 -82l-197 -1122l142 -82l-6 -33h-486zM1141 692l616 557l-127 70l6 33h410l-8 -33l-125 -47l-600 -543 l446 -623l125 -73l-6 -33h-250z" />
<glyph unicode="&#x417;" horiz-adv-x="1273" d="M102 80l35 326h35l98 -250q41 -33 102.5 -58.5t172.5 -25.5q125 0 208 47t125 119.5t42 148.5q0 121 -77 189.5t-235 68.5h-162l21 103h156q111 0 185.5 48t113.5 121.5t39 147.5q0 86 -52 150.5t-161 64.5q-74 0 -133.5 -19.5t-127.5 -68.5l-182 -270h-37l74 358 q90 39 185.5 65.5t246.5 26.5q127 0 211 -42t125 -110.5t41 -148.5q0 -76 -37 -149.5t-110.5 -131t-184.5 -83.5q154 -27 224.5 -105t70.5 -188q0 -104 -69.5 -203.5t-196.5 -165t-301 -65.5q-115 0 -195 13t-138 35.5t-112 51.5z" />
<glyph unicode="&#x418;" horiz-adv-x="1605" d="M20 0l7 33l155 82l199 1122l-148 82l7 33h487l-6 -33l-166 -82l-158 -893l824 793l18 100l-147 82l6 33h487l-6 -33l-166 -82l-199 -1122l158 -82l-6 -33h-487l6 33l155 82l152 860l-823 -789l-13 -71l158 -82l-6 -33h-488z" />
<glyph unicode="&#x419;" horiz-adv-x="1605" d="M20 0l7 33l155 82l199 1122l-148 82l7 33h487l-6 -33l-166 -82l-158 -893l824 793l18 100l-147 82l6 33h487l-6 -33l-166 -82l-199 -1122l158 -82l-6 -33h-487l6 33l155 82l152 860l-823 -789l-13 -71l158 -82l-6 -33h-488zM630 1765h177q-18 -109 7 -183.5t120 -74.5 q94 0 146 75t71 183h176q-23 -129 -126.5 -220t-275.5 -91t-245 91t-50 220z" />
<glyph unicode="&#x41a;" horiz-adv-x="1433" d="M20 0l7 33l170 82l196 1122l-141 82l6 33h487l-8 -33l-168 -82l-198 -1122l143 -82l-8 -33h-486zM475 692l637 557l-127 70l6 33h410l-8 -33l-125 -49l-617 -537l479 -627l125 -73l-6 -33h-266z" />
<glyph unicode="&#x41b;" horiz-adv-x="1478" d="M-18 39l20 113l8 8h21q113 0 197.5 127t148 348t110.5 504l17 98l-150 82l6 33h1098l-6 -33l-166 -82l-199 -1122l158 -82l-6 -33h-487l6 33l155 82l201 1134h-493l-19 -110q-59 -340 -124.5 -568.5t-158.5 -384.5q-78 -125 -149.5 -165.5t-128.5 -40.5q-45 0 -55.5 12 t-3.5 47z" />
<glyph unicode="&#x41c;" horiz-adv-x="1888" d="M20 0l7 33l168 82l241 1120l-170 84l8 33h365l270 -1104l615 1104h344l-8 -33l-172 -80l-132 -1124l123 -82l-6 -33h-452l6 33l157 80l123 1001l-628 -1124h-86l-271 1124l-207 -1001l144 -80l-6 -33h-433z" />
<glyph unicode="&#x41d;" horiz-adv-x="1585" d="M20 0l7 33l155 82l199 1122l-148 82l7 33h487l-6 -33l-166 -82l-86 -489h664l86 489l-148 82l6 33h488l-6 -33l-166 -82l-199 -1122l158 -82l-6 -33h-488l6 33l156 82l94 530h-663l-95 -530l158 -82l-6 -33h-488z" />
<glyph unicode="&#x41e;" horiz-adv-x="1568" d="M123 578q0 154 57.5 297t160.5 255.5t242.5 178t303.5 65.5q170 0 295 -75.5t194.5 -212t69.5 -312.5q0 -152 -56.5 -293t-159 -254.5t-242.5 -180t-308 -66.5t-293 75.5t-194.5 210.5t-69.5 312zM309 598q0 -154 55.5 -271.5t152.5 -183t228 -65.5q115 0 209.5 53 t163 148.5t106.5 217t38 261.5q0 156 -54.5 272.5t-152 183t-224.5 66.5q-152 0 -270.5 -91t-185 -246t-66.5 -345z" />
<glyph unicode="&#x41f;" horiz-adv-x="1564" d="M20 0l7 33l155 82l199 1122l-148 82l7 33h1304l-6 -33l-166 -82l-198 -1122l157 -82l-6 -33h-487l6 33l155 82l201 1134h-643l-201 -1134l158 -82l-6 -33h-488z" />
<glyph unicode="&#x420;" horiz-adv-x="1271" d="M20 0l7 33l170 82l196 1122l-141 82l6 33h449q227 0 365 -80t138 -254q0 -109 -70.5 -204t-203.5 -154.5t-315 -59.5h-164l-86 -485l161 -82l-6 -33h-506zM475 702h193q178 0 264 85t86 217q0 129 -84 187t-238 58h-125z" />
<glyph unicode="&#x421;" horiz-adv-x="1370" d="M123 530q0 174 63.5 328t173 268.5t252 180t299.5 65.5q117 0 198 -22.5t179 -75.5l-53 -359h-33l-82 254q-51 53 -103 81t-130 28q-139 0 -245.5 -55.5t-179.5 -152.5t-111 -221t-38 -263q0 -242 112 -377t286 -135q88 0 163.5 34.5t135.5 73.5l164 224h32l-78 -326 q-63 -31 -129.5 -53.5t-148.5 -34.5t-195 -12q-170 0 -288.5 70.5t-181 194.5t-62.5 285z" />
<glyph unicode="&#x422;" horiz-adv-x="1320" d="M154 938l71 414h1137l-74 -414h-33l-77 311h-312l-202 -1134l180 -82l-6 -33h-566l9 33l206 82l203 1134h-317l-187 -311h-32z" />
<glyph unicode="&#x423;" horiz-adv-x="1419" d="M164 1319l6 33h496l-7 -33l-188 -76l-2 -10l227 -744h21l493 752v8l-155 70l6 33h430l-6 -33l-121 -59l-567 -846q-113 -168 -191 -262.5t-144.5 -133t-142.5 -38.5q-45 0 -55 12t-4 47l21 113l8 8h20q96 0 159.5 38t115.5 109l-289 938z" />
<glyph unicode="&#x424;" horiz-adv-x="1714" d="M72 612q0 152 94 280t270 209t418 87l16 90l-147 82l6 33h488l-7 -33l-166 -82l-16 -90q301 -6 452.5 -124t151.5 -325q0 -152 -94 -279.5t-270 -208.5t-418 -87l-16 -90l157 -82l-6 -33h-487l6 33l155 82l17 90q-301 6 -452.5 124t-151.5 324zM256 633 q0 -174 112.5 -273.5t321.5 -109.5l150 850q-199 0 -329 -64.5t-192.5 -170t-62.5 -232.5zM864 252q199 0 329 64.5t192.5 170t62.5 232.5q0 174 -112.5 273.5t-321.5 109.5z" />
<glyph unicode="&#x425;" horiz-adv-x="1437" d="M-51 0l8 33l149 71l537 584l-307 563l-111 68l6 33h486l-6 -33l-191 -68l-2 -10l256 -459l410 459v8l-142 70l7 33h419l-6 -33l-125 -66l-514 -559l328 -585l123 -76l-6 -33h-496l6 33l178 69l2 9l-266 487l-438 -487v-9l154 -69l-7 -33h-452z" />
<glyph unicode="&#x426;" horiz-adv-x="1605" d="M20 0l7 33l166 82l198 1122l-158 82l7 33h487l-6 -33l-156 -82l-200 -1135h643l200 1135l-157 82l6 33h487l-6 -33l-156 -82l-200 -1135h204l-77 -444h-33l-80 342h-1176z" />
<glyph unicode="&#x427;" horiz-adv-x="1476" d="M154 1319l6 33h487l-6 -33l-166 -82l-39 -215q-35 -193 27.5 -270.5t234.5 -77.5q92 0 168 11t154 38l90 514l-147 82l6 33h487l-6 -33l-166 -82l-199 -1122l158 -82l-6 -33h-487l6 33l155 82l90 510q-72 -25 -149.5 -40.5t-163.5 -15.5q-160 0 -266.5 42t-149.5 141.5 t-10 271.5l39 213z" />
<glyph unicode="&#x428;" horiz-adv-x="2148" d="M20 0l7 33l166 82l198 1122l-158 82l7 33h487l-6 -33l-156 -82l-200 -1135h526l201 1135l-158 82l6 33h487l-6 -33l-155 -82l-201 -1135h526l201 1135l-158 82l6 33h488l-6 -33l-156 -82l-199 -1122l148 -82l-6 -33h-1889z" />
<glyph unicode="&#x429;" horiz-adv-x="2189" d="M20 0l7 33l166 82l198 1122l-158 82l7 33h487l-6 -33l-156 -82l-200 -1135h526l201 1135l-158 82l6 33h487l-6 -33l-155 -82l-201 -1135h526l201 1135l-158 82l6 33h488l-6 -33l-156 -82l-201 -1135h205l-78 -444h-32l-80 342h-1760z" />
<glyph unicode="&#x42a;" horiz-adv-x="1499" d="M133 938l72 414h735l-6 -33l-186 -82l-78 -442h209q242 0 364.5 -98.5t122.5 -270.5q0 -186 -154.5 -306t-474.5 -120h-524l6 33l156 82l200 1134h-219l-190 -311h-33zM547 102h209q213 0 319.5 87t106.5 235q0 268 -340 268h-191z" />
<glyph unicode="&#x42b;" horiz-adv-x="2054" d="M20 0l7 33l155 82l199 1122l-148 82l7 33h508l-7 -33l-186 -82l-78 -442h209q242 0 365 -98.5t123 -270.5q0 -186 -155 -306t-474 -120h-525zM354 102h209q213 0 319.5 87t106.5 235q0 268 -340 268h-190zM1327 0l7 33l155 82l199 1122l-148 82l7 33h487l-6 -33l-166 -82 l-199 -1122l158 -82l-6 -33h-488z" />
<glyph unicode="&#x42c;" horiz-adv-x="1306" d="M20 0l7 33l155 82l199 1122l-148 82l7 33h508l-7 -33l-186 -82l-78 -442h209q242 0 365 -98.5t123 -270.5q0 -186 -155 -306t-474 -120h-525zM354 102h209q213 0 319.5 87t106.5 235q0 268 -340 268h-190z" />
<glyph unicode="&#x42d;" horiz-adv-x="1394" d="M102 78l54 358h32l82 -254q51 -53 105.5 -80.5t148.5 -27.5q158 0 273.5 74.5t186.5 204.5t91 292h-467l-133 -170h-33l78 438h33l74 -165h454v18q0 242 -108.5 377t-278.5 135q-84 0 -152.5 -34t-125.5 -75l-164 -223h-33l78 326q94 45 191.5 72.5t248.5 27.5 q172 0 292 -70.5t181.5 -194.5t61.5 -286q0 -186 -62.5 -339.5t-170 -266.5t-245 -174t-288.5 -61q-92 0 -157.5 9t-123 30.5t-123.5 58.5z" />
<glyph unicode="&#x42e;" horiz-adv-x="2101" d="M20 0l7 33l155 82l199 1122l-148 82l7 33h487l-6 -33l-166 -82l-86 -489h246q27 129 91 241.5t160.5 199.5t216.5 136t257 49q162 0 283.5 -75.5t188 -212t66.5 -312.5q0 -152 -54 -293t-154.5 -254.5t-236.5 -180t-300 -66.5q-162 0 -283 75.5t-187.5 210.5t-66.5 312 q0 35 2 67h-247l-95 -530l158 -82l-6 -33h-488zM883 598q0 -154 52 -271.5t146 -183t217 -65.5q109 0 200 53t157.5 148.5t102.5 217t36 261.5q0 156 -51 272.5t-143.5 183t-215.5 66.5q-147 0 -259.5 -91t-177 -246t-64.5 -345z" />
<glyph unicode="&#x42f;" horiz-adv-x="1398" d="M-47 0l6 33l147 73l455 502q-139 35 -206.5 121t-67.5 207q0 182 154.5 299t473.5 117h463l-6 -33l-155 -82l-199 -1122l147 -82l-6 -33h-508l6 33l187 82l82 465h-193l-495 -580h-285zM471 938q0 -256 340 -256h133l100 567h-147q-213 0 -319.5 -84t-106.5 -227z" />
<glyph unicode="&#x430;" horiz-adv-x="1038" d="M96 262q0 127 40 248t110.5 219t163 155.5t196.5 57.5q51 0 98.5 -12t83.5 -33l72 45h51l-125 -698q-10 -61 -2.5 -88t33.5 -27q35 0 76 38t78 116l26 -13q-59 -154 -127.5 -222t-140.5 -68t-98.5 55t-9.5 147l10 54h-8q-78 -119 -164 -187.5t-180 -68.5 q-82 0 -132.5 70.5t-50.5 211.5zM252 342q0 -115 25.5 -171t97.5 -56q49 0 98 32.5t94 84t80 104.5l76 422q-39 51 -79 77.5t-97 26.5q-88 0 -154.5 -75.5t-103.5 -194.5t-37 -250z" />
<glyph unicode="&#x431;" horiz-adv-x="1042" d="M104 371q0 166 48.5 327.5t146.5 301t246.5 241.5t349.5 152q68 16 99.5 30.5t44 36t18.5 56.5h33l6 -9l-2 -20q-8 -80 -34 -135.5t-86.5 -86t-168.5 -38.5q-106 -8 -165.5 -27.5t-119.5 -62.5q-70 -49 -118 -150.5t-76 -224.5q53 61 127.5 100t183.5 39q131 0 218 -92 t87 -258q0 -106 -37 -208.5t-103.5 -184.5t-157.5 -130t-200 -48q-170 0 -255 110.5t-85 280.5zM281 348q0 -147 49 -219t137 -72q90 0 156.5 64.5t103.5 175.5t37 248q0 115 -45 192.5t-158 77.5q-70 0 -138.5 -41t-119.5 -123q-10 -76 -16 -152.5t-6 -150.5z" />
<glyph unicode="&#x432;" horiz-adv-x="952" d="M102 303q0 121 40 234.5t113 205t168 145.5t206 54q106 0 158.5 -48t52.5 -118q0 -98 -73 -165.5t-206 -110.5q119 2 180.5 -53.5t61.5 -141.5q0 -94 -56.5 -168t-145.5 -115.5t-185 -41.5q-139 0 -226.5 71.5t-87.5 251.5zM258 303q0 -104 37 -175t131 -71 q96 0 157.5 70t61.5 164q0 70 -39 115t-125 45q-33 0 -69 -7l-150 -26q-4 -55 -4 -115zM272 496l140 24q160 29 217 90.5t57 145.5q0 114 -113 114q-115 0 -194.5 -97t-106.5 -277z" />
<glyph unicode="&#x433;" horiz-adv-x="911" d="M92 193q0 82 46 138t116 96t143 75q61 31 117.5 62.5t91.5 71.5t35 95q0 66 -38 98.5t-105 32.5q-51 0 -99.5 -24.5t-93.5 -79.5l-88 -109h-29l39 223q72 33 144.5 51.5t167.5 18.5q113 0 189.5 -52t76.5 -159q0 -90 -52.5 -148.5t-130 -99.5t-155.5 -80 q-84 -43 -147.5 -92t-63.5 -125q0 -57 38 -95t114 -38q150 0 237 113l84 113h29l-39 -230q-82 -39 -156 -54t-174 -15q-74 0 -141.5 20t-111.5 67.5t-44 125.5z" />
<glyph unicode="&#x434;" horiz-adv-x="1062" d="M106 352q0 168 69 301t183.5 211t253.5 78q47 0 87 -8t75 -23q-8 139 -38.5 256t-86 188.5t-135.5 71.5q-31 0 -71 -16t-68 -49l-47 39q45 49 93 76.5t111 27.5q94 0 169 -56t128.5 -153.5t82 -222.5t28.5 -260q0 -162 -30.5 -311.5t-95 -267t-164 -186t-236.5 -68.5 q-96 0 -165 49t-106 133t-37 190zM279 367q0 -84 15 -155t49 -113t93 -42q80 0 142.5 62.5t105.5 168t65.5 234.5t26.5 262q-80 80 -198 80q-86 0 -154 -66.5t-106.5 -180t-38.5 -250.5z" />
<glyph unicode="&#x435;" horiz-adv-x="907" d="M102 303q0 121 40 234.5t111 205t164 145.5t201 54q102 0 154.5 -47t52.5 -111q0 -70 -49 -128t-171 -106t-343 -85q-4 -41 -4 -86q0 -125 53.5 -199t167.5 -74q68 0 133.5 37t135.5 121h4l20 -16q-70 -121 -167 -194.5t-197 -73.5q-158 0 -232 87t-74 236zM272 539 q154 27 240 57.5t121 72.5t35 105q0 41 -27 68.5t-78 27.5q-111 0 -187.5 -91t-103.5 -240z" />
<glyph unicode="&#x436;" horiz-adv-x="1724" d="M42 145.5q5 26.5 42 47.5l55 32h15l30 -59q23 -43 40.5 -69.5t51.5 -26.5q43 0 80 70.5t59.5 182t22.5 232.5q0 125 -26.5 192.5t-83.5 67.5q-45 0 -89 -39t-114 -158h-4l-21 17q68 147 135.5 227t155.5 80q98 0 149.5 -79t51.5 -228q0 -55 -8 -115l213 10l69 392h156 l-68 -381l224 12q35 104 91 193.5t125.5 142.5t143.5 53q45 0 78 -30.5t53 -71.5q18 -37 13 -63.5t-42 -47.5l-55 -33h-14l-31 60q-23 43 -40 69.5t-52 26.5q-43 0 -80 -70.5t-59.5 -182.5t-22.5 -232q0 -125 26.5 -193t84.5 -68q45 0 89 39t113 158h5l20 -16 q-68 -147 -135.5 -227t-155.5 -80q-98 0 -149 78.5t-51 228.5q0 86 20 176l-215 -10l-80 -453h-156l78 444l-215 -12q-31 -119 -89 -222.5t-134 -166.5t-156 -63q-45 0 -77.5 30.5t-53.5 71.5q-18 37 -13 63.5z" />
<glyph unicode="&#x437;" horiz-adv-x="882" d="M82 137q0 14 7 28.5t24 24.5l57 35h14l43 -59q39 -53 74 -81t94 -28q84 0 134.5 62.5t50.5 146.5q0 66 -46.5 119t-158.5 53h-76l10 68h70q76 0 129 30.5t81.5 76.5t28.5 96q0 61 -37.5 98t-107.5 37q-76 0 -141.5 -39t-134.5 -131h-4l-21 16q133 252 367 252 q113 0 172 -56.5t59 -154.5q0 -80 -66.5 -154.5t-195.5 -99.5q119 -18 173 -76.5t54 -130.5q0 -70 -45 -136t-125.5 -110t-193.5 -44q-121 0 -179.5 27.5t-87.5 72.5q-14 20 -18 31.5t-4 25.5z" />
<glyph unicode="&#x438;" horiz-adv-x="1069" d="M94 868v13l328 61h8l-106 -627q-8 -51 -9 -73q0 -57 28 -97.5t91 -40.5q43 0 87 31t85 74t74 80l88 508l-141 71v13l311 61h8l-123 -698q-10 -61 -3 -88t38 -27q35 0 76 38t78 116l26 -13q-59 -154 -127.5 -222t-140.5 -68t-97.5 55t-10.5 147l2 13h-7q-70 -78 -121 -125 t-99 -68.5t-111 -21.5q-76 0 -124 59t-48 162q0 20 3 40.5t5 41.5l92 514z" />
<glyph unicode="&#x439;" horiz-adv-x="1069" d="M94 868v13l328 61h8l-106 -627q-8 -51 -9 -73q0 -57 28 -97.5t91 -40.5q43 0 87 31t85 74t74 80l88 508l-141 71v13l311 61h8l-123 -698q-10 -61 -3 -88t38 -27q35 0 76 38t78 116l26 -13q-59 -154 -127.5 -222t-140.5 -68t-97.5 55t-10.5 147l2 13h-7q-70 -78 -121 -125 t-99 -68.5t-111 -21.5q-76 0 -124 59t-48 162q0 20 3 40.5t5 41.5l92 514zM330 1464h166q-14 -129 13.5 -209t99.5 -80q80 0 123.5 80t58.5 209h166q-16 -150 -108.5 -246t-246.5 -96q-150 0 -219 96t-53 246z" />
<glyph unicode="&#x43a;" horiz-adv-x="974" d="M70 868v13l329 61h7l-162 -942h-156l141 797zM340 471v10q152 178 244 278.5t149.5 141.5t102.5 41q25 0 42 -5t27 -13q14 -10 21.5 -25.5t-0.5 -34.5l-35 -86l-10 -8l-37 14q-10 4 -23.5 6.5t-42.5 2.5q-37 0 -65.5 -17.5t-61.5 -50.5l-176 -182l207 -320 q35 -51 55.5 -72.5t46.5 -21.5q37 0 67 38t67 116l26 -13q-63 -156 -108.5 -223t-106.5 -67q-66 0 -101.5 53t-84.5 129z" />
<glyph unicode="&#x43b;" horiz-adv-x="1003" d="M-18 39l16 92l10 8h31q86 0 141.5 75t93 217t72.5 343l8 49l-129 66l6 33h646l-119 -678q-10 -61 -3 -88t38 -27q35 0 75.5 38t77.5 116l27 -13q-59 -154 -127.5 -222t-140.5 -68t-97.5 55t-11.5 147l115 654h-262l-11 -62q-41 -229 -86 -395t-108 -264 q-84 -135 -207 -135q-43 0 -52.5 12t-2.5 47z" />
<glyph unicode="&#x43c;" horiz-adv-x="1380" d="M-18 39l16 92l10 8h31q86 0 141.5 75t93 217t72.5 343l8 49l-129 66l6 33h291l135 -674h11l434 674h151l-118 -678q-10 -61 -3 -88t37 -27q35 0 76 38t78 116l27 -13q-59 -154 -128 -222t-141 -68t-97.5 55t-10.5 147l94 537l-459 -719h-43l-143 713q-72 -379 -157 -556 t-228 -177q-43 0 -52.5 12t-2.5 47z" />
<glyph unicode="&#x43d;" horiz-adv-x="1067" d="M70 868v13l329 61h7l-74 -426l389 21l45 260l-141 71v13l311 61h8l-123 -698q-10 -61 -3 -88t38 -27q35 0 76 38t78 116l26 -13q-59 -154 -127.5 -222t-140.5 -68t-98.5 55t-10.5 147l48 267l-390 -21l-73 -428h-156l141 797z" />
<glyph unicode="&#x43e;" horiz-adv-x="1042" d="M102 377q0 96 35 195.5t100.5 183.5t155.5 135t199 51q178 0 263 -110.5t85 -286.5q0 -92 -34 -191.5t-98.5 -184.5t-154 -137t-202.5 -52q-178 0 -263.5 110.5t-85.5 286.5zM281 371q0 -152 40.5 -233t151.5 -81q88 0 153.5 69t100.5 182.5t35 248.5q0 152 -40 230.5 t-149 78.5q-86 0 -152.5 -62.5t-103 -173t-36.5 -259.5z" />
<glyph unicode="&#x43f;" horiz-adv-x="1085" d="M70 868v13l290 61h7v-215h8q72 80 127 127t106 67.5t119 20.5q100 0 154.5 -82t29.5 -221l-71 -395q-10 -61 -3 -88t33 -27q35 0 76 38t78 116l27 -13q-59 -154 -128 -222t-141 -68t-98.5 55t-9.5 147l80 451q10 72 -17.5 128t-118.5 56q-45 0 -93 -30.5t-93 -72.5 t-80 -81l-108 -633h-156l141 797z" />
<glyph unicode="&#x440;" horiz-adv-x="1040" d="M-55 -438l112 57l209 1178l-160 71v13l291 61h6v-256h9q76 119 163 187.5t181 68.5q82 0 132 -71.5t50 -211.5q0 -127 -40 -247.5t-110.5 -219t-163 -155.5t-196.5 -57q-39 0 -76 7t-67 19l-64 -385l164 -59v-33h-440v33zM313 168q39 -53 77 -81t97 -28q88 0 155 76 t103.5 195t36.5 250q0 115 -25.5 171t-97.5 56q-49 0 -98 -33t-94 -84t-82 -106z" />
<glyph unicode="&#x441;" horiz-adv-x="874" d="M102 328q0 106 42 213.5t115 198.5t164 146.5t187 55.5q76 0 123 -27.5t76 -72.5q12 -18 16 -30.5t4 -27.5q0 -14 -7 -28.5t-23 -24.5l-60 -35h-14l-41 60q-33 49 -66.5 72.5t-97.5 23.5q-68 0 -128 -65.5t-98 -167t-38 -211.5q0 -145 50 -223.5t163 -78.5q35 0 78 13.5 t94 55.5t113 128h4l20 -16q-88 -156 -178 -231.5t-194 -75.5q-147 0 -225.5 89t-78.5 259z" />
<glyph unicode="&#x442;" horiz-adv-x="1583" d="M70 868v13l290 61h7v-215h8q72 80 123 127t100 67.5t115 20.5q76 0 125 -57.5t53 -157.5h10q72 80 123 127t99 67.5t116 20.5q92 0 143.5 -82t26.5 -221l-72 -395q-10 -61 -4 -88t35 -27q35 0 76 38t78 116l26 -13q-59 -154 -127.5 -222t-140.5 -68t-98.5 55t-10.5 147 l80 451q12 72 -13.5 128t-107.5 56q-45 0 -89 -29.5t-85 -71.5t-73 -79l-115 -637h-156l113 633q12 72 -13.5 128t-107.5 56q-45 0 -90 -30.5t-87 -72.5t-75 -81l-108 -633h-156l141 797z" />
<glyph unicode="&#x443;" horiz-adv-x="915" d="M-68 -334l15 12h98q51 0 81 4.5t51.5 20.5t47 52t64.5 102l96 155l-176 791l-174 65v13l303 61h6l156 -727h8l147 242q68 111 88.5 169t20.5 97q0 33 -16.5 52.5t-40.5 33.5l-27 16v9l33 61q16 29 27.5 38t33.5 9q35 0 62.5 -25.5t43 -63.5t15.5 -73q0 -49 -36 -119.5 t-111 -193.5l-396 -629q-29 -47 -47 -77.5t-37.5 -61.5t-56.5 -74q-51 -59 -110.5 -88t-110.5 -29q-57 0 -58 60v98z" />
<glyph unicode="&#x444;" horiz-adv-x="1343" d="M102 395q0 141 73 264t203 200t302 83l78 447l-160 71v13l336 61h6l-104 -592q190 -10 297.5 -119.5t107.5 -296.5q0 -141 -72.5 -264t-202.5 -199.5t-300 -82.5l-62 -353l117 -65l-4 -33h-412l4 33l140 65l61 353q-190 10 -299 118.5t-109 296.5zM274 410 q0 -145 58.5 -244.5t191.5 -108.5l142 809q-129 -6 -216.5 -71.5t-131.5 -167.5t-44 -217zM680 55q129 6 215 73t130 168t44 216q0 145 -58.5 244.5t-189.5 107.5z" />
<glyph unicode="&#x445;" horiz-adv-x="917" d="M4 0q0 25 18.5 51.5t62.5 72.5t119 126t189 213l-137 342l-158 63v13l262 61h5l147 -373q76 100 120 161t66.5 94.5t32.5 55t21 42.5h118q0 -23 -15 -46.5t-53 -63.5t-103.5 -109.5t-166.5 -186.5l152 -381l154 -61v-13l-252 -61h-6l-166 410q-90 -119 -143.5 -189.5 t-80 -109.5t-39 -62.5t-22.5 -48.5h-125z" />
<glyph unicode="&#x446;" horiz-adv-x="1069" d="M94 868v13l328 61h8l-106 -627q-8 -51 -9 -73q0 -57 28 -97.5t91 -40.5q43 0 87 31t85 74t74 80l88 508l-141 71v13l311 61h8l-123 -698q-10 -61 -3 -88t38 -27q35 0 76 38t78 116l26 -13q-39 -90 -50 -183t-16 -180t-26.5 -155.5t-80 -108.5t-179.5 -40q-57 0 -57 59v84 l14 12h78q80 0 119 24.5t55 70t26.5 109t30.5 140.5q-43 -66 -89 -94t-93 -28q-72 0 -97.5 55t-10.5 147l2 13h-7q-70 -78 -121 -125t-99 -68.5t-111 -21.5q-76 0 -124 59t-48 162q0 20 3 40.5t5 41.5l92 514z" />
<glyph unicode="&#x447;" horiz-adv-x="1069" d="M94 868v13l328 61h8l-53 -307q-8 -51 -8 -74q0 -57 26.5 -97t83.5 -40q47 0 91 30.5t84 73.5t71 82l33 187l-142 71v13l312 61h8l-123 -698q-10 -61 -3 -88t38 -27q35 0 76 38t77 116l27 -13q-59 -154 -128 -222t-140 -68q-72 0 -98.5 55t-10.5 147l58 332h-9 q-80 -98 -153.5 -156.5t-167.5 -58.5q-76 0 -124 59.5t-48 161.5q0 20 2 41t6 41l39 195z" />
<glyph unicode="&#x448;" horiz-adv-x="1562" d="M94 868v13l328 61h8l-106 -627q-8 -51 -9 -73q0 -57 28 -97.5t91 -40.5q39 0 81 30t81 72t70 79l92 512l-140 71v13l308 61h8l-107 -627q-8 -51 -8 -73q0 -57 27.5 -97.5t91.5 -40.5q41 0 83 31t82 74t71 80l88 508l-142 71v13l312 61h8l-123 -698q-10 -61 -3 -88t38 -27 q35 0 75.5 38t77.5 116l27 -13q-59 -154 -128 -222t-140 -68q-72 0 -98.5 55t-10.5 147l2 13h-6q-66 -76 -116 -124t-98 -69.5t-108 -21.5q-76 0 -124 58t-48 157h-10q-66 -76 -116 -124t-98 -69.5t-107 -21.5q-76 0 -124 59t-48 162q0 20 3 40.5t5 41.5l92 514z" />
<glyph unicode="&#x449;" horiz-adv-x="1562" d="M94 868v13l328 61h8l-106 -627q-8 -51 -9 -73q0 -57 28 -97.5t91 -40.5q39 0 81 30t81 72t70 79l92 512l-140 71v13l308 61h8l-107 -627q-8 -51 -8 -73q0 -57 27.5 -97.5t91.5 -40.5q41 0 83 31t82 74t71 80l88 508l-142 71v13l312 61h8l-123 -698q-10 -61 -3 -88t38 -27 q35 0 75.5 38t77.5 116l27 -13q-39 -90 -50.5 -183t-16.5 -180t-26.5 -155.5t-81 -108.5t-177.5 -40q-57 0 -58 59v84l15 12h77q80 0 119 24.5t55.5 70t26.5 109t31 140.5q-43 -66 -89 -94t-93 -28q-72 0 -98.5 55t-10.5 147l2 13h-6q-66 -76 -116 -124t-98 -69.5 t-108 -21.5q-76 0 -124 58t-48 157h-10q-66 -76 -116 -124t-98 -69.5t-107 -21.5q-76 0 -124 59t-48 162q0 20 3 40.5t5 41.5l92 514z" />
<glyph unicode="&#x44a;" horiz-adv-x="1110" d="M61 571l62 351h444l-55 -334h113q174 0 278.5 -68.5t104.5 -202.5q0 -100 -57.5 -175.5t-148.5 -118.5t-192 -43q-104 0 -179 35.5t-106.5 120.5t-5.5 233l84 467h-129l-180 -265h-33zM471 336q-20 -131 7.5 -205t135.5 -74q98 0 157.5 72t59.5 184q0 88 -55 138.5 t-170 50.5h-108z" />
<glyph unicode="&#x44b;" horiz-adv-x="1374" d="M94 868v13l328 61h8l-59 -354h110q174 0 278.5 -68.5t104.5 -202.5q0 -100 -57 -175.5t-148.5 -118.5t-191.5 -43q-104 0 -179 35.5t-106.5 120.5t-5.5 233l78 428zM328 336q-23 -131 5.5 -205t137.5 -74q98 0 157.5 72t59.5 184q0 88 -55 138.5t-170 50.5h-107zM932 868 v13l311 61h8l-123 -698q-10 -61 -2.5 -88t37.5 -27q35 0 76 38t78 116l26 -13q-59 -154 -127.5 -222t-140.5 -68t-98.5 55t-9.5 147l106 615z" />
<glyph unicode="&#x44c;" horiz-adv-x="966" d="M94 868v13l328 61h8l-59 -354h110q174 0 278.5 -68.5t104.5 -202.5q0 -100 -57 -175.5t-148.5 -118.5t-191.5 -43q-104 0 -179 35.5t-106.5 120.5t-5.5 233l78 428zM328 336q-23 -131 5.5 -205t137.5 -74q98 0 157.5 72t59.5 184q0 88 -55 138.5t-170 50.5h-107z" />
<glyph unicode="&#x44d;" horiz-adv-x="905" d="M82 137q0 14 7 28.5t24 24.5l57 35h14l43 -59q35 -49 69 -72.5t97 -23.5q59 0 111.5 51t89.5 134t49 177l-362 -22l16 86l352 22q-2 143 -55 220t-164 77q-66 0 -127 -35t-125 -127h-4l-20 17q70 139 154.5 205.5t180.5 66.5q147 0 230.5 -89t83.5 -259q0 -106 -41 -214 t-111.5 -199t-160 -146t-185.5 -55q-76 0 -124 27.5t-77 72.5q-14 18 -18 30.5t-4 26.5z" />
<glyph unicode="&#x44e;" horiz-adv-x="1390" d="M70 868v13l329 61h7l-74 -426l160 8q29 106 92 202.5t157.5 156t208.5 59.5q174 0 256 -110.5t82 -286.5q0 -92 -33.5 -191.5t-96 -184.5t-150.5 -137t-199 -52q-174 0 -256 110.5t-82 286.5q0 29 4 59l-158 -8l-73 -428h-156l141 797zM649 371q0 -152 39 -233t143 -81 q86 0 148.5 69t96.5 182.5t34 248.5q0 152 -38 230.5t-140 78.5q-84 0 -147.5 -62.5t-99.5 -173t-36 -259.5z" />
<glyph unicode="&#x44f;" horiz-adv-x="976" d="M23 39l16 92l10 8h31q55 0 108.5 20.5t116 72t148.5 145.5q-66 -29 -129 -29q-76 0 -123 49t-47 146q0 100 56 191t150.5 149.5t206.5 58.5q47 0 91 -13.5t79 -31.5l72 45h51l-125 -698q-10 -61 -4 -88t35 -27q35 0 76 38t78 116l26 -13q-59 -154 -127.5 -222t-140.5 -68 t-98.5 55t-10.5 147l58 324h-11q-119 -182 -210 -299t-169.5 -172t-158.5 -55q-43 0 -52.5 12t-2.5 47zM309 608q0 -150 111 -149q63 0 116.5 31.5t102.5 91.5l33 176q-37 49 -74 76.5t-90 27.5q-90 0 -144.5 -77t-54.5 -177z" />
<glyph unicode="&#x451;" horiz-adv-x="907" d="M102 303q0 121 40 234.5t111 205t164 145.5t201 54q102 0 154.5 -47t52.5 -111q0 -70 -49 -128t-171 -106t-343 -85q-4 -41 -4 -86q0 -125 53.5 -199t167.5 -74q68 0 133.5 37t135.5 121h4l20 -16q-70 -121 -167 -194.5t-197 -73.5q-158 0 -232 87t-74 236zM272 539 q154 27 240 57.5t121 72.5t35 105q0 41 -27 68.5t-78 27.5q-111 0 -187.5 -91t-103.5 -240zM406 1266q0 39 26.5 65.5t65.5 26.5t65.5 -26.5t26.5 -65.5t-26.5 -65.5t-65.5 -26.5t-65.5 26.5t-26.5 65.5zM754 1266q0 39 26.5 65.5t65.5 26.5t65.5 -26.5t26.5 -65.5 t-26.5 -65.5t-65.5 -26.5t-65.5 26.5t-26.5 65.5z" />
<glyph unicode="&#x452;" horiz-adv-x="1007" d="M61 0l189 1073h-172l16 90h172l39 226l-160 71v13l336 61h6l-65 -371h309l-16 -90h-309l-60 -346h2q74 80 127 127t106.5 67.5t118.5 20.5q100 0 154.5 -82t30.5 -221l-115 -639q-29 -152 -140.5 -269.5t-285.5 -201.5v33q70 45 122 99t88 130t56 189l117 653 q12 72 -16.5 128t-118.5 56q-45 0 -92 -29.5t-92.5 -71.5t-77.5 -79l-113 -637h-156z" />
<glyph unicode="&#x453;" horiz-adv-x="911" d="M92 193q0 82 46 138t116 96t143 75q61 31 117.5 62.5t91.5 71.5t35 95q0 66 -38 98.5t-105 32.5q-51 0 -99.5 -24.5t-93.5 -79.5l-88 -109h-29l39 223q72 33 144.5 51.5t167.5 18.5q113 0 189.5 -52t76.5 -159q0 -90 -52.5 -148.5t-130 -99.5t-155.5 -80 q-84 -43 -147.5 -92t-63.5 -125q0 -57 38 -95t114 -38q150 0 237 113l84 113h29l-39 -230q-82 -39 -156 -54t-174 -15q-74 0 -141.5 20t-111.5 67.5t-44 125.5zM615 1069l217 363h159q-6 -31 -24.5 -59.5t-63.5 -69.5l-268 -234h-20z" />
<glyph unicode="&#x454;" horiz-adv-x="874" d="M102 328q0 106 42 213.5t115 198.5t164 146.5t187 55.5q76 0 123 -27.5t76 -72.5q12 -18 16 -30.5t4 -27.5q0 -14 -7 -28.5t-23 -24.5l-60 -35h-14l-41 60q-33 49 -66.5 72.5t-97.5 23.5q-57 0 -108.5 -46t-90 -123t-55.5 -167l361 23l-17 -86l-354 -23v-22 q0 -145 50 -223.5t163 -78.5q35 0 78 13.5t94 55.5t113 128h4l20 -16q-88 -156 -178 -231.5t-194 -75.5q-147 0 -225.5 89t-78.5 259z" />
<glyph unicode="&#x455;" horiz-adv-x="722" d="M4 141q0 12 4 25.5t21 21.5l45 25h14l35 -59q31 -51 82 -77t102 -26q78 0 128 41t50 119q0 80 -52 123t-118 82q-78 47 -116.5 86t-53 80t-14.5 98q0 59 45 119.5t119 101.5t156 41q90 0 141 -27.5t80 -70.5q18 -29 18 -53q0 -14 -7 -28.5t-21 -23.5l-39 -20h-15l-45 63 q-29 41 -64.5 62.5t-88.5 21.5q-59 0 -101.5 -35.5t-42.5 -93.5q0 -66 40 -108.5t93 -73.5q74 -43 122 -82t72.5 -88t24.5 -125q0 -72 -43 -136.5t-117.5 -104t-168.5 -39.5q-104 0 -170 29.5t-94 74.5q-12 18 -16.5 30.5t-4.5 26.5z" />
<glyph unicode="&#x456;" horiz-adv-x="589" d="M78 868v13l354 61h6l-125 -698q-10 -61 -4 -88t35 -27q35 0 76 38t78 116l26 -13q-59 -154 -127.5 -222t-140.5 -68t-98.5 55t-10.5 147l109 617zM285 1315q0 47 34.5 82t81.5 35t82 -35t35 -82t-35 -82t-82 -35t-81.5 35t-34.5 82z" />
<glyph unicode="&#x457;" horiz-adv-x="587" d="M78 868v13l354 61h6l-125 -698q-10 -61 -4 -88t35 -27q35 0 76 38t78 116l26 -13q-59 -154 -127.5 -222t-140.5 -68t-98.5 55t-10.5 147l109 617zM150 1319q0 47 34.5 82t81.5 35t82 -35t35 -82t-35 -82t-82 -35t-81.5 35t-34.5 82zM440 1319q0 47 35 82t82 35t82 -35 t35 -82t-35 -82t-82 -35t-82 35t-35 82z" />
<glyph unicode="&#x458;" horiz-adv-x="589" d="M-156 -438q70 45 122 99t88 130t57 189l145 819l-178 69v13l354 61h6l-168 -942q-29 -152 -140.5 -269.5t-285.5 -201.5v33zM285 1315q0 47 34.5 82t81.5 35t82 -35t35 -82t-35 -82t-82 -35t-81.5 35t-34.5 82z" />
<glyph unicode="&#x459;" horiz-adv-x="1396" d="M-18 39l16 92l10 8h31q86 0 141.5 75t93 217t72.5 343l8 49l-129 66l6 33h627l-57 -334h110q174 0 278.5 -68.5t104.5 -202.5q0 -100 -57 -175.5t-148.5 -118.5t-191.5 -43q-104 0 -179 35.5t-106.5 120.5t-5.5 233l84 467h-241l-11 -62q-41 -229 -86 -395t-108 -264 q-84 -135 -207 -135q-43 0 -52.5 12t-2.5 47zM758 336q-23 -131 6 -205t137 -74q98 0 157.5 72t59.5 184q0 88 -55 138.5t-170 50.5h-107z" />
<glyph unicode="&#x45a;" horiz-adv-x="1458" d="M70 868v13l329 61h7l-74 -426l366 19l47 262l-159 71v13l327 61h9l-68 -399l119 8q172 10 277.5 -57.5t105.5 -188.5q0 -96 -57.5 -170t-148.5 -114.5t-192 -40.5q-104 0 -178.5 35.5t-106.5 120.5t-5 233l14 77l-365 -18l-73 -428h-156l141 797zM819 336 q-23 -131 6 -205t138 -74q98 0 157.5 69t59.5 175q0 76 -55.5 124t-170.5 40l-114 -8z" />
<glyph unicode="&#x45b;" horiz-adv-x="1058" d="M61 0l189 1073h-172l16 90h172l39 226l-160 71v13l336 61h6l-65 -371h309l-16 -90h-309l-60 -346h4q72 80 126 127t106.5 67.5t117.5 20.5q100 0 154.5 -82t30.5 -221l-72 -395q-10 -61 -4 -88t35 -27q35 0 76 38t77 116l27 -13q-59 -154 -128 -222t-140 -68 q-72 0 -98.5 55t-10.5 147l80 451q10 72 -17.5 128t-117.5 56q-45 0 -92 -29.5t-92.5 -71.5t-77.5 -79l-113 -637h-156z" />
<glyph unicode="&#x45c;" horiz-adv-x="974" d="M70 868v13l329 61h7l-162 -942h-156l141 797zM340 471v10q152 178 244 278.5t149.5 141.5t102.5 41q25 0 42 -5t27 -13q14 -10 21.5 -25.5t-0.5 -34.5l-35 -86l-10 -8l-37 14q-10 4 -23.5 6.5t-42.5 2.5q-37 0 -65.5 -17.5t-61.5 -50.5l-176 -182l207 -320 q35 -51 55.5 -72.5t46.5 -21.5q37 0 67 38t67 116l26 -13q-63 -156 -108.5 -223t-106.5 -67q-66 0 -101.5 53t-84.5 129zM549 1085l217 363h159q-6 -31 -24.5 -59.5t-63.5 -69.5l-268 -234h-20z" />
<glyph unicode="&#x45e;" horiz-adv-x="915" d="M-68 -334l15 12h98q51 0 81 4.5t51.5 20.5t47 52t64.5 102l96 155l-176 791l-174 65v13l303 61h6l156 -727h8l147 242q68 111 88.5 169t20.5 97q0 33 -16.5 52.5t-40.5 33.5l-27 16v9l33 61q16 29 27.5 38t33.5 9q35 0 62.5 -25.5t43 -63.5t15.5 -73q0 -49 -36 -119.5 t-111 -193.5l-396 -629q-29 -47 -47 -77.5t-37.5 -61.5t-56.5 -74q-51 -59 -110.5 -88t-110.5 -29q-57 0 -58 60v98zM303 1464h166q-14 -129 13.5 -209t99.5 -80q80 0 123.5 80t58.5 209h166q-16 -150 -108.5 -246t-246.5 -96q-150 0 -219 96t-53 246z" />
<glyph unicode="&#x45f;" horiz-adv-x="1069" d="M94 868v13l328 61h8l-106 -627q-8 -51 -9 -73q0 -57 28 -97.5t91 -40.5q43 0 87 31t85 74t74 80l88 508l-141 71v13l311 61h8l-123 -698q-10 -61 -3 -88t38 -27q35 0 76 38t78 116l26 -13q-59 -154 -127.5 -222t-140.5 -68t-97.5 55t-10.5 147l2 13h-7 q-55 -68 -90 -124.5t-55 -115.5t-34.5 -132t-31.5 -175l-12 -78l-14 -14h-84q-61 0 -49 57q25 127 72 222t137 200q-76 -55 -170 -55q-76 0 -124 59t-48 162q0 20 3 40.5t5 41.5l92 514z" />
<glyph unicode="&#x462;" horiz-adv-x="1466" d="M72 778l57 332h410l22 127l-147 82l6 33h508l-6 -33l-187 -82l-22 -127h479l-59 -332h-33l-92 230h-314l-51 -295h223q231 0 349 -83t118 -237q0 -111 -66.5 -200t-201.5 -141t-340 -52h-524l6 33l155 82l158 893h-244l-172 -230h-32zM535 102h208q203 0 304.5 80 t101.5 209q0 219 -320 219h-204z" />
<glyph unicode="&#x463;" horiz-adv-x="1468" d="M70 868v13l290 61h7v-215h8q72 80 124 127t102 67.5t116 20.5q90 0 139 -82t25 -221l-11 -51h113q174 0 278.5 -68.5t104.5 -202.5q0 -100 -57.5 -175.5t-148.5 -118.5t-191 -43q-104 0 -180 35.5t-108 120.5t-5 233l47 264q12 72 -13.5 128t-101.5 56q-43 0 -90 -30.5 t-90 -73.5t-76 -80l-108 -633h-156l141 797zM825 336q-25 -131 5 -205t143 -74q98 0 157.5 72t59.5 184q0 88 -55.5 138.5t-169.5 50.5h-109z" />
<glyph unicode="&#x472;" horiz-adv-x="1568" d="M123 578q0 154 57.5 297t160.5 255.5t242.5 178t303.5 65.5q170 0 295 -75.5t194.5 -212t69.5 -312.5q0 -152 -56.5 -293t-159 -254.5t-242.5 -180t-308 -66.5t-293 75.5t-194.5 210.5t-69.5 312zM309 598q0 -154 55.5 -271.5t152.5 -183t228 -65.5q137 0 247 77.5 t178.5 209t84.5 292.5q-84 -55 -170 -70.5t-171 -6t-166.5 29t-158.5 36t-146.5 14t-133.5 -38.5v-23zM315 698q113 66 224.5 77t217 -6t199 -38.5t171 -26t135.5 38.5v15q0 156 -54.5 272.5t-152 183t-224.5 66.5q-139 0 -249.5 -76t-180 -208t-86.5 -298z" />
<glyph unicode="&#x473;" horiz-adv-x="1042" d="M102 377q0 96 35 195.5t100.5 183.5t155.5 135t199 51q178 0 263 -110.5t85 -286.5q0 -92 -34 -191.5t-98.5 -184.5t-154 -137t-202.5 -52q-178 0 -263.5 110.5t-85.5 286.5zM281 371q0 -152 40.5 -233t151.5 -81q78 0 137.5 53.5t97 143.5t48.5 203 q-68 -51 -135.5 -55.5t-130 11t-115.5 29t-92 -3.5q-2 -33 -2 -67zM289 498q76 43 148.5 45t135 -12.5t110.5 -24.5t79 8v43q0 152 -40 230.5t-149 78.5q-111 0 -187.5 -100t-96.5 -268z" />
<glyph unicode="&#x474;" horiz-adv-x="1529" d="M184 1319l9 33h485l-6 -33l-183 -70l205 -987h11l350 678q59 113 114.5 192.5t106.5 131.5q59 59 116.5 83.5t116.5 24.5q47 0 56.5 -12t3.5 -47l-19 -113l-10 -8h-20q-119 0 -189 -59.5t-129 -165.5l-538 -977h-89l-268 1257z" />
<glyph unicode="&#x475;" horiz-adv-x="1011" d="M47 868v13l303 61h6l125 -668h11l208 412q78 152 144.5 203t128.5 51q43 0 52 -13.5t5 -45.5l-14 -103l-8 -8h-31q-59 0 -100 -18.5t-79 -65.5t-85 -133l-303 -553h-27l-164 807z" />
<glyph unicode="&#x490;" horiz-adv-x="1212" d="M20 0l7 33l170 82l196 1122l-141 82l6 33h727l209 342h33l-76 -445h-580l-200 -1134l182 -82l-6 -33h-527z" />
<glyph unicode="&#x491;" horiz-adv-x="821" d="M70 0l145 823l-117 66l6 33h510l185 254h32l-63 -351h-395l-148 -825h-155z" />
<glyph unicode="&#x492;" horiz-adv-x="1214" d="M20 0l7 33l170 82l96 544h-154l17 84h151l86 494l-141 82l6 33h911l-61 -353h-33l-78 250h-426l-90 -506h340l-16 -84h-338l-96 -544l182 -82l-6 -33h-527z" />
<glyph unicode="&#x493;" horiz-adv-x="911" d="M82 426l14 86h340q82 43 143.5 92t61.5 127q0 66 -38 98.5t-105 32.5q-51 0 -99.5 -24.5t-93.5 -79.5l-88 -109h-29l39 223q72 33 144.5 51.5t167.5 18.5q113 0 189.5 -52t76.5 -159q0 -76 -41 -128t-102 -91h188l-14 -86h-340q-20 -10 -35 -16q-84 -43 -145.5 -94.5 t-61.5 -129.5q0 -57 39 -95t115 -38q150 0 237 113l84 113h29l-39 -230q-82 -39 -156 -54t-174 -15q-74 0 -141.5 20t-111.5 67.5t-44 125.5q0 82 50.5 137t121.5 96h-182z" />
<glyph unicode="&#x496;" horiz-adv-x="2099" d="M-43 0l6 33l150 73l680 639l-400 525l-108 49l4 33h409l-6 -33l-151 -70l420 -557l-730 -692h-274zM688 0l4 33l172 82l195 1122l-139 82l4 33h487l-6 -33l-170 -82l-197 -1122l142 -82l-6 -33h-486zM1141 692l616 557l-127 70l6 33h410l-8 -33l-125 -47l-600 -541 l450 -629h201l-78 -444h-33l-79 342h-146z" />
<glyph unicode="&#x497;" horiz-adv-x="1724" d="M42 145.5q5 26.5 42 47.5l55 32h15l30 -59q23 -43 40.5 -69.5t51.5 -26.5q43 0 80 70.5t59.5 182t22.5 232.5q0 125 -26.5 192.5t-83.5 67.5q-45 0 -89 -39t-114 -158h-4l-21 17q68 147 135.5 227t155.5 80q98 0 149.5 -79t51.5 -228q0 -55 -8 -115l213 10l69 392h156 l-68 -381l224 12q35 104 91 193.5t125.5 142.5t143.5 53q45 0 78 -30.5t53 -71.5q18 -37 13 -63.5t-42 -47.5l-55 -33h-14l-31 60q-23 43 -40 69.5t-52 26.5q-43 0 -80 -70.5t-59.5 -182.5t-22.5 -232q0 -125 26.5 -193t84.5 -68q45 0 89 39t113 158h5l20 -16 q-39 -92 -50 -188.5t-17.5 -184.5t-28 -158.5t-80.5 -111.5t-180 -41q-57 0 -58 59v84l15 12h78q84 0 122.5 27t55 77t27 118.5t34.5 150.5q-45 -74 -96 -112.5t-113 -38.5q-98 0 -149 78.5t-51 228.5q0 86 20 176l-215 -10l-80 -453h-156l78 444l-215 -12 q-31 -119 -89 -222.5t-134 -166.5t-156 -63q-45 0 -77.5 30.5t-53.5 71.5q-18 37 -13 63.5z" />
<glyph unicode="&#x49a;" horiz-adv-x="1474" d="M20 0l7 33l170 82l196 1122l-141 82l6 33h487l-8 -33l-168 -82l-198 -1122l143 -82l-8 -33h-486zM475 692l637 557l-127 70l6 33h410l-8 -33l-125 -49l-617 -537l484 -631h204l-77 -444h-33l-80 342h-166z" />
<glyph unicode="&#x49b;" horiz-adv-x="974" d="M70 868v13l329 61h7l-162 -942h-156l141 797zM340 471v10q152 178 244 278.5t149.5 141.5t102.5 41q25 0 42 -5t27 -13q14 -10 21.5 -25.5t-0.5 -34.5l-35 -86l-10 -8l-37 14q-10 4 -23.5 6.5t-42.5 2.5q-37 0 -65.5 -17.5t-61.5 -50.5l-176 -182l207 -320 q35 -51 55.5 -72.5t46.5 -21.5q37 0 67 38t67 116l26 -13q-39 -90 -50 -183t-16.5 -180t-27 -155.5t-79.5 -108.5t-179 -40q-57 0 -57 59v84l14 12h78q78 0 116.5 22.5t55 64.5t26 100.5t27.5 130.5q-55 -96 -123 -96q-66 0 -101.5 53t-84.5 129z" />
<glyph unicode="&#x4a2;" horiz-adv-x="1626" d="M20 0l7 33l155 82l199 1122l-148 82l7 33h487l-6 -33l-166 -82l-86 -489h664l86 489l-148 82l6 33h488l-6 -33l-166 -82l-201 -1135h205l-78 -444h-33l-80 342h-348l6 33l156 82l94 530h-663l-95 -530l158 -82l-6 -33h-488z" />
<glyph unicode="&#x4a3;" horiz-adv-x="1067" d="M70 868v13l329 61h7l-74 -426l389 21l45 260l-141 71v13l311 61h8l-123 -698q-10 -61 -3 -88t38 -27q35 0 76 38t78 116l26 -13q-39 -90 -50 -183t-16 -180t-26.5 -155.5t-81 -108.5t-178.5 -40q-57 0 -57 59v84l14 12h78q80 0 119 24.5t55 70t26.5 109t30.5 140.5 q-43 -66 -89 -94t-93 -28q-72 0 -98.5 55t-10.5 147l48 267l-390 -21l-73 -428h-156l141 797z" />
<glyph unicode="&#x4ae;" horiz-adv-x="1390" d="M195 1319l8 33h463l-9 -33l-165 -66l-3 -8l271 -514l414 510l2 8l-144 70l8 33h422l-6 -33l-131 -64l-524 -624l-92 -516l161 -82l-6 -33h-524l6 33l189 82l92 514l-324 620z" />
<glyph unicode="&#x4af;" horiz-adv-x="917" d="M47 868v13l303 61h6l138 -840h8l172 355q55 115 78.5 171t23.5 95q0 33 -16.5 52.5t-40.5 33.5l-27 16v9l33 61q16 29 27.5 38t33.5 9q33 0 60.5 -26.5t44 -63.5t16.5 -72q0 -49 -40 -116.5t-107 -196.5l-240 -465l-67 -377l118 -65l-6 -33h-413l6 33l139 65l65 375 l-145 809z" />
<glyph unicode="&#x4b0;" horiz-adv-x="1390" d="M195 1319l8 33h463l-9 -33l-165 -66l-3 -8l271 -514l414 510l2 8l-144 70l8 33h422l-6 -33l-131 -64l-522 -622h303l-16 -103h-308l-73 -415l161 -82l-6 -33h-524l6 33l189 82l73 415h-305l16 103h306l-322 616z" />
<glyph unicode="&#x4b1;" horiz-adv-x="983" d="M47 868v13l303 61h6l138 -840h8l172 355q55 115 78.5 171t23.5 95q0 33 -16.5 52.5t-40.5 33.5l-27 16v9l33 61q16 29 27.5 38t33.5 9q33 0 60.5 -26.5t44 -63.5t16.5 -72q0 -49 -40 -116.5t-107 -196.5l-240 -465l-2 -2h254l-16 -86h-252l-51 -289l118 -65l-6 -33h-413 l6 33l139 65l51 289h-254l17 86h251l-145 809z" />
<glyph unicode="&#x4b2;" horiz-adv-x="1495" d="M-51 0l8 33l149 71l537 584l-307 563l-111 68l6 33h486l-6 -33l-191 -68l-2 -10l256 -459l410 459v8l-142 70l7 33h419l-6 -33l-125 -66l-514 -559l332 -592h205l-78 -444h-33l-80 342h-397l6 33l178 69l2 9l-266 487l-438 -487v-9l154 -69l-7 -33h-452z" />
<glyph unicode="&#x4b3;" horiz-adv-x="917" d="M4 0q0 25 18.5 51.5t62.5 72.5t119 126t189 213l-137 342l-158 63v13l262 61h5l147 -373q76 100 120 161t66.5 94.5t32.5 55t21 42.5h118q0 -23 -15 -46.5t-53 -63.5t-103.5 -109.5t-166.5 -186.5l117 -293q20 -51 40 -72.5t61 -21.5q37 0 66.5 38t66.5 116l26 -13 q-39 -90 -50 -183t-16 -180t-26.5 -155.5t-81 -108.5t-178.5 -40q-57 0 -57 59v84l14 12h78q76 0 114.5 22.5t56 63.5t27 99.5t27.5 128.5q-55 -92 -125 -92q-72 0 -108.5 50t-69.5 132l-100 248q-90 -119 -143.5 -189.5t-80 -109.5t-39 -62.5t-22.5 -48.5h-125z" />
<glyph unicode="&#x4b6;" horiz-adv-x="1564" d="M201 1319l6 33h487l-6 -33l-166 -82l-39 -215q-35 -193 27.5 -270.5t234.5 -77.5q92 0 168 11t154 38l90 514l-147 82l6 33h487l-6 -33l-166 -82l-201 -1135h205l-78 -444h-32l-80 342h-348l6 33l155 82l91 510q-72 -25 -150 -40.5t-164 -15.5q-160 0 -266.5 42 t-148 141.5t-11.5 271.5l39 213z" />
<glyph unicode="&#x4b7;" horiz-adv-x="1069" d="M94 868v13l328 61h8l-53 -307q-8 -51 -8 -74q0 -57 26.5 -97t83.5 -40q47 0 91 30.5t84 73.5t71 82l33 187l-142 71v13l312 61h8l-123 -698q-10 -61 -3 -88t38 -27q35 0 76 38t77 116l27 -13q-39 -90 -50 -183t-16.5 -180t-27 -155.5t-80.5 -108.5t-178 -40q-57 0 -58 59 v84l15 12h78q80 0 118.5 24.5t55 70t27 109t30.5 140.5q-43 -66 -89 -94t-93 -28q-72 0 -98.5 55t-10.5 147l58 332h-9q-80 -98 -153.5 -156.5t-167.5 -58.5q-76 0 -124 59.5t-48 161.5q0 20 2 41t6 41l39 195z" />
<glyph unicode="&#x4ba;" horiz-adv-x="1476" d="M96 0l6 33l166 82l199 1122l-158 82l6 33h487l-6 -33l-155 -82l-90 -510q72 25 149.5 40.5t163.5 15.5q160 0 266.5 -42t149.5 -141.5t10 -271.5l-39 -213l147 -82l-6 -33h-487l6 33l166 82l39 215q35 193 -27.5 270.5t-234.5 77.5q-92 0 -168 -11t-154 -38l-90 -514 l147 -82l-6 -33h-487z" />
<glyph unicode="&#x4bb;" horiz-adv-x="1058" d="M61 0l244 1389l-160 71v13l336 61h6l-141 -807h4q72 80 126 127t106.5 67.5t117.5 20.5q100 0 154.5 -82t30.5 -221l-72 -395q-10 -61 -4 -88t35 -27q35 0 76 38t77 116l27 -13q-59 -154 -128 -222t-140 -68q-72 0 -98.5 55t-10.5 147l80 451q10 72 -17.5 128t-117.5 56 q-45 0 -92 -29.5t-92.5 -71.5t-77.5 -79l-113 -637h-156z" />
<glyph unicode="&#x4c0;" horiz-adv-x="747" d="M20 0l7 33l155 82l199 1122l-148 82l7 33h487l-6 -33l-166 -82l-199 -1122l158 -82l-6 -33h-488z" />
<glyph unicode="&#x4cf;" horiz-adv-x="618" d="M0 0l6 33l139 65l234 1319l-119 66l6 33h414l-6 -33l-139 -66l-234 -1319l119 -65l-6 -33h-414z" />
<glyph unicode="&#x4d8;" horiz-adv-x="1263" d="M92 420q0 41 3 86t14 94l18 14h864q16 100 17 213q0 193 -90.5 304.5t-284.5 111.5q-129 0 -231.5 -52t-204.5 -144h-9l7 36q84 125 219 207t299 82q219 0 338.5 -131t119.5 -356q0 -182 -49 -345t-140 -289t-217 -198.5t-280 -72.5q-184 0 -288.5 114.5t-104.5 325.5z M250 428q0 -98 24.5 -176t83 -123t164.5 -45q174 0 287 119t162 309h-717q0 -20 -2 -42t-2 -42z" />
<glyph unicode="&#x4d9;" horiz-adv-x="907" d="M66 139q0 70 49 128.5t171 106.5t343 85q4 41 4 86q0 74 -19.5 135t-68.5 99t-133 38q-68 0 -133.5 -38t-135.5 -120h-4l-20 17q43 74 104.5 135t134 97t146.5 36q145 0 214.5 -87t69.5 -236q0 -121 -39.5 -235t-110.5 -205t-164 -145t-202 -54q-104 0 -155 50t-51 107z M223 150q0 -41 26.5 -69t78.5 -28q117 0 190.5 95.5t99.5 236.5q-154 -27 -239.5 -57.5t-120.5 -72.5t-35 -105z" />
<glyph unicode="&#x4e2;" horiz-adv-x="1605" d="M20 0l7 33l155 82l199 1122l-148 82l7 33h487l-6 -33l-166 -82l-158 -893l824 793l18 100l-147 82l6 33h487l-6 -33l-166 -82l-199 -1122l158 -82l-6 -33h-487l6 33l155 82l152 860l-823 -789l-13 -71l158 -82l-6 -33h-488zM668 1571l16 90h518l-18 -90h-516z" />
<glyph unicode="&#x4e3;" horiz-adv-x="1069" d="M94 868v13l328 61h8l-106 -627q-8 -51 -9 -73q0 -57 28 -97.5t91 -40.5q43 0 87 31t85 74t74 80l88 508l-141 71v13l311 61h8l-123 -698q-10 -61 -3 -88t38 -27q35 0 76 38t78 116l26 -13q-59 -154 -127.5 -222t-140.5 -68t-97.5 55t-10.5 147l2 13h-7q-70 -78 -121 -125 t-99 -68.5t-111 -21.5q-76 0 -124 59t-48 162q0 20 3 40.5t5 41.5l92 514zM402 1219l16 90h518l-18 -90h-516z" />
<glyph unicode="&#x4e8;" horiz-adv-x="1568" d="M123 578q0 154 57.5 297t160.5 255.5t242.5 178t303.5 65.5q170 0 295 -75.5t194.5 -212t69.5 -312.5q0 -152 -56.5 -293t-159 -254.5t-242.5 -180t-308 -66.5t-293 75.5t-194.5 210.5t-69.5 312zM309 598q0 -154 55.5 -271.5t152.5 -183t228 -65.5q137 0 245 76.5 t177.5 205.5t87.5 289h-944q-2 -25 -2 -51zM322 752h940v6q0 156 -54.5 272.5t-152 183t-224.5 66.5q-131 0 -237.5 -68.5t-177 -187.5t-94.5 -272z" />
<glyph unicode="&#x4e9;" horiz-adv-x="1042" d="M102 377q0 96 35 195.5t100.5 183.5t155.5 135t199 51q178 0 263 -110.5t85 -286.5q0 -92 -34 -191.5t-98.5 -184.5t-154 -137t-202.5 -52q-178 0 -263.5 110.5t-85.5 286.5zM281 371q0 -152 40.5 -233t151.5 -81q76 0 134.5 50.5t96 137.5t50.5 195l-473 -22v-47z M289 504l473 20v33q0 152 -40 230.5t-149 78.5q-111 0 -186.5 -98t-97.5 -264z" />
<glyph unicode="&#x4ee;" horiz-adv-x="1419" d="M164 1319l6 33h496l-7 -33l-188 -76l-2 -10l227 -744h21l493 752v8l-155 70l6 33h430l-6 -33l-121 -59l-567 -846q-113 -168 -191 -262.5t-144.5 -133t-142.5 -38.5q-45 0 -55 12t-4 47l21 113l8 8h20q96 0 159.5 38t115.5 109l-289 938zM637 1571l16 90h518l-18 -90 h-516z" />
<glyph unicode="&#x4ef;" horiz-adv-x="915" d="M-68 -334l15 12h98q51 0 81 4.5t51.5 20.5t47 52t64.5 102l96 155l-176 791l-174 65v13l303 61h6l156 -727h8l147 242q68 111 88.5 169t20.5 97q0 33 -16.5 52.5t-40.5 33.5l-27 16v9l33 61q16 29 27.5 38t33.5 9q35 0 62.5 -25.5t43 -63.5t15.5 -73q0 -49 -36 -119.5 t-111 -193.5l-396 -629q-29 -47 -47 -77.5t-37.5 -61.5t-56.5 -74q-51 -59 -110.5 -88t-110.5 -29q-57 0 -58 60v98zM375 1219l16 90h518l-18 -90h-516z" />
<glyph unicode="&#x2000;" horiz-adv-x="882" />
<glyph unicode="&#x2001;" horiz-adv-x="1765" />
<glyph unicode="&#x2002;" horiz-adv-x="882" />
<glyph unicode="&#x2003;" horiz-adv-x="1765" />
<glyph unicode="&#x2004;" horiz-adv-x="588" />
<glyph unicode="&#x2005;" horiz-adv-x="441" />
<glyph unicode="&#x2006;" horiz-adv-x="294" />
<glyph unicode="&#x2007;" horiz-adv-x="294" />
<glyph unicode="&#x2008;" horiz-adv-x="220" />
<glyph unicode="&#x2009;" horiz-adv-x="353" />
<glyph unicode="&#x200a;" horiz-adv-x="98" />
<glyph unicode="&#x2010;" horiz-adv-x="716" d="M82 469l20 115h533l-21 -115h-532z" />
<glyph unicode="&#x2011;" horiz-adv-x="716" d="M82 469l20 115h533l-21 -115h-532z" />
<glyph unicode="&#x2012;" horiz-adv-x="716" d="M82 469l20 115h533l-21 -115h-532z" />
<glyph unicode="&#x2013;" d="M102 520l15 74h805l-15 -74h-805z" />
<glyph unicode="&#x2014;" horiz-adv-x="2048" d="M102 520l15 74h1829l-15 -74h-1829z" />
<glyph unicode="&#x2018;" horiz-adv-x="487" d="M225 1202q0 59 37 128t109.5 125t181.5 81v-43q-102 -27 -157.5 -83t-55.5 -132q0 -33 14.5 -60.5t55.5 -52.5l59 -37v-26l-35 -55q-16 -27 -28.5 -36.5t-28.5 -9.5q-8 0 -22.5 3.5t-28.5 11.5q-51 37 -76 77t-25 109z" />
<glyph unicode="&#x2019;" horiz-adv-x="487" d="M176 1001v43q102 27 157.5 83.5t55.5 132.5q0 35 -14.5 61.5t-55.5 50.5l-59 37v27l35 55q16 27 28.5 36t28.5 9q8 0 22.5 -2t28.5 -12q51 -37 76 -77t25 -110q0 -57 -37 -126.5t-109.5 -127t-181.5 -80.5z" />
<glyph unicode="&#x201a;" horiz-adv-x="487" d="M-19 -379q102 27 157.5 83.5t55.5 132.5q0 35 -14.5 61.5t-55.5 50.5l-59 37v27l35 55q16 27 28.5 36t28.5 9q8 0 22.5 -2t28.5 -12q51 -37 76 -77t25 -110q0 -57 -37 -126.5t-109.5 -127t-181.5 -80.5v43z" />
<glyph unicode="&#x201c;" horiz-adv-x="856" d="M225 1202q0 59 37 128t109.5 125t181.5 81v-43q-102 -27 -157.5 -83t-55.5 -132q0 -33 14.5 -60.5t55.5 -52.5l59 -37v-26l-35 -55q-16 -27 -28.5 -36.5t-28.5 -9.5q-8 0 -22.5 3.5t-28.5 11.5q-51 37 -76 77t-25 109zM594 1202q0 59 37 128t109.5 125t181.5 81v-43 q-102 -27 -157.5 -83t-55.5 -132q0 -33 14.5 -60.5t55.5 -52.5l59 -37v-26l-35 -55q-16 -27 -28.5 -36.5t-28.5 -9.5q-8 0 -22.5 3.5t-28.5 11.5q-51 37 -76 77t-25 109z" />
<glyph unicode="&#x201d;" horiz-adv-x="856" d="M176 1001v43q102 27 157.5 83.5t55.5 132.5q0 35 -14.5 61.5t-55.5 50.5l-59 37v27l35 55q16 27 28.5 36t28.5 9q8 0 22.5 -2t28.5 -12q51 -37 76 -77t25 -110q0 -57 -37 -126.5t-109.5 -127t-181.5 -80.5zM545 1001v43q102 27 157.5 83.5t55.5 132.5q0 35 -14.5 61.5 t-55.5 50.5l-59 37v27l35 55q16 27 28.5 36t28.5 9q8 0 22.5 -2t28.5 -12q51 -37 76 -77t25 -110q0 -57 -37 -126.5t-109.5 -127t-181.5 -80.5z" />
<glyph unicode="&#x201e;" horiz-adv-x="856" d="M-51 -379q102 27 157.5 83.5t55.5 132.5q0 35 -14.5 61.5t-55.5 50.5l-59 37v27l35 55q16 27 28.5 36t28.5 9q8 0 22.5 -2t28.5 -12q51 -37 76 -77t25 -110q0 -57 -37 -126.5t-109.5 -127t-181.5 -80.5v43zM318 -379q102 27 157.5 83.5t55.5 132.5q0 35 -14.5 61.5 t-55.5 50.5l-59 37v27l35 55q16 27 28.5 36t28.5 9q8 0 22.5 -2t28.5 -12q51 -37 76 -77t25 -110q0 -57 -37 -126.5t-109.5 -127t-181.5 -80.5v43z" />
<glyph unicode="&#x2026;" horiz-adv-x="1308" d="M72 92q0 51 34.5 92t90.5 41q51 0 74.5 -28.5t23.5 -73.5q0 -53 -34 -93t-91 -40q-51 0 -74.5 28.5t-23.5 73.5zM482 92q0 51 34.5 92t90.5 41q51 0 74.5 -28.5t23.5 -73.5q0 -53 -34 -93t-91 -40q-51 0 -74.5 28.5t-23.5 73.5zM891 92q0 51 34.5 92t90.5 41 q51 0 74.5 -28.5t23.5 -73.5q0 -53 -34 -93t-91 -40q-51 0 -74.5 28.5t-23.5 73.5z" />
<glyph unicode="&#x202f;" horiz-adv-x="353" />
<glyph unicode="&#x2039;" horiz-adv-x="487" d="M35 506l397 362h21l-242 -360l135 -365h-20z" />
<glyph unicode="&#x203a;" horiz-adv-x="487" d="M35 143l241 361l-135 364h21l291 -362l-398 -363h-20z" />
<glyph unicode="&#x205f;" horiz-adv-x="441" />
<glyph unicode="&#x20ac;" d="M10 492l15 77h145q12 119 41 230h-150l15 78h160q51 147 128.5 258.5t175 174t203.5 62.5q90 0 155 -40t99 -97q25 -43 25 -61t-7 -29.5t-30 -24.5l-65 -33h-15l-51 84q-25 41 -57.5 73t-85.5 32q-102 0 -185.5 -107.5t-132.5 -291.5h365l-17 -78h-364q-23 -109 -31 -230 h359l-13 -77h-350q-2 -39 -2 -80q0 -170 61.5 -246t169.5 -76q76 0 152 48t139 149h4l33 -25q-80 -152 -176 -217t-201 -65q-186 0 -272 119.5t-86 332.5q0 31 2 60h-156z" />
<glyph unicode="&#x20b9;" d="M199 659l10 62h121q117 0 191.5 67.5t99.5 176.5h-371l12 77h369v23q0 104 -58.5 156.5t-166.5 52.5h-107l14 78h680l-14 -78h-303q59 -18 96 -82t37 -150h135l-12 -77h-131q-25 -117 -130.5 -203t-283.5 -117l305 -549l78 -63l-6 -33h-205z" />
<glyph unicode="&#x20ba;" d="M31 0l6 33l170 82l76 436l-162 -66l16 88l162 66l39 221l-166 -67l14 88l166 67l51 289l-141 82l6 33h477l-6 -33l-186 -82l-39 -225l383 155l-16 -88l-383 -155l-39 -219l385 155l-15 -88l-385 -156l-90 -514h60q117 0 189.5 37t114.5 125t68 242l9 57l10 10h86 q23 0 33 -5t10 -25q0 -55 -27.5 -126t-76 -143.5t-113 -135t-140 -100.5t-157.5 -38h-389z" />
<glyph unicode="&#x20bc;" d="M41 0q68 410 157 673t188 398t202 154l24 147h74l-24 -145q78 -12 129 -84t70.5 -216.5t5 -372.5t-69.5 -554h-150q63 381 76.5 616.5t-9 353t-71.5 148.5l-143 -872h-76l145 874q-57 -25 -121.5 -148.5t-129 -362t-125.5 -609.5h-152z" />
<glyph unicode="&#x20bd;" d="M-10 0l4 33l170 82l45 252h-143l14 77h141l41 236h-145l14 78h145l84 479l-143 82l6 33h389q199 0 301.5 -67.5t102.5 -215.5q0 -119 -68.5 -207t-188.5 -135t-272 -47h-69l-41 -236h385l-14 -77h-383l-46 -252l170 -82l-6 -33h-493zM432 758h72q145 0 236 75.5t91 215.5 q0 106 -66.5 153t-191.5 47h-55z" />
<glyph unicode="&#x2122;" horiz-adv-x="1335" d="M113 1186l28 166h477l-28 -166h-10l-35 119h-127l-76 -433l70 -30l-2 -13h-244l2 13l88 30l76 433h-131l-74 -119h-14zM604 829l2 13l68 30l92 437l-61 30l2 13h165l103 -400l242 400h159l-2 -13l-71 -30l-64 -437l49 -30l-2 -13h-201l2 13l64 30l59 377l-258 -424h-43 l-102 422l-80 -375l59 -30l-2 -13h-180z" />
<glyph unicode="&#x25fc;" horiz-adv-x="942" d="M0 0v942h942v-942h-942z" />
</font>
</defs>
</svg>
