<svg width="98" height="98" viewBox="0 0 98 98" fill="none" xmlns="http://www.w3.org/2000/svg">
<g clip-path="url(#clip0_137_570)">
<path d="M19.25 19.25H22.7517V22.75H19.25V19.25Z" fill="#FF9615"/>
<path d="M5.25 5.25H36.75V10.5H5.25V5.25Z" fill="#B06100"/>
<path d="M31.5 43.75H35.0017V47.25H31.5V43.75Z" fill="#FF9615"/>
<path d="M31.5 31.5H35.0017V35H31.5V31.5Z" fill="#FF9615"/>
<path d="M31.5 19.25H35.0017V22.75H31.5V19.25Z" fill="#FF9615"/>
<path d="M19.25 31.5H22.7517V35H19.25V31.5Z" fill="#FF9615"/>
<path d="M1.75 52.5H40.25C41.2164 52.5 42 51.7164 42 50.75V1.75C42 0.783569 41.2164 0 40.25 0H1.75C0.783569 0 0 0.783569 0 1.75V50.75C0 51.7164 0.783569 52.5 1.75 52.5ZM14 47.25C14 49.1829 12.4329 50.75 10.5 50.75H7C5.06714 50.75 3.5 49.1829 3.5 47.25V43.75C3.5 41.8171 5.06714 40.25 7 40.25H10.5C12.4329 40.25 14 41.8171 14 43.75V47.25ZM14 35C14 36.9329 12.4329 38.5 10.5 38.5H7C5.06714 38.5 3.5 36.9329 3.5 35V31.5C3.5 29.5671 5.06714 28 7 28H10.5C12.4329 28 14 29.5671 14 31.5V35ZM14 22.75C14 24.6829 12.4329 26.25 10.5 26.25H7C5.06714 26.25 3.5 24.6829 3.5 22.75V19.25C3.5 17.3171 5.06714 15.75 7 15.75H10.5C12.4329 15.75 14 17.3171 14 19.25V22.75ZM26.25 47.25C26.25 49.1829 24.6829 50.75 22.75 50.75H19.25C17.3171 50.75 15.75 49.1829 15.75 47.25V43.75C15.75 41.8171 17.3171 40.25 19.25 40.25H22.75C24.6829 40.25 26.25 41.8171 26.25 43.75V47.25ZM26.25 35C26.25 36.9329 24.6829 38.5 22.75 38.5H19.25C17.3171 38.5 15.75 36.9329 15.75 35V31.5C15.75 29.5671 17.3171 28 19.25 28H22.75C24.6829 28 26.25 29.5671 26.25 31.5V35ZM26.25 22.75C26.25 24.6829 24.6829 26.25 22.75 26.25H19.25C17.3171 26.25 15.75 24.6829 15.75 22.75V19.25C15.75 17.3171 17.3171 15.75 19.25 15.75H22.75C24.6829 15.75 26.25 17.3171 26.25 19.25V22.75ZM38.5 47.25C38.5 49.1829 36.9329 50.75 35 50.75H31.5C29.5671 50.75 28 49.1829 28 47.25V43.75C28 41.8171 29.5671 40.25 31.5 40.25H35C36.9329 40.25 38.5 41.8171 38.5 43.75V47.25ZM38.5 35C38.5 36.9329 36.9329 38.5 35 38.5H31.5C29.5671 38.5 28 36.9329 28 35V31.5C28 29.5671 29.5671 28 31.5 28H35C36.9329 28 38.5 29.5671 38.5 31.5V35ZM38.5 22.75C38.5 24.6829 36.9329 26.25 35 26.25H31.5C29.5671 26.25 28 24.6829 28 22.75V19.25C28 17.3171 29.5671 15.75 31.5 15.75H35C36.9329 15.75 38.5 17.3171 38.5 19.25V22.75ZM1.75 1.75H40.25V14H1.75V1.75Z" fill="#FF9615"/>
<path d="M7 31.5H10.5017V35H7V31.5Z" fill="#FF9615"/>
<path d="M7 43.75H10.5017V47.25H7V43.75Z" fill="#FF9615"/>
<path d="M19.25 43.75H22.7517V47.25H19.25V43.75Z" fill="#FF9615"/>
<path d="M7 19.25H10.5017V22.75H7V19.25Z" fill="#FF9615"/>
<path d="M69.9111 89.7627C69.7642 89.908 69.5933 90.0267 69.4053 90.113L60.2314 94.3376C59.5667 94.6427 58.7814 94.5017 58.2644 93.9839C57.7466 93.4669 57.6056 92.6816 57.9106 92.0168L62.1353 82.843C62.2216 82.655 62.3395 82.4841 62.4856 82.3372L85.75 59.0762V28H64.75V7H45.5V50.75C45.5 53.6493 43.1493 56 40.25 56H12.25V98H85.75V73.9255L69.9111 89.7627ZM59.5 33.25H80.5V36.75H59.5V33.25ZM59.5 40.25H80.5V43.75H59.5V40.25ZM59.5 47.25H80.5V50.75H59.5V47.25ZM59.5 54.25H80.5V57.75H59.5V54.25ZM36.75 94.5C27.0848 94.5 19.25 86.6652 19.25 77C19.25 67.3348 27.0848 59.5 36.75 59.5C46.4152 59.5 54.25 67.3348 54.25 77C54.2397 86.6609 46.4109 94.4897 36.75 94.5ZM56 57.75H52.5V54.25H56V57.75ZM56 50.75H52.5V47.25H56V50.75ZM56 43.75H52.5V40.25H56V43.75ZM56 36.75H52.5V33.25H56V36.75Z" fill="#FF9615"/>
<path d="M68.25 24.5H83.2754L68.25 9.47461V24.5Z" fill="#FF9615"/>
<path d="M97.4369 57.2877C98.1196 56.605 98.1196 55.4967 97.4369 54.8131C96.7448 54.1517 95.6553 54.1517 94.964 54.8131L93.725 56.0504L96.1996 58.525L97.4369 57.2877Z" fill="#FF9615"/>
<path d="M90.0267 59.7487L91.2495 58.5267L93.7241 61.0013L92.5013 62.2241L90.0267 59.7487Z" fill="#FF9615"/>
<path d="M63.0718 89.1782L67.657 87.0659L90.0267 64.6979L87.5521 62.2233L65.1841 84.593L63.0718 89.1782Z" fill="#FF9615"/>
<path d="M36.75 63C29.0177 63 22.75 69.2677 22.75 77C22.75 84.7323 29.0177 91 36.75 91C44.4823 91 50.75 84.7323 50.75 77C50.7415 69.272 44.478 63.0085 36.75 63ZM36.75 75.25C40.6755 75.25 43.75 77.5546 43.75 80.5C43.75 82.9866 41.5471 85.0006 38.5 85.5748V87.5H35V85.5748C31.9529 85.0049 29.75 82.99 29.75 80.5H33.25C33.25 81.2144 34.6129 82.25 36.75 82.25C38.8871 82.25 40.25 81.2144 40.25 80.5C40.25 79.7856 38.8871 78.75 36.75 78.75C32.8245 78.75 29.75 76.4454 29.75 73.5C29.75 71.0134 31.9529 68.9994 35 68.4252V66.5H38.5V68.4252C41.5471 68.9951 43.75 71.01 43.75 73.5H40.25C40.25 72.7856 38.8871 71.75 36.75 71.75C34.6129 71.75 33.25 72.7856 33.25 73.5C33.25 74.2144 34.6129 75.25 36.75 75.25Z" fill="#B06100"/>
</g>
<defs>
<clipPath id="clip0_137_570">
<rect width="98" height="98" fill="white"/>
</clipPath>
</defs>
</svg>
