<svg width="99" height="77" viewBox="0 0 99 77" fill="none" xmlns="http://www.w3.org/2000/svg">
<path fill-rule="evenodd" clip-rule="evenodd" d="M37.0907 66.958C36.5262 66.958 35.9616 66.5524 35.8849 65.9111C34.3502 54.4665 31.3685 43.1041 27.2576 33.1066C19.6827 38.9111 20.0883 50.838 20.165 50.9202C20.165 51.567 19.7649 52.0493 19.1181 52.2083C18.4769 52.2905 17.9123 51.8849 17.7479 51.3203C15.1717 41.3283 17.5889 33.0298 19.0414 29.4013C9.84957 31.1717 2.51583 46.2448 2.51583 46.4038C2.27467 46.8916 1.79233 47.1328 1.22777 47.0505C0.663216 46.9683 0.263094 46.5682 0.263094 46.0037C-1.91291 29.2424 10.8197 23.7613 16.0597 22.3088C11.7844 19.0037 4.05055 20.4562 3.96833 20.4562C3.48599 20.5384 2.92144 20.2917 2.68027 19.8094C2.4391 19.327 2.51583 18.7625 2.83922 18.3624C10.2552 10.7052 18.7948 14.0104 22.5055 16.1041C22.8289 11.8289 24.7637 2.88368 35.2381 0.948844C35.7205 0.872109 36.285 1.11328 36.5262 1.59562C36.7674 2.07796 36.6906 2.64251 36.3672 3.04811C36.285 3.12485 30.8039 8.84714 31.2095 14.1693C35.3203 10.623 46.9239 3.04811 59.7387 14.0871C60.1443 14.4105 60.3033 14.975 60.0621 15.5396C59.8209 16.0219 59.3386 16.3453 58.7741 16.2631C58.6096 16.2631 42.0073 14.0049 35.4793 20.6973C39.2667 21.503 47.4884 24.0792 54.422 31.7363C54.8222 32.2241 54.8222 32.8654 54.422 33.3477C54.0164 33.8356 53.2929 33.9123 52.8106 33.5122C52.7284 33.43 42.813 26.3374 33.7089 29.6425C35.1559 33.8356 40.4781 49.2266 44.2655 64.623C44.4245 65.2643 44.0244 65.9111 43.3776 66.07C42.7856 66.218 42.1882 65.8892 41.9744 65.3301L38.165 66.0262C38.0225 66.4647 37.6389 66.821 37.173 66.8758C37.2552 66.958 37.173 66.958 37.0907 66.958Z" fill="#F28907"/>
<path fill-rule="evenodd" clip-rule="evenodd" d="M97.7777 76.0676H19.6827C19.0414 76.0676 18.4769 75.5031 18.4769 74.8563C18.4769 68.1419 33.7966 64.19 49.2424 63.1267V68.5695C49.2424 70.6468 50.9689 72.3788 53.0518 72.3788H67.0944H75.1133H89.2381C91.3264 72.3788 92.9653 70.6413 92.9653 68.5695V68.2899C96.9227 70.1645 98.989 72.4062 98.989 74.8563C98.989 75.5031 98.4245 76.0676 97.7777 76.0676Z" fill="#F28907"/>
<path fill-rule="evenodd" clip-rule="evenodd" d="M89.2381 69.7808H77.7113V56.3192C77.7113 54.9489 76.6644 53.902 75.2941 53.902H66.9135C65.5432 53.902 64.4963 54.9489 64.4963 56.3192V69.7808H53.0518C52.405 69.7808 51.8404 69.2162 51.8404 68.5695V51.4793L50.7113 52.6139C50.4702 52.8551 50.1468 52.9373 49.8234 52.9373C49.5055 52.9373 49.1821 52.8551 48.9409 52.6139C48.4531 52.1261 48.4531 51.4026 48.9409 50.9203L70.2954 29.5603C70.5365 29.3192 70.8599 29.2424 71.1833 29.2424C71.5067 29.2424 71.8301 29.4014 72.0713 29.5603L93.349 50.9203C93.8313 51.4026 93.8313 52.1261 93.349 52.6139C92.8611 53.0963 92.1376 53.0963 91.6553 52.6139L90.3672 51.3149V68.5695C90.444 69.2162 89.8794 69.7808 89.2381 69.7808ZM66.9135 69.293H75.3764V56.3192H66.9903L66.9135 69.293ZM77.9525 51.1614H71.1833H64.4141C63.7674 51.1614 63.2028 50.5969 63.2028 49.9501V42.0518C63.2028 41.4105 63.7674 40.846 64.4141 40.846H71.1833H77.9525C78.5993 40.846 79.1638 41.4105 79.1638 42.0518V49.9501C79.1638 50.5969 78.5993 51.1614 77.9525 51.1614ZM65.62 48.7443H69.972V43.2631H65.62V48.7443ZM72.3946 48.7443H76.7466V43.2631H72.3946V48.7443Z" fill="#F28907"/>
<path fill-rule="evenodd" clip-rule="evenodd" d="M78.3197 32.1528C78.38 31.9391 78.4896 31.7418 78.5993 31.5773L81.4988 28.6778C81.74 28.4366 82.0633 28.2722 82.3867 28.3544C82.7101 28.3544 83.0335 28.5134 83.2747 28.7545L86.092 31.6595C86.3331 31.9007 86.4153 32.2241 86.4153 32.4653V40.2813L78.3197 32.1528Z" fill="#F28907"/>
</svg>
