<svg width="99" height="99" viewBox="0 0 99 99" fill="none" xmlns="http://www.w3.org/2000/svg">
<g clip-path="url(#clip0_137_517)">
<path d="M26.5179 40.2523C23.5103 41.781 20.1669 42.5293 16.7947 42.4286C13.4224 42.5293 10.079 41.781 7.07144 40.2523V79.6861C7.95257 79.5972 8.83763 79.553 9.72323 79.5536C13.0954 79.4528 16.4389 80.2011 19.4464 81.7298V68.9464C19.4464 66.1178 22.2467 63.7913 26.5179 62.644V40.2523Z" fill="#F28907"/>
<path d="M9.72322 90.1608C15.0932 90.1608 19.4464 88.5778 19.4464 86.6251C19.4464 84.6723 15.0932 83.0894 9.72322 83.0894C4.35323 83.0894 0 84.6723 0 86.6251C0 88.5778 4.35323 90.1608 9.72322 90.1608Z" fill="#F28907"/>
<path d="M0 91.5203V95.4644C0 96.8786 3.87691 99.0001 9.72322 99.0001C15.5695 99.0001 19.4464 96.8786 19.4464 95.4644V91.5203C16.4389 93.0489 13.0954 93.7972 9.72322 93.6965C6.351 93.7972 3.00753 93.0489 0 91.5203Z" fill="#F28907"/>
<path d="M52.1889 16.1406C53.4963 17.1223 55.085 17.6573 56.7199 17.6663C55.188 15.0355 53.9755 12.2313 53.1082 9.31314C52.846 8.37242 53.3961 7.39729 54.3368 7.13514C55.2776 6.87299 56.2527 7.42308 56.5148 8.3638C57.4994 11.6852 59.0049 14.8292 60.9752 17.6786H62.7925C64.7665 14.8323 66.2717 11.6881 67.251 8.36557C67.5127 7.42436 68.4878 6.87348 69.429 7.13514C70.3703 7.39681 70.9211 8.37193 70.6595 9.31314C69.793 12.2288 68.5817 15.0306 67.0513 17.6592C68.6537 17.6347 70.2071 17.103 71.4886 16.1406C75.6272 12.9054 77.0786 7.76096 77.5559 4.01311C77.6513 3.37086 77.3542 2.73366 76.801 2.39375C76.1913 1.99616 75.4042 1.99616 74.7945 2.39375C73.5561 3.17037 72.1174 3.56739 70.6559 3.53578C68.608 3.55233 66.6323 2.78002 65.1385 1.379C64.2646 0.496732 63.0743 0.000366211 61.8326 0.000366211C60.5908 0.000366211 59.4005 0.496732 58.5267 1.379C57.0329 2.77897 55.0581 3.55115 53.011 3.53578C51.5565 3.56786 50.1246 3.1733 48.8918 2.40082C48.5929 2.20977 48.246 2.1074 47.8912 2.10559C47.5317 2.1068 47.1799 2.20977 46.8765 2.40259C46.3255 2.74167 46.0299 3.37672 46.1252 4.01664C46.6078 7.7645 48.0539 12.9054 52.1889 16.1406Z" fill="#F28907"/>
<path d="M27.4018 14.1428C32.7718 14.1428 37.125 12.5598 37.125 10.6071C37.125 8.6544 32.7718 7.07141 27.4018 7.07141C22.0318 7.07141 17.6786 8.6544 17.6786 10.6071C17.6786 12.5598 22.0318 14.1428 27.4018 14.1428Z" fill="#F28907"/>
<path d="M16.7947 38.8928C22.1646 38.8928 26.5179 37.3098 26.5179 35.3571C26.5179 33.4044 22.1646 31.8214 16.7947 31.8214C11.4247 31.8214 7.07144 33.4044 7.07144 35.3571C7.07144 37.3098 11.4247 38.8928 16.7947 38.8928Z" fill="#F28907"/>
<path d="M97.6158 56.9762C91.8632 32.5604 76.504 22.572 71.8316 20.0439C70.971 20.4623 70.0601 20.7683 69.1215 20.9544L72.4044 24.0181C72.7475 24.338 72.9495 24.7811 72.9657 25.25C72.982 25.7189 72.8112 26.175 72.491 26.5178C72.1711 26.861 71.7279 27.0629 71.2591 27.0792C70.7902 27.0954 70.3341 26.9247 69.9913 26.6045L64.2174 21.2143H63.6517V26.5178C63.6517 27.4942 62.8602 28.2857 61.8839 28.2857C60.9075 28.2857 60.116 27.4942 60.116 26.5178V21.2143H59.5503L53.7765 26.6045C53.4336 26.9247 52.9775 27.0954 52.5086 27.0792C52.0398 27.0629 51.5966 26.861 51.2767 26.5178C50.9563 26.1752 50.7852 25.7192 50.8011 25.2504C50.817 24.7815 51.0187 24.3382 51.3616 24.0181L54.6268 20.9721C53.6818 20.7883 52.7644 20.4835 51.8972 20.0652C47.5017 22.5419 43.5387 25.7179 40.164 29.4684C40.1498 29.4825 40.1374 29.4984 40.1233 29.5143C38.8324 30.9246 37.6179 32.4028 36.4851 33.9428C35.8994 34.7049 34.8122 34.8594 34.0374 34.2908C33.2626 33.7222 33.084 32.6387 33.6353 31.8515C34.7897 30.2781 35.9618 28.8585 37.125 27.5556V15.4988C34.1178 17.0286 30.7743 17.7782 27.4018 17.6785C24.0296 17.7793 20.6861 17.031 17.6786 15.5023V28.3087C24.7907 28.5367 30.0536 31.4908 30.0536 35.3571V62.0076C30.9347 61.9186 31.8198 61.8744 32.7054 61.875C40.263 61.875 45.9643 64.9157 45.9643 68.9464V88.3928H78.1216C79.969 88.3928 89.466 88.0393 94.9375 81.1446C99.2157 75.735 100.117 67.6046 97.6158 56.9762ZM70.7143 56.5714C70.7143 60.4768 67.5483 63.6428 63.6429 63.6428V65.4107C63.6429 66.3871 62.8514 67.1785 61.875 67.1785C60.8987 67.1785 60.1072 66.3871 60.1072 65.4107V63.6428C56.2017 63.6428 53.0357 60.4768 53.0357 56.5714C53.0357 55.595 53.8272 54.8035 54.8036 54.8035C55.78 54.8035 56.5714 55.595 56.5714 56.5714C56.5714 58.5241 58.1544 60.1071 60.1072 60.1071V53.0357C56.2017 53.0357 53.0357 49.8697 53.0357 45.9643C53.0357 42.0588 56.2017 38.8928 60.1072 38.8928V37.125C60.1072 36.1486 60.8987 35.3571 61.875 35.3571C62.8514 35.3571 63.6429 36.1486 63.6429 37.125V38.8928C67.5483 38.8928 70.7143 42.0588 70.7143 45.9643C70.7143 46.9406 69.9228 47.7321 68.9464 47.7321C67.9701 47.7321 67.1786 46.9406 67.1786 45.9643C67.1786 44.0115 65.5956 42.4285 63.6429 42.4285V49.5C67.5483 49.5 70.7143 52.666 70.7143 56.5714ZM92.1673 78.9401C87.7052 84.5725 79.6844 84.8571 78.1216 84.8571C77.1453 84.8571 76.3538 84.0656 76.3538 83.0893C76.3538 82.1129 77.1453 81.3214 78.1216 81.3214C79.3998 81.3214 85.9444 81.1004 89.3935 76.7444C91.0245 74.4399 91.8942 71.6831 91.8809 68.8598C91.9397 67.8901 92.7609 67.1442 93.7318 67.1785C94.2002 67.201 94.6405 67.4086 94.9558 67.7558C95.2712 68.1029 95.4356 68.5611 95.413 69.0295C95.3981 72.5918 94.2625 76.0591 92.1673 78.9401Z" fill="#F28907"/>
<path d="M56.5714 45.9643C56.5714 47.917 58.1544 49.5 60.1072 49.5V42.4286C58.1544 42.4286 56.5714 44.0116 56.5714 45.9643Z" fill="#F28907"/>
<path d="M63.6429 60.1072C65.5956 60.1072 67.1786 58.5242 67.1786 56.5715C67.1786 54.6188 65.5956 53.0358 63.6429 53.0358V60.1072Z" fill="#F28907"/>
<path d="M22.9821 73.8417V91.9286C22.9821 93.3429 26.8591 95.4643 32.7054 95.4643C38.5517 95.4643 42.4286 93.3429 42.4286 91.9286V73.8417C39.421 75.3703 36.0776 76.1186 32.7054 76.0179C29.3331 76.1186 25.9897 75.3703 22.9821 73.8417Z" fill="#F28907"/>
<path d="M32.7054 72.4822C38.0753 72.4822 42.4286 70.8992 42.4286 68.9465C42.4286 66.9938 38.0753 65.4108 32.7054 65.4108C27.3354 65.4108 22.9821 66.9938 22.9821 68.9465C22.9821 70.8992 27.3354 72.4822 32.7054 72.4822Z" fill="#F28907"/>
<path d="M84.3268 12.375C84.3268 15.2743 81.18 17.6432 77.2554 17.6786C76.5955 17.6799 75.9374 17.6088 75.293 17.4665C75.199 17.5851 75.0854 17.6867 74.9572 17.767C75.24 17.9438 75.5582 18.1382 75.8941 18.3327C76.9725 19.0399 78.2277 19.9061 79.6066 20.9845C79.748 21.0906 79.8718 21.1966 80.0132 21.3204C88.8171 21.9745 91.6104 25.6516 91.6988 25.7577C92.032 26.2382 92.5814 26.5228 93.1661 26.5179C93.5137 26.522 93.8538 26.4169 94.1384 26.2174C94.945 25.6778 95.166 24.589 94.6334 23.7777C94.492 23.5656 92.0523 20.0652 84.9279 18.4565C86.7466 16.9546 87.8185 14.7333 87.8625 12.375C87.6206 8.45147 84.8919 5.12435 81.0916 4.11914C81.0886 4.23771 81.0768 4.35589 81.0563 4.47271C80.9202 5.5504 80.7195 6.61893 80.4552 7.67253C82.5909 8.29333 84.1276 10.1599 84.3268 12.375Z" fill="#F28907"/>
</g>
<defs>
<clipPath id="clip0_137_517">
<rect width="99" height="99" fill="white"/>
</clipPath>
</defs>
</svg>
