<svg width="98" height="98" viewBox="0 0 98 98" fill="none" xmlns="http://www.w3.org/2000/svg">
<g clip-path="url(#clip0_137_532)">
<path d="M10.9944 55.4159C13.8425 57.2687 16.9586 58.0573 19.3244 57.5214C19.3796 57.509 19.4315 57.4849 19.4764 57.4505C19.5214 57.4161 19.5583 57.3724 19.5847 57.3223C19.6077 57.2746 19.6197 57.2222 19.6197 57.1692C19.6197 57.1162 19.6077 57.0638 19.5847 57.0161C18.6047 54.344 14.8455 45.4475 7.44187 43.2348C7.40395 43.2274 7.36495 43.2274 7.32703 43.2348C7.25102 43.233 7.1762 43.2539 7.11211 43.2948C7.04803 43.3358 6.99757 43.3948 6.96718 43.4645C6.1106 45.5087 5.89695 47.7654 6.35468 49.934C6.72984 51.6873 8.50609 53.8004 10.9944 55.4159Z" fill="#F28907"/>
<path d="M20.2355 68.9062C17.2725 66.6094 12.0969 64.7565 10.5962 64.7565C10.5023 64.7426 10.4069 64.7426 10.313 64.7565C8.59031 65.3231 7.77109 68.332 8.08499 69.6336C8.34531 70.7208 13.2759 74.748 21.4375 73.8905C21.67 73.8633 21.8923 73.7792 22.0846 73.6457C22.2769 73.5121 22.4333 73.3332 22.54 73.1248C22.6493 72.9157 22.7064 72.6832 22.7064 72.4473C22.7064 72.2113 22.6493 71.9788 22.54 71.7697C22.0011 70.6514 21.2127 69.6717 20.2355 68.9062Z" fill="#F28907"/>
<path d="M72.8339 36.0686C75.4298 36.1066 78.015 35.7266 80.4902 34.9431C77.3281 26.1843 73.8522 22.3409 71.6089 21.6672C63.8378 19.3703 49.1531 19.3243 49.0077 19.3243C48.8622 19.3243 34.1775 19.3243 26.3988 21.6672C24.1555 22.3409 20.6795 26.1843 17.5175 34.9431C19.9927 35.7266 22.5778 36.1066 25.1738 36.0686H72.8339Z" fill="#F28907"/>
<path d="M42.2778 48.5329V43.8932L24.6684 43.0817C28.9406 46.8715 39.2766 48.2343 42.2778 48.5329Z" fill="#F28907"/>
<path d="M10.6345 33.32L10.9791 33.6492L11.5073 33.4119C11.6298 33.0903 11.76 32.7458 11.9055 32.3783L9.54735 28.7569C9.50963 28.697 9.46045 28.6453 9.40263 28.6045C9.34482 28.5638 9.27951 28.5349 9.21047 28.5195L2.09016 26.9883C2.00993 26.9704 1.92663 26.9714 1.84689 26.9914C1.76714 27.0113 1.69314 27.0496 1.63079 27.1031C1.56719 27.153 1.51609 27.2171 1.48154 27.2902C1.44699 27.3633 1.42993 27.4434 1.43172 27.5242V31.1074C1.43198 31.2367 1.47839 31.3618 1.56259 31.46C1.64679 31.5583 1.76327 31.6232 1.8911 31.6433L9.54735 32.7764C9.95559 32.8459 10.334 33.0351 10.6345 33.32Z" fill="#F28907"/>
<path d="M68.1406 65.1547H29.8594C29.5737 65.1482 29.2919 65.2217 29.0458 65.3671C28.7998 65.5124 28.5993 65.7236 28.467 65.977C28.3348 66.2303 28.2761 66.5155 28.2975 66.8005C28.319 67.0855 28.4198 67.3587 28.5884 67.5894L32.9219 73.7833C33.0632 73.9897 33.2529 74.1583 33.4745 74.2744C33.696 74.3905 33.9427 74.4506 34.1928 74.4494H63.7995C64.051 74.4519 64.2991 74.3924 64.5221 74.2762C64.7451 74.1601 64.9361 73.9908 65.0781 73.7833L69.3962 67.5894C69.5641 67.3598 69.6646 67.0879 69.6867 66.8044C69.7087 66.5208 69.6513 66.2367 69.5209 65.984C69.3906 65.7312 69.1924 65.5197 68.9486 65.3732C68.7048 65.2268 68.425 65.1511 68.1406 65.1547Z" fill="#F28907"/>
<path d="M91.2625 77.91L83.0856 79.1504V80.4749C83.0856 81.1267 83.3446 81.7518 83.8055 82.2127C84.2664 82.6736 84.8915 82.9325 85.5433 82.9325H94.0111C94.6616 82.9305 95.2847 82.6707 95.744 82.21C96.2032 81.7493 96.4611 81.1254 96.4611 80.4749V71.6243C96.0297 72.8608 95.5182 74.0679 94.9298 75.238C94.5751 75.943 94.0574 76.5531 93.4195 77.0179C92.7817 77.4826 92.0422 77.7884 91.2625 77.91Z" fill="#F28907"/>
<path d="M3.0625 75.2379C2.47416 74.0626 1.96267 72.8504 1.53125 71.6089V80.4748C1.53125 81.1266 1.79018 81.7518 2.25108 82.2127C2.71198 82.6736 3.3371 82.9325 3.98891 82.9325H12.4567C13.1085 82.9325 13.7336 82.6736 14.1945 82.2127C14.6554 81.7518 14.9144 81.1266 14.9144 80.4748V79.1503L6.7375 77.91C5.95639 77.7895 5.21537 77.4842 4.57613 77.0194C3.93689 76.5546 3.41795 75.9439 3.0625 75.2379Z" fill="#F28907"/>
<path d="M87.0209 33.6416L87.3655 33.32C87.6751 33.0251 88.0681 32.8326 88.4909 32.7688L96.1012 31.6357C96.2319 31.619 96.352 31.5554 96.4393 31.4569C96.5266 31.3583 96.5751 31.2314 96.5759 31.0997V27.5166C96.5757 27.4353 96.5569 27.3552 96.5211 27.2822C96.4853 27.2093 96.4333 27.1454 96.3692 27.0955C96.3057 27.0439 96.2317 27.0069 96.1523 26.987C96.0729 26.9672 95.9901 26.965 95.9098 26.9807L88.7972 28.5119C88.7283 28.5251 88.6629 28.5523 88.6049 28.5918C88.547 28.6313 88.4978 28.6823 88.4603 28.7416L86.0945 32.3707C86.24 32.7382 86.3702 33.0827 86.4927 33.4042L87.0209 33.6416Z" fill="#F28907"/>
<path d="M87.687 64.7489C87.5931 64.7349 87.4977 64.7349 87.4038 64.7489C85.8725 64.7489 80.7275 66.6017 77.7645 68.8985C76.765 69.6793 75.9626 70.6837 75.4217 71.8309C75.3175 72.0432 75.2671 72.2779 75.2751 72.5142C75.2831 72.7506 75.3493 72.9813 75.4677 73.186C75.572 73.3947 75.7268 73.5741 75.9179 73.7078C76.1091 73.8415 76.3307 73.9253 76.5625 73.9517C84.7241 74.8015 89.6547 70.782 89.915 69.6948C90.2289 68.3243 89.402 65.3154 87.687 64.7489Z" fill="#F28907"/>
<path d="M98 47.0247C97.9789 46.4825 97.8181 45.9551 97.533 45.4934L93.0694 38.3884C92.8344 38.0117 92.5202 37.6906 92.1487 37.4473C91.7772 37.2041 91.3573 37.0445 90.918 36.9797L90.7189 36.9261L85.3136 34.5833L85.1988 34.2694C83.8742 30.6556 79.0738 18.7195 72.497 17.1194C64.3125 15.0981 49.1531 15.0675 49 15.0675C48.8469 15.0675 33.6875 15.0675 25.5336 17.0964C18.9798 18.6966 14.1564 30.625 12.8319 34.2464L12.717 34.5603L7.11266 36.9567C6.67337 37.0215 6.25342 37.1811 5.88193 37.4243C5.51044 37.6676 5.19629 37.9887 4.96126 38.3655L0.497664 45.4705C0.212582 45.9321 0.0516982 46.4596 0.0306324 47.0017C-0.336868 62.6281 2.61845 70.9581 4.41001 74.5642C4.65852 75.0525 5.02038 75.4741 5.46528 75.7938C5.91018 76.1135 6.42519 76.3219 6.9672 76.4017L25.4417 79.2116C25.6701 79.2421 25.9003 79.2575 26.1308 79.2575H71.8692C72.0997 79.2575 72.3299 79.2421 72.5583 79.2116L91.0328 76.4017C91.5748 76.3219 92.0898 76.1135 92.5347 75.7938C92.9796 75.4741 93.3415 75.0525 93.59 74.5642C95.3816 70.9888 98.3369 62.6588 97.9694 47.0017L98 47.0247ZM15.8102 35.1498C18.7502 26.728 22.4481 21.2461 25.9547 20.2048C33.9402 17.8161 48.8469 17.7931 49 17.7931C49.1531 17.7931 64.0599 17.7931 72.0453 20.2048C75.4983 21.2308 79.2881 26.8198 82.1898 35.1498C82.2545 35.3378 82.2436 35.5436 82.1593 35.7236C82.075 35.9037 81.9239 36.0438 81.7381 36.1145C78.8874 37.1557 75.8683 37.6593 72.8339 37.5998H25.1661C22.1296 37.6545 19.1089 37.151 16.2542 36.1145C16.0698 36.0424 15.9206 35.9016 15.8377 35.7217C15.7549 35.5418 15.7451 35.3369 15.8102 35.1498ZM4.87704 50.202C4.35906 47.7241 4.60741 45.1472 5.58907 42.8138C5.77799 42.3879 6.11462 42.0448 6.5368 41.8477C6.95899 41.6507 7.4382 41.6131 7.88595 41.7419C15.7719 44.123 19.7148 52.8281 21.047 56.4878C21.1408 56.7441 21.1786 57.0175 21.158 57.2896C21.1374 57.5618 21.0588 57.8263 20.9276 58.0656C20.7964 58.3049 20.6155 58.5134 20.3971 58.677C20.1786 58.8406 19.9278 58.9557 19.6613 59.0144C19.0476 59.1481 18.4212 59.2149 17.7931 59.2134C15.0549 59.1173 12.4001 58.2465 10.1369 56.7022C7.28876 54.8417 5.31345 52.407 4.87704 50.202ZM23.8722 73.9364C23.6434 74.3597 23.3145 74.7206 22.9141 74.9875C22.5137 75.2545 22.0541 75.4193 21.5753 75.4677C20.7744 75.5552 19.9693 75.5986 19.1636 75.5978C11.7217 75.5978 7.01313 71.8845 6.56907 70.0394C6.12501 68.1942 7.07438 64.2589 9.80766 63.3555C11.7447 62.72 18.1224 65.3691 21.1466 67.7195C22.3384 68.6435 23.2936 69.8375 23.9334 71.2031C24.1365 71.6253 24.2368 72.0896 24.2261 72.558C24.2155 73.0264 24.0942 73.4856 23.8722 73.8981V73.9364ZM22.295 42.653C22.2205 42.5321 22.181 42.393 22.181 42.251C22.181 42.1091 22.2205 41.9699 22.295 41.8491C22.365 41.7276 22.4669 41.6277 22.5898 41.5602C22.7126 41.4926 22.8517 41.4602 22.9917 41.4663L43.097 42.4003C43.3001 42.4003 43.4948 42.481 43.6384 42.6246C43.782 42.7681 43.8627 42.9629 43.8627 43.1659V49.3828C43.8627 49.5859 43.782 49.7806 43.6384 49.9242C43.4948 50.0678 43.3001 50.1484 43.097 50.1484H43.0358C42.3008 50.0795 26.3145 48.778 22.295 42.653ZM70.6442 68.4622L66.3338 74.6561C66.0487 75.0641 65.6695 75.3974 65.2284 75.6279C64.7874 75.8585 64.2972 75.9794 63.7995 75.9806H34.2005C33.7028 75.9794 33.2127 75.8585 32.7716 75.6279C32.3305 75.3974 31.9514 75.0641 31.6663 74.6561L27.3558 68.4622C27.0292 68.0035 26.8354 67.4637 26.7957 66.9021C26.7559 66.3404 26.8718 65.7787 27.1306 65.2786C27.3893 64.7785 27.7809 64.3594 28.2623 64.0674C28.7437 63.7754 29.2963 63.6218 29.8594 63.6234H68.1406C68.7056 63.6176 69.2612 63.7681 69.746 64.0584C70.2307 64.3487 70.6257 64.7674 70.8873 65.2683C71.1488 65.7691 71.2666 66.3326 71.2278 66.8963C71.189 67.46 70.9949 68.0019 70.6672 68.4622H70.6442ZM55.0178 50.1331H54.9566C54.7658 50.1305 54.5829 50.0568 54.4436 49.9264C54.3652 49.8557 54.3023 49.7696 54.2589 49.6734C54.2154 49.5772 54.1923 49.4731 54.1909 49.3675V43.1583C54.1909 42.9552 54.2716 42.7605 54.4152 42.6169C54.5588 42.4733 54.7535 42.3927 54.9566 42.3927L75.0313 41.4663C75.1713 41.4602 75.3103 41.4926 75.4332 41.5602C75.5561 41.6277 75.658 41.7276 75.728 41.8491C75.8025 41.9699 75.842 42.1091 75.842 42.251C75.842 42.393 75.8025 42.5321 75.728 42.653C71.6855 48.778 55.6992 50.0795 55.0178 50.1331ZM91.408 69.9781C90.9639 71.8233 86.2553 75.5366 78.8134 75.5366C78.0078 75.5374 77.2026 75.4939 76.4017 75.4064C75.9274 75.3534 75.4727 75.1875 75.0757 74.9226C74.6787 74.6577 74.351 74.3015 74.1201 73.8838C73.8891 73.4662 73.7617 72.9992 73.7483 72.5222C73.735 72.0451 73.8363 71.5718 74.0436 71.1419C74.6834 69.7763 75.6386 68.5823 76.8305 67.6583C79.893 65.3078 86.2324 62.6588 88.1694 63.2942C90.9027 64.1977 91.8291 68.1942 91.408 69.9781ZM93.123 50.202C92.6866 52.407 90.7113 54.8417 87.8402 56.7022C85.5769 58.2465 82.9221 59.1173 80.1839 59.2134C79.5558 59.2149 78.9295 59.1481 78.3158 59.0144C78.0493 58.9557 77.7984 58.8406 77.58 58.677C77.3616 58.5134 77.1807 58.3049 77.0495 58.0656C76.9182 57.8263 76.8397 57.5618 76.8191 57.2896C76.7985 57.0175 76.8363 56.7441 76.93 56.4878C78.2622 52.8434 82.2052 44.123 90.0681 41.7419C90.5159 41.6114 90.9958 41.6483 91.4183 41.8455C91.8409 42.0427 92.1774 42.3868 92.365 42.8138C93.3621 45.1424 93.6265 47.7194 93.123 50.202Z" fill="#F28907"/>
<path d="M90.65 43.1966C90.6121 43.1892 90.5731 43.1892 90.5352 43.1966C83.1316 45.4322 79.3723 54.3288 78.3923 56.9779C78.3692 57.0269 78.3571 57.0805 78.3571 57.1348C78.3571 57.1891 78.3692 57.2427 78.3923 57.2918C78.4187 57.3418 78.4557 57.3856 78.5006 57.4199C78.5456 57.4543 78.5974 57.4785 78.6527 57.4908C81.0184 58.0268 84.1345 57.2382 86.9827 55.3854C89.4709 53.7699 91.2472 51.6568 91.5764 49.8652C92.0341 47.6965 91.8205 45.4399 90.9639 43.3957C90.9328 43.3386 90.8877 43.2903 90.8327 43.2555C90.7778 43.2207 90.7149 43.2004 90.65 43.1966Z" fill="#F28907"/>
<path d="M55.7222 48.5329C58.7234 48.2114 69.0594 46.8715 73.3316 43.0817L55.7222 43.8932V48.5329Z" fill="#F28907"/>
</g>
<defs>
<clipPath id="clip0_137_532">
<rect width="98" height="98" fill="white"/>
</clipPath>
</defs>
</svg>
