<svg width="126" height="114" viewBox="0 0 126 114" fill="none" xmlns="http://www.w3.org/2000/svg">
<path d="M44.0996 22.7668V35.0488H56.3816C55.1081 28.8692 50.2793 24.0404 44.0996 22.7668Z" fill="#9B5600"/>
<path d="M37.8 38.1981V22.7668C30.0757 24.3438 24.7059 31.3897 25.2354 39.2559C25.7637 47.1221 32.0276 53.3848 39.8937 53.9131C47.7599 54.4426 54.8047 49.0727 56.3816 41.3485H40.9504C40.114 41.3485 39.3135 41.0174 38.7217 40.4268C38.1311 39.835 37.8 39.0344 37.8 38.1981Z" fill="#9B5600"/>
<path d="M15.7496 94.8981H46.837C45.9476 99.3208 43.2933 103.851 38.7229 108.421C37.8219 109.322 37.5531 110.677 38.0399 111.854C38.5279 113.031 39.6757 113.798 40.9504 113.798H85.05C86.3235 113.798 87.4725 113.031 87.9604 111.854C88.4473 110.677 88.1785 109.322 87.2775 108.421C82.7071 103.851 80.0528 99.3208 79.1634 94.8981H110.25C117.73 94.8888 124.177 89.6263 125.682 82.2988H0.31839C1.82379 89.6263 8.26876 94.8888 15.7496 94.8981Z" fill="white"/>
<path d="M110.25 0.398071H15.7496C7.0552 0.4073 0.00922852 7.45327 0 16.1488V75.9981H126V16.1488C125.991 7.45327 118.945 0.4073 110.25 0.398071ZM40.9504 60.2485C28.7722 60.2485 18.9 50.3763 18.9 38.1981C18.9 26.021 28.7722 16.1488 40.9504 16.1488C53.1274 16.1488 62.9996 26.021 62.9996 38.1981C62.9858 50.3705 53.1216 60.2335 40.9504 60.2485ZM81.8996 53.9488C81.8996 55.6884 80.49 57.0981 78.7504 57.0981C77.0108 57.0981 75.6 55.6884 75.6 53.9488V41.3485C75.6 39.6089 77.0108 38.1981 78.7504 38.1981C80.49 38.1981 81.8996 39.6089 81.8996 41.3485V53.9488ZM94.5 53.9488C94.5 55.6884 93.0892 57.0981 91.3496 57.0981C89.61 57.0981 88.2004 55.6884 88.2004 53.9488V31.8985C88.2004 30.1589 89.61 28.7481 91.3496 28.7481C93.0892 28.7481 94.5 30.1589 94.5 31.8985V53.9488ZM107.1 53.9488C107.1 55.6884 105.69 57.0981 103.95 57.0981C102.21 57.0981 100.8 55.6884 100.8 53.9488V22.4485C100.8 20.7089 102.21 19.2981 103.95 19.2981C105.69 19.2981 107.1 20.7089 107.1 22.4485V53.9488Z" fill="white"/>
</svg>
