<svg width="90" height="90" viewBox="0 0 90 90" fill="none" xmlns="http://www.w3.org/2000/svg">
<g clip-path="url(#clip0_137_552)">
<path d="M81.5625 64.9688C81.1406 64.5469 80.5781 64.4063 80.1562 64.4063C79.7344 64.4063 79.0312 64.5469 78.75 64.9688L77.7656 65.9531L78.3281 71.4375L81.5625 68.0625C82.4062 67.2188 82.4062 65.8125 81.5625 64.9688ZM76.6406 82.4063L73.4062 55.2656V55.125L72.4219 46.125L71.1562 37.5469C71.0156 36.2813 69.6094 35.8594 68.625 36.7031L53.4375 50.625C52.875 51.1875 52.7344 51.8906 53.1562 52.5938C59.0625 61.7344 67.2188 76.7813 72.2813 89.0156C72.4219 89.1563 72.4219 89.2969 72.5625 89.4375C72.9844 89.8594 73.6875 90 74.25 89.4375C76.0781 87.6094 76.9219 85.0781 76.6406 82.4063ZM37.6875 83.3906L33.8906 70.3125C33.6094 69.4688 32.625 69.0469 31.7813 69.3281C30.375 70.0313 28.6875 70.5938 27 70.875C26.0156 71.0156 25.4531 72.2813 26.0156 73.125L34.1719 85.3594C34.7344 86.2031 35.8594 86.2031 36.4219 85.6406L37.125 84.9375C37.6875 84.375 37.8281 83.8125 37.6875 83.3906ZM26.7188 62.2969C26.5781 62.1563 26.2969 62.0156 26.0156 62.0156C25.7344 62.0156 25.4531 62.1563 25.3125 62.2969L16.875 70.875C16.4531 71.2969 16.4531 71.8594 16.875 72.1406C17.1563 72.5625 17.8594 72.5625 18.1406 72.1406L26.7188 63.5625C27.1406 63.2813 27.1406 62.5781 26.7188 62.2969ZM18.8438 55.5469L6.60938 52.5938C6.04688 52.4531 5.625 52.5938 5.20313 53.0156L4.35938 53.8594C3.65625 54.5625 3.79688 55.6875 4.5 56.1094L15.75 63.7031C16.7344 64.2656 17.8594 63.8438 18.1406 62.7188C18.4219 61.0313 19.125 59.2031 19.8281 57.6563C20.25 56.8125 19.8281 55.8281 18.8438 55.5469ZM51.6094 19.4063L43.4531 18.1406L34.4531 17.1563L7.3125 13.9219C4.78125 13.6406 2.25 14.4844 0.421878 16.3125C-0.140622 16.875 2.99141e-06 17.5781 0.421878 18C0.562503 18.1406 0.562503 18.1406 0.843753 18.2813C12.2344 22.9219 26.8594 31.0781 36.4219 37.2656C36.9844 37.6875 37.8281 37.5469 38.25 36.9844L52.4531 21.9375C53.2969 21.0938 52.7344 19.6875 51.6094 19.4063ZM24.75 8.85939C23.9063 8.01564 22.5 8.01564 21.6563 8.85939L18.2813 12.0938L23.625 12.6563L24.6094 11.6719C25.0313 11.25 25.1719 10.6875 25.1719 10.2656C25.3125 9.84376 25.1719 9.28126 24.75 8.85939ZM43.5938 11.6719C42.75 10.8281 41.3438 10.8281 40.5 11.6719L37.6875 14.3438L43.0313 14.9063L43.4531 14.4844C44.4375 13.7813 44.4375 12.5156 43.5938 11.6719ZM88.875 1.40626C85.7812 -1.68749 75.6562 2.10939 70.5938 7.03126L24.3281 56.1094C23.3438 57.0938 22.0781 59.4844 21.5156 62.0156L23.3438 60.1875C24.8906 58.6406 27.4219 58.6406 28.9688 60.1875C30.5156 61.7344 30.5156 64.2656 28.9688 65.8125L26.7188 67.7813C29.3906 67.2188 32.0625 65.8125 33.1875 64.8281L83.1094 19.2656C86.9062 15.6094 90 9.14064 90 4.78126C90 3.23439 89.5781 2.10939 88.875 1.40626ZM82.4062 13.5C82.2656 13.5 82.2656 13.5 82.4062 13.5C81.5625 13.5 80.8594 12.9375 80.7188 12.2344C80.5781 11.6719 80.1562 9.98439 78.0469 9.84376H77.625C76.7812 9.84376 76.0781 9.14064 76.2188 8.29689C76.3594 7.45314 76.9219 6.75001 77.7656 6.75001H78.1875C81.1406 6.89064 83.25 8.85939 83.6719 11.8125C83.8125 12.6563 83.1094 13.3594 82.4062 13.5ZM78.8906 46.125C78.4688 45.7031 77.9062 45.5625 77.4844 45.5625C77.0625 45.5625 76.3594 45.8438 76.0781 46.125L75.6562 46.5469L76.2188 51.8906L78.8906 49.0781C79.5938 48.375 79.5938 46.9688 78.8906 46.125Z" fill="#F28907"/>
</g>
<defs>
<clipPath id="clip0_137_552">
<rect width="90" height="90" fill="white"/>
</clipPath>
</defs>
</svg>
