<svg width="97" height="93" viewBox="0 0 97 93" fill="none" xmlns="http://www.w3.org/2000/svg">
<path d="M7.62436 86.327C5.89064 86.327 4.48013 87.7373 4.48013 89.4712C4.48013 91.2051 5.89064 92.6154 7.62436 92.6154C9.35809 92.6154 10.7686 91.2051 10.7686 89.4712C10.7686 87.7373 9.3583 86.327 7.62436 86.327Z" fill="#B06100"/>
<path d="M22.2974 49.6442C22.2974 54.6312 23.6985 59.2968 26.1267 63.2692H35.9224C36.5014 63.2692 36.9705 63.7384 36.9705 64.3173C36.9705 64.8963 36.5014 65.3654 35.9224 65.3654H27.551C38.0632 79.3373 58.9361 79.3365 69.4475 65.3654H61.0763C60.4973 65.3654 60.0282 64.8963 60.0282 64.3173C60.0282 63.7384 60.4973 63.2692 61.0763 63.2692H70.872C73.3002 59.2968 74.7013 54.6312 74.7013 49.6442C74.7013 35.1963 62.9471 23.4423 48.4993 23.4423C34.0516 23.4423 22.2974 35.1963 22.2974 49.6442ZM33.2846 36.0192H63.7141C64.0754 36.0192 64.4113 36.2056 64.6028 36.5118C70.0577 45.2455 69.8573 44.8633 69.9053 45.1478C69.9088 45.1687 69.9189 45.2805 69.9191 45.2889C69.9204 45.3322 69.9137 45.4249 69.9111 45.4459C69.8963 45.5649 69.8807 45.5962 69.8717 45.6251C69.8434 45.7184 69.851 45.694 69.8179 45.7647C69.7393 45.932 70.7743 44.569 49.2244 72.1693C48.824 72.7753 47.9481 72.7969 47.5139 72.2322C26.4474 44.8543 27.0614 45.8253 27.08 45.2857C27.0804 45.2738 27.0903 45.1681 27.0941 45.1453C27.1427 44.861 26.9381 45.249 32.3959 36.5116C32.5874 36.2056 32.9232 36.0192 33.2846 36.0192Z" fill="#B06100"/>
<path d="M88.8503 13.4856C91.7399 13.4856 94.0907 11.1348 94.0907 8.24521C94.0907 5.35566 91.7399 3.00482 88.8503 3.00482C85.9608 3.00482 83.61 5.35566 83.61 8.24521C83.61 11.1348 85.9608 13.4856 88.8503 13.4856Z" fill="#FF9615"/>
<path d="M42.0111 38.1154H33.8657L30.018 44.2712H38.3609L42.0111 38.1154Z" fill="#FF9615"/>
<path d="M56.2008 44.2712L52.5506 38.1154H44.4479L40.7977 44.2712H56.2008Z" fill="#FF9615"/>
<path d="M30.2559 46.3674L45.1323 65.6998L38.2194 46.3674H30.2559Z" fill="#FF9615"/>
<path d="M66.9807 44.2712L63.1332 38.1154H54.9876L58.6378 44.2712H66.9807Z" fill="#FF9615"/>
<path d="M40.4455 46.3674L48.3677 68.5225L56.5373 46.3674H40.4455Z" fill="#FF9615"/>
<path d="M51.6641 65.6419L66.7229 46.3674H58.7713L51.6641 65.6419Z" fill="#FF9615"/>
<path d="M69.75 19.8137C69.5271 18.6551 70.3624 17.4983 71.5925 17.3668C69.7311 11.1849 64.2209 6.58946 58.3632 7.07137C59.2426 13.8208 64.2415 18.9805 69.75 19.8137Z" fill="#FF9615"/>
<path d="M27.2508 19.8131C32.6929 18.9885 37.7431 13.8873 38.638 7.07119C33.1513 6.61989 27.3913 10.7854 25.4064 17.3652C26.5729 17.4889 27.4621 18.5577 27.2508 19.8131Z" fill="#FF9615"/>
<path d="M89.4465 42.7217C89.7519 44.1138 88.599 45.4161 87.164 45.2522C85.3483 48.0568 84.6997 51.2126 85.3361 54.1011C85.6201 54.0244 85.9006 53.937 86.1794 53.8447C86.4035 52.3531 88.0963 51.5769 89.3706 52.3835C94.2865 49.4428 97.359 43.9597 96.2087 38.7332C93.6484 39.4261 91.2963 40.7589 89.4079 42.5557C89.4205 42.611 89.4343 42.6664 89.4465 42.7217Z" fill="#FF9615"/>
<path d="M78.7158 27.0236C78.1088 31.2776 79.3122 35.7487 82.5935 38.4865C82.874 38.1159 83.1372 37.7337 83.3831 37.3417C83.3416 37.2411 83.3016 37.1397 83.2592 37.0395C82.7226 35.7715 83.5374 34.3227 84.9219 34.1445C86.7296 29.0028 85.8082 23.0393 81.7802 19.6772C80.8646 20.8888 80.1334 22.2249 79.5987 23.6277C80.6367 24.8141 80.1091 26.5539 78.7158 27.0236Z" fill="#FF9615"/>
<path d="M13.7397 37.039C13.6971 37.1394 13.6571 37.2411 13.6156 37.3417C13.8615 37.7337 14.1247 38.1158 14.4052 38.4864C17.6827 35.7522 18.8905 31.2867 18.2837 27.0221C16.8923 26.5536 16.3638 24.8126 17.4016 23.6266C16.8671 22.2236 16.136 20.8881 15.2202 19.6776C11.1882 23.0478 10.2768 29.0177 12.0776 34.1448C13.4653 34.3239 14.2748 35.7748 13.7397 37.039Z" fill="#FF9615"/>
<path d="M15.3938 69.8812C16.0241 69.7919 16.6475 69.6669 17.261 69.5026C16.3389 66.6162 14.1134 64.1633 11.0258 62.6547C9.84356 63.5585 8.09453 62.9775 7.72267 61.5012C5.20016 60.9373 2.58688 61.0077 0.147797 61.66C1.68847 66.4818 6.57481 69.5699 11.889 69.9879C12.6671 68.7056 14.519 68.6279 15.3938 69.8812Z" fill="#FF9615"/>
<path d="M96.8522 61.66C94.4755 61.0236 91.8602 60.9239 89.2756 61.5018C88.9033 62.9827 87.152 63.5566 85.9729 62.6544C82.8855 64.1631 80.6596 66.6162 79.7377 69.5026C80.351 69.6665 80.9744 69.7916 81.605 69.8812C82.4856 68.6182 84.3394 68.7161 85.111 69.9878C90.4054 69.5716 95.314 66.495 96.8522 61.66Z" fill="#FF9615"/>
<path d="M77.0096 77.9363C72.6272 77.1678 68.0508 78.3507 65.2508 81.5955C66.3008 82.4153 67.4543 83.0985 68.6692 83.6313C68.7417 83.5854 68.8143 83.5405 68.8864 83.4944C70.0661 82.7354 71.6491 83.3278 72.0352 84.6817C76.9796 85.6405 81.4815 84.0811 84.069 81.0774C82.9392 80.1951 81.6893 79.4728 80.3722 78.924C79.2139 79.9134 77.4401 79.3707 77.0096 77.9363Z" fill="#FF9615"/>
<path d="M28.1122 83.4942C28.1832 83.5399 28.2551 83.5841 28.3266 83.6294C29.543 83.097 30.6982 82.4151 31.7488 81.5949C28.9609 78.3586 24.4049 77.1674 19.99 77.9421C19.5573 79.3753 17.7829 79.9112 16.6275 78.925C15.3101 79.4729 14.0598 80.1953 12.9297 81.0773C15.8222 84.435 20.5534 85.5377 24.9631 84.6821C25.3519 83.3192 26.941 82.7408 28.1122 83.4942Z" fill="#FF9615"/>
<path d="M7.6294 52.382C8.89589 51.5794 10.5957 52.3378 10.8195 53.8441C11.0983 53.9363 11.3788 54.0238 11.6628 54.1007C12.3005 51.2084 11.6517 48.0526 9.83434 45.2509C8.40896 45.4138 7.24475 44.1238 7.55268 42.7202C7.56504 42.6647 7.57888 42.6096 7.59124 42.5538C5.70429 40.7576 3.35219 39.4255 0.790065 38.7327C-0.370575 44.0113 2.76024 49.4684 7.6294 52.382Z" fill="#FF9615"/>
<path d="M94.0907 26.5866C94.959 26.5866 95.6628 25.8827 95.6628 25.0144C95.6628 24.1462 94.959 23.4423 94.0907 23.4423C93.2224 23.4423 92.5186 24.1462 92.5186 25.0144C92.5186 25.8827 93.2224 26.5866 94.0907 26.5866Z" fill="#FF9615"/>
<path d="M74.1772 5.625C75.0455 5.625 75.7494 4.92114 75.7494 4.05289C75.7494 3.18463 75.0455 2.48077 74.1772 2.48077C73.309 2.48077 72.6051 3.18463 72.6051 4.05289C72.6051 4.92114 73.309 5.625 74.1772 5.625Z" fill="#B06100"/>
<path d="M22.8215 3.52887C23.6897 3.52887 24.3936 2.82501 24.3936 1.95676C24.3936 1.0885 23.6897 0.384644 22.8215 0.384644C21.9532 0.384644 21.2494 1.0885 21.2494 1.95676C21.2494 2.82501 21.9532 3.52887 22.8215 3.52887Z" fill="#B06100"/>
<path d="M5.00415 20.2981C5.87241 20.2981 6.57627 19.5942 6.57627 18.726C6.57627 17.8577 5.87241 17.1539 5.00415 17.1539C4.1359 17.1539 3.43204 17.8577 3.43204 18.726C3.43204 19.5942 4.1359 20.2981 5.00415 20.2981Z" fill="#B06100"/>
<path d="M20.7253 92.6154C21.5936 92.6154 22.2974 91.9116 22.2974 91.0433C22.2974 90.1751 21.5936 89.4712 20.7253 89.4712C19.8571 89.4712 19.1532 90.1751 19.1532 91.0433C19.1532 91.9116 19.8571 92.6154 20.7253 92.6154Z" fill="#B06100"/>
<path d="M93.0426 80.0385C93.9109 80.0385 94.6148 79.3347 94.6148 78.4664C94.6148 77.5981 93.9109 76.8943 93.0426 76.8943C92.1744 76.8943 91.4705 77.5981 91.4705 78.4664C91.4705 79.3347 92.1744 80.0385 93.0426 80.0385Z" fill="#B06100"/>
<path d="M79.4176 92.6154C80.2859 92.6154 80.9898 91.9116 80.9898 91.0433C80.9898 90.1751 80.2859 89.4712 79.4176 89.4712C78.5494 89.4712 77.8455 90.1751 77.8455 91.0433C77.8455 91.9116 78.5494 92.6154 79.4176 92.6154Z" fill="#FF9615"/>
<path d="M87.6236 44.1944C88.189 44.0704 88.5468 43.5115 88.4229 42.9462C87.8861 40.4991 87.1231 38.0995 86.1551 35.8134C85.9291 35.2803 85.3137 35.0311 84.781 35.2571C84.2482 35.4828 83.999 36.098 84.2247 36.6311C85.1426 38.7985 85.8662 41.0743 86.3756 43.3956C86.4999 43.9632 87.0608 44.3179 87.6236 44.1944Z" fill="#FF9615"/>
<path d="M87.205 54.0929C87.0705 56.3377 86.7407 58.5766 86.2244 60.7472C86.0683 61.4043 86.5661 62.038 87.2449 62.038C87.7192 62.038 88.1491 61.7137 88.2636 61.2322C88.808 58.9434 89.1557 56.5836 89.2974 54.2181C89.332 53.6402 88.8916 53.1438 88.3139 53.1092C87.7351 53.0771 87.2398 53.5152 87.205 54.0929Z" fill="#FF9615"/>
<path d="M19.7292 25.7403C21.5512 23.7253 23.5945 21.8939 25.802 20.2977C26.2711 19.9583 26.3763 19.3033 26.0372 18.8341C25.698 18.365 25.0424 18.2602 24.5739 18.5992C22.2478 20.2811 20.0948 22.2108 18.1745 24.3345C17.7863 24.764 17.8198 25.4268 18.2489 25.815C18.6799 26.2046 19.3423 26.1682 19.7292 25.7403Z" fill="#FF9615"/>
<path d="M18.6589 78.1344C19.1023 77.7623 19.1599 77.1012 18.7876 76.6578C17.2021 74.769 15.7906 72.7202 14.5928 70.5681C14.3111 70.0625 13.6728 69.8801 13.1672 70.1619C12.6614 70.4436 12.4797 71.0817 12.761 71.5875C14.0235 73.8555 15.5109 76.015 17.1822 78.0055C17.5555 78.4503 18.2173 78.5054 18.6589 78.1344Z" fill="#FF9615"/>
<path d="M69.4533 84.3756C56.72 92.5682 40.2826 92.5708 27.5454 84.3756C27.0591 84.0629 26.4103 84.2033 26.0969 84.6901C25.7837 85.1768 25.9246 85.8253 26.4113 86.1385C39.8353 94.7755 57.1592 94.7782 70.5874 86.1385C71.0741 85.8253 71.215 85.1768 70.9018 84.6901C70.5884 84.2035 69.9401 84.0623 69.4533 84.3756Z" fill="#FF9615"/>
<path d="M83.8315 70.1621C83.3249 69.8801 82.6874 70.0625 82.4059 70.5683C81.2086 72.7198 79.7977 74.7684 78.2119 76.6572C77.8399 77.1005 77.8973 77.7615 78.3406 78.1337C78.7838 78.5056 79.4451 78.4486 79.8172 78.005C81.4884 76.0145 82.9754 73.8553 84.2375 71.5879C84.519 71.0819 84.3373 70.4436 83.8315 70.1621Z" fill="#FF9615"/>
<path d="M9.60124 44.2175C10.0827 44.2175 10.5164 43.8836 10.624 43.3937C11.1329 41.0741 11.8563 38.7985 12.7746 36.6303C13.0002 36.0972 12.7511 35.4822 12.2183 35.2566C11.685 35.0311 11.07 35.2799 10.8443 35.813C9.87605 38.0995 9.11284 40.4989 8.57664 42.9443C8.43264 43.601 8.93362 44.2175 9.60124 44.2175Z" fill="#FF9615"/>
<path d="M70.9636 18.8356C70.6245 19.3045 70.7297 19.9598 71.1988 20.2987C73.4056 21.895 75.4486 23.7262 77.2707 25.7414C77.4776 25.9703 77.7627 26.0864 78.0486 26.0864C78.95 26.0864 79.4348 25.0092 78.8257 24.3353C76.9054 22.2117 74.7526 20.282 72.4272 18.6004C71.9583 18.2615 71.3028 18.3665 70.9636 18.8356Z" fill="#FF9615"/>
<path d="M8.68501 53.1077C8.1071 53.1423 7.66691 53.6385 7.70129 54.2164C7.84257 56.5821 8.19032 58.9426 8.7349 61.2318C8.84956 61.7135 9.27948 62.0375 9.75363 62.0375C10.4317 62.0375 10.9304 61.4043 10.774 60.7467C10.2575 58.5755 9.92782 56.3364 9.79367 54.0917C9.75929 53.5137 9.26229 53.0733 8.68501 53.1077Z" fill="#FF9615"/>
</svg>
