<svg width="92" height="93" viewBox="0 0 92 93" fill="none" xmlns="http://www.w3.org/2000/svg">
<path d="M44.76 38.4063C49.2301 38.4063 52.8538 34.7826 52.8538 30.3125C52.8538 25.8424 49.2301 22.2188 44.76 22.2188C40.29 22.2188 36.6663 25.8424 36.6663 30.3125C36.6663 34.7826 40.29 38.4063 44.76 38.4063Z" fill="#FF9615"/>
<path d="M84.0725 0.25H65.5725C61.7569 0.25 58.635 3.37188 58.635 7.1875V15.8825L55.9294 21.2938C55.2125 22.7275 55.2819 24.4156 56.1375 25.8031C56.9931 27.1906 58.45 28 60.0687 28H84.0725C87.8881 28 91.01 24.8781 91.01 21.0625V7.1875C91.01 3.37188 87.8881 0.25 84.0725 0.25ZM81.76 18.75H67.885C66.6131 18.75 65.5725 17.7094 65.5725 16.4375C65.5725 15.1656 66.6131 14.125 67.885 14.125H81.76C83.0319 14.125 84.0725 15.1656 84.0725 16.4375C84.0725 17.7094 83.0319 18.75 81.76 18.75ZM81.76 11.8125H67.885C66.6131 11.8125 65.5725 10.7719 65.5725 9.5C65.5725 8.22813 66.6131 7.1875 67.885 7.1875H81.76C83.0319 7.1875 84.0725 8.22813 84.0725 9.5C84.0725 10.7719 83.0319 11.8125 81.76 11.8125Z" fill="#B06100"/>
<path d="M81.76 57.7388V32.625C81.76 31.3531 80.7194 30.3125 79.4475 30.3125C78.1757 30.3125 77.135 31.3531 77.135 32.625V55.75H12.385V18.75C12.385 17.4781 13.4256 16.4375 14.6975 16.4375H54.01C55.2819 16.4375 56.3225 15.3969 56.3225 14.125C56.3225 12.8531 55.2819 11.8125 54.01 11.8125H14.6975C10.8819 11.8125 7.76002 14.9344 7.76002 18.75V57.7388L0.290641 83.9163C-0.310609 86.0206 0.105642 88.2406 1.42377 89.9981C2.74189 91.7556 4.75377 92.75 6.97377 92.75H82.5463C84.7431 92.75 86.755 91.7325 88.0963 89.9981C89.4144 88.2406 89.8307 86.0206 89.2294 83.9163L81.76 57.7388ZM51.6975 83.5H37.8225C36.5506 83.5 35.51 82.4594 35.51 81.1875C35.51 79.9156 36.5506 78.875 37.8225 78.875H51.6975C52.9694 78.875 54.01 79.9156 54.01 81.1875C54.01 82.4594 52.9694 83.5 51.6975 83.5Z" fill="#FF9615"/>
<path d="M34.3538 46.5V53.4375H55.1663V46.5C55.1663 43.3087 52.5763 40.7188 49.385 40.7188H40.135C36.9438 40.7188 34.3538 43.3087 34.3538 46.5Z" fill="#FF9615"/>
</svg>
