<svg id="logo" width="164" height="36" viewBox="0 0 164 36" fill="none" xmlns="http://www.w3.org/2000/svg">
    <g clip-path="url(#clip0)">
        <path d="M0.775 15.5084C0.775 23.6214 7.3851 30.225 15.5103 30.225C23.6194 30.225 30.225 23.6188 30.225 15.5084C30.225 7.38317 23.622 0.775 15.5103 0.775C7.38188 0.775 0.775 7.38058 0.775 15.5084ZM0 15.5084C0 6.9524 6.95433 0 15.5103 0C24.047 0 31 6.9524 31 15.5084C31 24.047 24.047 31 15.5103 31C6.95433 31 0 24.047 0 15.5084Z" fill="#0057B6"/>
        <path fill-rule="evenodd" clip-rule="evenodd" d="M10.6536 5.55321C10.0586 5.81116 9.60568 6.09239 9.15399 6.40571C12.7958 4.78249 17.2424 4.88756 19.6284 5.95335C20.3785 6.30253 20.8823 6.51329 21.111 6.93042C18.6345 6.26604 17.5716 6.14587 15.4984 6.19683C12.5502 6.25031 8.6288 7.41865 7.13048 8.31142L6.47022 9.1331C8.62817 7.85465 12.6557 7.01914 14.8884 6.94804C17.3806 6.9147 19.3142 7.14182 21.0934 7.78733C20.9872 8.24032 20.761 8.46808 20.3778 8.69646C13.2663 7.45577 9.06478 8.92107 5.26466 11.4012L4.98699 12.221C9.2231 9.30674 14.416 8.50457 19.4198 9.37721C17.625 10.0057 15.4808 10.1448 13.6854 10.5613C12.1525 10.9117 11.3327 11.0174 9.29094 11.7C7.21969 12.3808 5.99654 13.0792 5.23074 13.97C4.86448 14.3909 4.58555 14.8785 4.51456 15.4007C4.48252 15.7141 4.49949 15.9959 4.6044 16.2753C4.68858 16.52 4.88082 16.7641 5.0919 17.0089C4.84878 17.4272 4.63581 17.9702 4.98699 18.5994C5.14341 18.8944 5.54422 19.1908 5.92932 19.4733L5.8219 19.7847C5.76975 20.154 5.71887 20.5894 5.96262 20.9549C6.37976 21.6187 6.88548 22.0559 7.68709 22.4756C7.81022 23.0173 8.00057 23.4527 8.41897 23.839C9.30791 24.6581 11.2962 26.2304 14.8331 26.4751C17.4842 26.6513 19.384 25.8466 20.0995 25.4968L20.9702 25.0438C19.4889 25.6365 16.9974 25.9863 14.9556 25.8114C11.9923 25.5666 9.3456 23.6282 9.0139 23.0689C9.11693 23.1381 9.25702 23.1909 9.37701 23.2438C12.8473 24.9205 17.3265 25.8296 23.0622 23.4891L23.5347 23.0343C18.3204 24.6581 13.7557 24.6072 8.85559 22.0396C8.90898 21.7955 9.0139 21.5822 9.2388 21.4117C10.4927 21.9672 11.697 22.4246 13.1614 22.7191C14.8702 23.0343 16.8215 23.1054 18.4259 23.0343C20.048 22.9651 23.2538 22.161 24.771 21.3582C24.9092 21.2368 24.9783 21.0285 25.1178 20.8876C22.157 21.9672 18.6345 22.4756 16.5086 22.317C14.4342 22.161 12.5885 21.9156 10.1466 20.7989C10.6198 20.6102 11.1025 20.4464 11.5928 20.3081C13.196 20.7989 14.8338 21.094 16.7693 21.1827C18.6879 21.2695 23.1665 20.5554 25.9897 18.8441C26.0783 18.5987 26.1644 18.3357 26.1644 18.3357C26.1644 18.3357 22.2424 20.4333 17.7996 20.4333C15.724 20.4333 14.4518 20.1351 13.512 19.9086C15.6014 19.5242 18.235 19.209 21.1958 18.4591C22.6947 18.0734 24.5429 17.1995 25.3804 16.4678C26.0947 15.8198 26.6531 14.9811 26.4622 14.1286C26.4245 13.8989 26.1122 13.3604 25.7284 13.1666C26.0947 12.6947 26.0601 12.2927 26.0092 11.946C25.9728 11.6799 25.8509 11.3861 25.6957 11.1244C25.4507 10.8073 25.2227 10.5613 24.7515 10.2838C24.8225 9.88116 24.771 9.53324 24.6127 9.20104C24.2471 8.57189 23.5862 8.03207 22.4522 7.45577C22.4001 7.22739 22.2594 6.93042 22.0169 6.63472C20.5889 5.21975 18.2519 4.53838 16.2812 4.50315C16.1706 4.50063 16.0613 4.5 15.9533 4.5C13.6483 4.5 11.7988 5.01842 10.6529 5.55383L10.6536 5.55321ZM21.8083 9.04627C21.9842 8.85375 22.243 8.55679 22.3121 8.31142C22.8021 8.626 23.3594 9.09786 23.4279 9.58735C22.9064 9.39231 22.3486 9.18657 21.8083 9.04627ZM22.243 11.1753C21.4081 10.9476 20.6762 10.6676 19.6975 10.4952C20.2924 10.2662 20.6907 10.0233 21.0419 9.74275C21.8234 9.95037 22.5559 10.2146 23.1521 10.4757C23.0497 10.628 22.4522 11.181 22.2707 11.181C22.2611 11.1815 22.2516 11.1796 22.243 11.1753ZM23.7608 11.7869C23.9857 11.6113 24.1962 11.422 24.389 11.1923C24.8577 11.5937 24.9972 11.8737 24.7722 12.311C24.4594 12.0845 24.1252 11.9605 23.7608 11.7869ZM5.86022 16.1186C4.56796 14.3368 9.04782 13.0628 9.90346 12.7998C12.0815 12.1518 14.6277 11.6654 16.9289 11.3861C18.512 11.1923 19.3513 11.3691 20.8509 11.7699C16.998 12.7998 13.1966 13.1295 9.5705 14.1965C6.64738 15.0471 5.87215 16.1186 5.86022 16.1186ZM6.817 16.973C8.17648 15.8191 10.9488 15.1742 11.9609 14.9471C15.1843 14.2488 18.1834 13.8127 19.4204 13.4988C20.9206 13.1295 21.966 12.7822 22.6953 12.4343C22.7312 12.3808 23.916 12.9565 24.0385 13.0949C23.6383 13.4283 23.0817 13.7089 22.4698 13.9159C20.6404 14.5803 17.3115 15.2774 15.5512 15.5442C13.7733 15.8399 12.2888 16.0651 10.3219 16.5867C9.18729 16.8862 8.4196 17.2347 7.86174 17.6028C7.44397 17.3574 7.20022 17.2895 6.817 16.9736V16.973ZM9.34623 18.3703C9.91917 18.1262 10.5474 17.9331 11.1555 17.7789C14.225 17.024 16.9289 16.8855 20.6586 15.8745C22.4529 15.4007 23.7608 14.893 24.5806 14.2676C24.7019 14.1607 24.8231 14.0738 24.9463 13.97C26.0268 15.6461 21.966 16.9384 19.193 17.5348C17.7428 17.8221 16.2899 18.0952 14.8344 18.354C13.0245 18.6509 12.4283 18.8089 11.1744 19.175C10.5474 18.9297 9.91917 18.6679 9.34623 18.3703ZM6.08386 17.8463C6.36342 18.0224 6.57199 18.1634 6.90432 18.3357C6.78182 18.4402 6.62414 18.5459 6.50352 18.6679C6.22584 18.5088 5.9444 18.1634 6.08386 17.8463ZM7.53255 19.4531C7.73486 19.2804 7.95013 19.1235 8.17648 18.9838C8.69979 19.2291 9.23943 19.4531 9.74452 19.6815C9.37764 19.8199 9.04719 19.9778 8.77078 20.1534C8.35459 19.9261 7.9418 19.6927 7.53255 19.4531ZM7.07834 20.3088C7.37486 20.5013 7.67076 20.658 7.96853 20.8165C7.84666 20.9914 7.75808 21.1292 7.70719 21.306C7.27058 20.9379 7.06012 20.6416 7.07897 20.3088H7.07834Z" fill="#0057B6"/>
        <path d="M45.579 22.0562H48.7586L49.1432 19.7447H51.3304L51.715 22.0664H54.8911L52.2094 8.62642H48.2641L45.579 22.0562ZM50.2351 12.6741L50.8188 16.7762H49.6342L50.2351 12.6741ZM57.8853 13.9745C58.3901 13.9745 59.324 13.6341 59.324 12.6605C59.324 11.4894 58.2493 11.4111 57.9505 11.4111C57.3575 11.4131 56.7719 11.542 56.2337 11.789L56.2131 8.88174C57.1078 8.63929 58.0327 8.52466 58.96 8.54132C61.5181 8.54132 62.6719 10.3285 62.6719 12.0647C62.7017 12.7184 62.533 13.3659 62.1878 13.9236C61.8426 14.4813 61.3366 14.9236 60.7353 15.1932V15.3192C61.6418 15.6017 62.8779 16.48 62.8779 18.543C62.8367 21.0724 61.0683 22.4681 58.7987 22.4681C57.766 22.5222 56.7388 22.2862 55.8354 21.7873L55.8869 18.9958C56.5388 19.2874 57.2494 19.4272 57.9643 19.4043C58.1429 19.4183 58.3226 19.3957 58.4921 19.3379C58.6615 19.28 58.8171 19.1882 58.9492 19.0681C59.0813 18.948 59.187 18.8022 59.2598 18.6399C59.3325 18.4775 59.3708 18.302 59.3721 18.1243C59.3721 17.3686 58.8914 16.8647 57.8235 16.8647H56.5462V13.9745H57.8853ZM64.3097 8.61621H72.8493V22.0562H69.7212V11.8434H67.4412V22.0562H64.3097V8.61621ZM74.6382 22.0562H77.7732V17.6307H78.8239C81.9142 17.6307 82.8756 14.8562 82.8756 13.0928C82.8756 11.3294 81.7837 8.61961 78.8239 8.62302H74.6382V22.0562ZM77.7732 11.5745H78.5148C79.2291 11.5745 79.672 11.9966 79.672 13.1098C79.672 14.5668 78.92 14.6656 78.5148 14.6656H77.7732V11.5745ZM88.6751 22.2196C92.3835 22.2196 93.6402 18.7677 93.6402 15.3192C93.6402 11.8707 92.3835 8.41876 88.6751 8.41876C84.9667 8.41876 83.7134 11.8741 83.7134 15.3192C83.7134 18.7643 84.9633 22.2196 88.6751 22.2196ZM88.6751 18.9686C87.5763 18.9686 87.0029 17.6851 87.0029 15.3192C87.0029 12.9532 87.5763 11.6698 88.6751 11.6698C89.7739 11.6698 90.3473 12.9498 90.3473 15.3192C90.3473 17.6885 89.7773 18.9686 88.6751 18.9686ZM107.272 22.0528H111.011C111.822 22.0528 115.204 21.7124 115.214 17.6545C115.217 14.2196 112.587 13.6171 110.908 13.6171H110.355V11.8434H114.479V8.61621H107.268L107.272 22.0528ZM110.338 19.3634V16.2996H110.795C111.159 16.2996 112.151 16.32 112.151 17.6988C112.151 19.0775 111.159 19.3566 110.795 19.3566L110.338 19.3634ZM126.476 8.6128H129.543V13.4571H131.73V8.61621H134.789V22.0562H131.73V16.6809H129.543V22.0562H126.476V8.6128ZM136.85 8.6128H139.912V13.4537H140.575L142.333 8.61621H145.664L143.26 14.9958L145.987 22.0562H142.398L140.637 16.6537H139.912V22.0562H136.85V8.6128ZM39.5186 8.6128H45.9361V11.9694H42.7016V22.063H39.522L39.5186 8.6128ZM95.1441 8.6128H97.8018L100.15 11.7788L102.513 8.6128H105.164V22.0596H102.039V13.8588L100.15 16.2111L98.2722 13.8588V22.063H95.1441V8.6128ZM115.829 22.0732H119.008L119.386 19.7447H121.573L121.961 22.0664H125.134L122.452 8.62642H118.507L115.829 22.0732ZM120.485 12.6945L121.075 16.7796H119.891L120.485 12.6945Z" fill="#0057B6"/>
        <path d="M44.8609 27.983V34.6077H44.0814V29.5523L39.7996 34.7234H39.5215V28.0919H40.2975V33.1438L44.5793 27.983H44.8609Z" fill="#0057B6"/>
        <path d="M46.6025 28.0919H47.3854V30.7778H51.0698V28.0919H51.8492V34.6076H51.0732V31.4689H47.3854V34.6076H46.6094L46.6025 28.0919Z" fill="#0057B6"/>
        <path d="M58.3726 32.7319C58.3726 33.8076 57.5966 34.6076 56.2918 34.6076H53.5654V28.0919H55.8282C56.9922 28.0919 57.6996 28.7931 57.6996 29.7395C57.7063 29.9877 57.6527 30.2339 57.5433 30.4572C57.4339 30.6806 57.272 30.8746 57.0712 31.0229C57.4527 31.117 57.79 31.338 58.0269 31.6491C58.2638 31.9601 58.3858 32.3423 58.3726 32.7319ZM54.362 28.7829V30.805H55.7664C56.5321 30.805 56.9201 30.3897 56.9201 29.7838C56.9201 29.1778 56.5424 28.7625 55.7664 28.7625L54.362 28.7829ZM57.576 32.7114C57.576 32.0102 57.0987 31.5063 56.2025 31.5063H54.3517V33.9165H56.2025C57.0952 33.9165 57.5725 33.4229 57.5725 32.7114H57.576Z" fill="#0057B6"/>
        <path d="M59.6572 28.0919H63.8669V28.7727H60.4332V30.7676H63.0634V31.4485H60.4332V33.8961H63.9905V34.577H59.6572V28.0919Z" fill="#0057B6"/>
        <path d="M64.5061 31.3498C64.5019 30.9051 64.5875 30.464 64.7577 30.0526C64.928 29.6411 65.1795 29.2675 65.4975 28.9539C65.8155 28.6402 66.1936 28.3927 66.6094 28.226C67.0253 28.0592 67.4706 27.9766 67.9192 27.983C68.4561 27.9723 68.9872 28.0951 69.464 28.3401C69.9408 28.5851 70.3481 28.9445 70.6489 29.3856L70.0721 29.8383C69.8414 29.4838 69.5239 29.193 69.1492 28.993C68.7746 28.793 68.355 28.6903 67.9295 28.6945C67.2191 28.6945 66.5379 28.9742 66.0356 29.4722C65.5334 29.9702 65.2512 30.6456 65.2512 31.3498C65.2512 32.054 65.5334 32.7294 66.0356 33.2274C66.5379 33.7254 67.2191 34.0051 67.9295 34.0051C68.3552 34.0086 68.7749 33.9053 69.1496 33.7047C69.5242 33.5041 69.8415 33.2128 70.0721 32.8579L70.6489 33.3141C70.3503 33.7577 69.9436 34.1195 69.4664 34.3659C68.9892 34.6122 68.457 34.7352 67.9192 34.7234C67.47 34.7298 67.0242 34.647 66.6078 34.4798C66.1915 34.3127 65.8131 34.0646 65.495 33.7502C65.177 33.4358 64.9256 33.0614 64.7557 32.6492C64.5859 32.2369 64.501 31.7951 64.5061 31.3498Z" fill="#0057B6"/>
        <path d="M73.659 28.783H71.3516V28.1021H76.7562V28.783H74.4385V34.6076H73.659V28.783Z" fill="#0057B6"/>
        <path d="M83.1875 27.983V34.6077H82.408V29.5523L78.1297 34.7234H77.8516V28.0919H78.631V33.1438L82.9094 27.983H83.1875Z" fill="#0057B6"/>
        <path d="M90.0959 34.6076H84.9453V28.0919H85.7213V33.9165H89.2752V28.0919H90.0547V33.9165H90.8616V35.9999H90.0821L90.0959 34.6076Z" fill="#0057B6"/>
        <path d="M97.3867 27.983V34.6077H96.6107V29.5523L92.3289 34.7234H92.0508V28.0919H92.8268V33.1438L97.1086 27.983H97.3867Z" fill="#0057B6"/>
        <path d="M104.462 27.983V34.6077H103.696V29.5523L99.4041 34.7234H99.126V28.0919H99.9192V33.1438L104.184 27.983H104.462Z" fill="#0057B6"/>
    </g>
    <defs>
        <clipPath id="clip0">
            <rect width="164" height="36" fill="white"/>
        </clipPath>
    </defs>
</svg>
